<?xml version="1.0" encoding="utf-8"?>
<!-- Generator: Adobe Illustrator 22.1.0, SVG Export Plug-In . SVG Version: 6.00 Build 0)  -->
<svg version="1.1" id="Layer_1" xmlns="http://www.w3.org/2000/svg" xmlns:xlink="http://www.w3.org/1999/xlink" x="0px" y="0px"
	 viewBox="0 0 24 24" style="enable-background:new 0 0 24 24;" xml:space="preserve">
<style type="text/css">
	.st0{fill:none;stroke:#028970;stroke-linecap:round;stroke-linejoin:round;}
</style>
<title>monitor-page</title>
<path class="st0" d="M21.5,5.5h1c0.6,0,1,0.4,1,1v13c0,0.6-0.4,1-1,1h-21c-0.6,0-1-0.4-1-1v-13c0-0.6,0.4-1,1-1h1"/>
<line class="st0" x1="7" y1="23.5" x2="17" y2="23.5"/>
<line class="st0" x1="10.5" y1="20.5" x2="10.5" y2="23.5"/>
<line class="st0" x1="13.5" y1="20.5" x2="13.5" y2="23.5"/>
<path class="st0" d="M4.5,15.5v-14c0-0.6,0.4-1,1-1h13c0.6,0,1,0.4,1,1v14"/>
<path class="st0" d="M7,7.5h3c0.3,0,0.5,0.2,0.5,0.5v3c0,0.3-0.2,0.5-0.5,0.5H7c-0.3,0-0.5-0.2-0.5-0.5V8C6.5,7.7,6.7,7.5,7,7.5z"/>
<line class="st0" x1="12.6" y1="10.5" x2="17.5" y2="10.5"/>
<line class="st0" x1="12.6" y1="8" x2="17.5" y2="8"/>
<line class="st0" x1="6.5" y1="13.5" x2="17.5" y2="13.5"/>
<line class="st0" x1="0.5" y1="17.5" x2="23.5" y2="17.5"/>
<line class="st0" x1="4.5" y1="4.5" x2="19.5" y2="4.5"/>
<path class="st0" d="M6.8,2.5C6.9,2.5,7,2.6,7,2.8S6.9,3,6.8,3S6.5,2.9,6.5,2.8S6.6,2.5,6.8,2.5"/>
<path class="st0" d="M8.8,2.5C8.9,2.5,9,2.6,9,2.8S8.9,3,8.8,3S8.5,2.9,8.5,2.8S8.6,2.5,8.8,2.5"/>
<path class="st0" d="M10.8,2.5c0.1,0,0.3,0.1,0.3,0.3S10.9,3,10.8,3s-0.3-0.1-0.3-0.3S10.6,2.5,10.8,2.5"/>
</svg>
