<?xml version="1.0" encoding="utf-8"?>
<!-- Generator: Adobe Illustrator 22.1.0, SVG Export Plug-In . SVG Version: 6.00 Build 0)  -->
<svg version="1.1" id="Layer_1" xmlns="http://www.w3.org/2000/svg" xmlns:xlink="http://www.w3.org/1999/xlink" x="0px" y="0px"
	 viewBox="0 0 24 24" style="enable-background:new 0 0 24 24;" xml:space="preserve">
<style type="text/css">
	.st0{fill:none;stroke:#028970;stroke-linecap:round;stroke-linejoin:round;}
</style>
<title>ab-testing-chemistry</title>
<line class="st0" x1="0.5" y1="4.5" x2="20.5" y2="4.5"/>
<path class="st0" d="M3.3,2.3C3.1,2.3,3,2.4,3,2.5s0.1,0.3,0.3,0.3s0.3-0.1,0.3-0.3S3.4,2.3,3.3,2.3L3.3,2.3"/>
<path class="st0" d="M5.8,2.3c-0.1,0-0.3,0.1-0.3,0.3s0.1,0.3,0.3,0.3S6,2.6,6,2.5S5.9,2.3,5.8,2.3L5.8,2.3"/>
<path class="st0" d="M8.3,2.3C8.1,2.3,8,2.4,8,2.5s0.1,0.3,0.3,0.3s0.3-0.1,0.3-0.3S8.4,2.3,8.3,2.3L8.3,2.3"/>
<path class="st0" d="M10,15.5H2.5c-1.1,0-2-0.9-2-2v-11c0-1.1,0.9-2,2-2h16c1.1,0,2,0.9,2,2v8"/>
<line class="st0" x1="17.5" y1="9.5" x2="17.5" y2="11.5"/>
<line class="st0" x1="18.5" y1="10.5" x2="16.5" y2="10.5"/>
<line class="st0" x1="12.5" y1="7.5" x2="12.5" y2="9.5"/>
<line class="st0" x1="13.5" y1="8.5" x2="11.5" y2="8.5"/>
<path class="st0" d="M23.5,13.5h-3V22c0,0.8,0.7,1.5,1.5,1.5s1.5-0.7,1.5-1.5V13.5z"/>
<line class="st0" x1="20.5" y1="18" x2="23.5" y2="18"/>
<path class="st0" d="M18.4,22.8l-2.9-4.6c0-0.1-0.1-0.2-0.1-0.3V14c0-0.3-0.2-0.5-0.5-0.5h-1c-0.3,0-0.5,0.2-0.5,0.5v3.9
	c0,0.1,0,0.2-0.1,0.3l-2.9,4.6c-0.1,0.2,0,0.5,0.2,0.7c0.1,0,0.2,0.1,0.2,0.1h7c0.3,0,0.5-0.2,0.5-0.5
	C18.5,22.9,18.5,22.8,18.4,22.8z"/>
<line class="st0" x1="17" y1="20.5" x2="12" y2="20.5"/>
</svg>
