<?xml version="1.0" encoding="utf-8"?>
<!-- Generator: Adobe Illustrator 23.0.1, SVG Export Plug-In . SVG Version: 6.00 Build 0)  -->
<svg version="1.1" id="Layer_1" xmlns="http://www.w3.org/2000/svg" xmlns:xlink="http://www.w3.org/1999/xlink" x="0px" y="0px"
	 viewBox="0 0 24 24" style="enable-background:new 0 0 24 24;" xml:space="preserve">
<style type="text/css">
	.st0{fill:none;stroke:#028970;stroke-linecap:round;stroke-linejoin:round;}
</style>
<title>ads-window</title>
<path class="st0" d="M1.5,0.5h21c0.6,0,1,0.4,1,1v21c0,0.6-0.4,1-1,1h-21c-0.6,0-1-0.4-1-1v-21C0.5,0.9,0.9,0.5,1.5,0.5z"/>
<path class="st0" d="M16.5,9.5h-1c-0.6,0-1,0.4-1,1c0,1.5,2,1.5,2,3c0,0.6-0.4,1-1,1h-1"/>
<path class="st0" d="M6.5,14.5v-4c0-0.6,0.4-1,1-1s1,0.4,1,1v4"/>
<line class="st0" x1="6.5" y1="12.5" x2="8.5" y2="12.5"/>
<path class="st0" d="M10.5,14.5c1.1,0,2-0.9,2-2v-1c0-1.1-0.9-2-2-2V14.5z"/>
<line class="st0" x1="21.5" y1="5.5" x2="18.5" y2="2.5"/>
<line class="st0" x1="21.5" y1="2.5" x2="18.5" y2="5.5"/>
</svg>
