<?xml version="1.0" encoding="utf-8"?>
<!-- Generator: Adobe Illustrator 23.0.1, SVG Export Plug-In . SVG Version: 6.00 Build 0)  -->
<svg version="1.1" id="Layer_1" xmlns="http://www.w3.org/2000/svg" xmlns:xlink="http://www.w3.org/1999/xlink" x="0px" y="0px"
	 viewBox="0 0 24 24" style="enable-background:new 0 0 24 24;" xml:space="preserve">
<style type="text/css">
	.st0{fill:none;stroke:#028970;stroke-linecap:round;stroke-linejoin:round;}
</style>
<title>advertising-megaphone</title>
<line class="st0" x1="0.6" y1="19.5" x2="2.3" y2="22.1"/>
<line class="st0" x1="9.9" y1="8.3" x2="16.3" y2="17.9"/>
<polygon class="st0" points="15.9,17.4 1.9,21.6 0.9,20 10.2,8.8 "/>
<path class="st0" d="M9.2,19.4c0.8,0.9,0.7,2.2-0.2,3c-0.9,0.8-2.2,0.7-3-0.2C6,22.1,5.9,22,5.8,22L5,20.6"/>
<path class="st0" d="M3.6,12.5l-0.7-0.7c-0.2-0.2-0.2-0.5,0-0.7l1.8-1.9L4.1,6.6C4.1,6.4,4.2,6.1,4.5,6L7,5.3l0.7-2.5
	C7.8,2.5,8,2.4,8.3,2.4L10.8,3l1.9-1.8c0.2-0.2,0.5-0.2,0.7,0L15.3,3l2.5-0.6c0.3-0.1,0.5,0.1,0.6,0.3l0.7,2.5L21.7,6
	c0.3,0.1,0.4,0.3,0.3,0.6l-0.6,2.5l1.8,1.9c0.2,0.2,0.2,0.5,0,0.7l-1.8,1.9l0.6,2.5c0.1,0.3-0.1,0.5-0.3,0.6l-2.5,0.7L18.5,20
	c-0.1,0.3-0.3,0.4-0.6,0.3l-2.5-0.6l-1.9,1.8c-0.2,0.2-0.5,0.2-0.7,0l-0.4-0.3"/>
</svg>
