<?xml version="1.0" encoding="utf-8"?>
<!-- Generator: Adobe Illustrator 22.1.0, SVG Export Plug-In . SVG Version: 6.00 Build 0)  -->
<svg version="1.1" id="Layer_1" xmlns="http://www.w3.org/2000/svg" xmlns:xlink="http://www.w3.org/1999/xlink" x="0px" y="0px"
	 viewBox="0 0 24 24" style="enable-background:new 0 0 24 24;" xml:space="preserve">
<style type="text/css">
	.st0{fill:none;stroke:#028970;stroke-linecap:round;stroke-linejoin:round;}
</style>
<title>alert-circle</title>
<path class="st0" d="M23,11.8c0,6.1-4.9,11.1-11,11.2C6,23.1,1.1,18.3,1,12.3c0,0,0-0.1,0-0.1C1,6.1,5.9,1.1,12,1
	c6-0.1,10.9,4.7,11,10.7C23,11.7,23,11.8,23,11.8z"/>
<line class="st0" x1="12" y1="14" x2="12" y2="7"/>
<path class="st0" d="M12,16c-0.1,0-0.2,0.1-0.2,0.2c0,0,0,0,0,0c0,0.1,0.1,0.2,0.3,0.2l0,0c0.1,0,0.2-0.1,0.2-0.3c0,0,0,0,0,0
	C12.2,16.1,12.1,16,12,16L12,16"/>
</svg>
