<?xml version="1.0" encoding="utf-8"?>
<!-- Generator: Adobe Illustrator 23.0.1, SVG Export Plug-In . SVG Version: 6.00 Build 0)  -->
<svg version="1.1" id="Layer_1" xmlns="http://www.w3.org/2000/svg" xmlns:xlink="http://www.w3.org/1999/xlink" x="0px" y="0px"
	 viewBox="0 0 24 24" style="enable-background:new 0 0 24 24;" xml:space="preserve">
<style type="text/css">
	.st0{fill:none;stroke:#028970;stroke-linecap:round;stroke-linejoin:round;}
</style>
<title>analytics-mountain</title>
<path class="st0" d="M23.5,22H1c-0.3,0-0.5-0.2-0.5-0.5V2"/>
<path class="st0" d="M12.9,15.5c0.2,1,0.5,3.5,3.1,3.5"/>
<path class="st0" d="M3,19c1.4,0,2.7-1,2.9-2.5L7.1,10C7.4,8.7,8.6,7.8,9.9,8c0.4,0.1,0.7,0.2,1,0.4"/>
<path class="st0" d="M8,19c1.4,0,2.7-1,2.9-2.5l1.2-6.6c0.2-1.3,1.5-2.2,2.8-1.9c1,0.2,1.7,0.9,1.9,1.9l1.2,6.6
	C18.3,18,19.6,19,21,19"/>
</svg>
