<?xml version="1.0" encoding="utf-8"?>
<!-- Generator: Adobe Illustrator 23.0.1, SVG Export Plug-In . SVG Version: 6.00 Build 0)  -->
<svg version="1.1" id="Layer_1" xmlns="http://www.w3.org/2000/svg" xmlns:xlink="http://www.w3.org/1999/xlink" x="0px" y="0px"
	 viewBox="0 0 24 24" style="enable-background:new 0 0 24 24;" xml:space="preserve">
<style type="text/css">
	.st0{fill:none;stroke:#028970;stroke-linecap:round;stroke-linejoin:round;}
</style>
<title>analytics-bars-horizontal</title>
<path class="st0" d="M0.5,0.5V23c0,0.3,0.2,0.5,0.5,0.5h22.5"/>
<path class="st0" d="M0.5,16.5h18c0.6,0,1,0.4,1,1v2c0,0.6-0.4,1-1,1h-18"/>
<path class="st0" d="M0.5,9.5h12c0.6,0,1,0.4,1,1v2c0,0.6-0.4,1-1,1h-12"/>
<path class="st0" d="M0.5,2.5h12c0.6,0,1,0.4,1,1v2c0,0.6-0.4,1-1,1h-12"/>
</svg>
