<?xml version="1.0" encoding="utf-8"?>
<!-- Generator: Adobe Illustrator 22.1.0, SVG Export Plug-In . SVG Version: 6.00 Build 0)  -->
<svg version="1.1" id="Layer_1" xmlns="http://www.w3.org/2000/svg" xmlns:xlink="http://www.w3.org/1999/xlink" x="0px" y="0px"
	 viewBox="0 0 24 24" style="enable-background:new 0 0 24 24;" xml:space="preserve">
<style type="text/css">
	.st0{fill:none;stroke:#028970;stroke-linecap:round;stroke-linejoin:round;}
</style>
<title>app-window</title>
<path class="st0" d="M2.5,2h19c1.1,0,2,0.9,2,2v16c0,1.1-0.9,2-2,2h-19c-1.1,0-2-0.9-2-2V4C0.5,2.9,1.4,2,2.5,2z"/>
<line class="st0" x1="0.5" y1="7" x2="23.5" y2="7"/>
<path class="st0" d="M4,4.3c0.1,0,0.3,0.1,0.3,0.3S4.1,4.8,4,4.8c-0.1,0-0.3-0.1-0.3-0.3S3.9,4.3,4,4.3"/>
<path class="st0" d="M7,4.3c0.1,0,0.3,0.1,0.3,0.3S7.1,4.8,7,4.8S6.8,4.6,6.8,4.5S6.9,4.3,7,4.3"/>
<path class="st0" d="M10,4.3c0.1,0,0.3,0.1,0.3,0.3S10.1,4.8,10,4.8S9.8,4.6,9.8,4.5S9.9,4.3,10,4.3"/>
</svg>
