<?xml version="1.0" encoding="utf-8"?>
<!-- Generator: Adobe Illustrator 22.1.0, SVG Export Plug-In . SVG Version: 6.00 Build 0)  -->
<svg version="1.1" id="Layer_1" xmlns="http://www.w3.org/2000/svg" xmlns:xlink="http://www.w3.org/1999/xlink" x="0px" y="0px"
	 viewBox="0 0 24 24" style="enable-background:new 0 0 24 24;" xml:space="preserve">
<style type="text/css">
	.st0{fill:none;stroke:#028970;stroke-linecap:round;stroke-linejoin:round;}
</style>
<title>app-window-sync</title>
<line class="st0" x1="0.5" y1="4.5" x2="20.5" y2="4.5"/>
<line class="st0" x1="3.5" y1="2.3" x2="3.5" y2="2.3"/>
<path class="st0" d="M3.5,2.3c-0.1,0-0.3,0.1-0.3,0.3s0.1,0.3,0.3,0.3s0.3-0.1,0.3-0.3C3.8,2.4,3.7,2.3,3.5,2.3
	C3.5,2.3,3.5,2.3,3.5,2.3"/>
<line class="st0" x1="5.5" y1="2.3" x2="5.5" y2="2.3"/>
<path class="st0" d="M5.5,2.3c-0.1,0-0.3,0.1-0.3,0.3s0.1,0.3,0.3,0.3s0.3-0.1,0.3-0.3C5.8,2.4,5.7,2.3,5.5,2.3
	C5.5,2.3,5.5,2.3,5.5,2.3"/>
<line class="st0" x1="7.5" y1="2.3" x2="7.5" y2="2.3"/>
<path class="st0" d="M7.5,2.3c-0.1,0-0.3,0.1-0.3,0.3s0.1,0.3,0.3,0.3s0.3-0.1,0.3-0.3C7.8,2.4,7.7,2.3,7.5,2.3
	C7.5,2.3,7.5,2.3,7.5,2.3"/>
<path class="st0" d="M9.5,16.5h-7c-1.1,0-2-0.9-2-2v-12c0-1.1,0.9-2,2-2h16c1.1,0,2,0.9,2,2V10"/>
<polyline class="st0" points="15,18.5 11.5,18.5 11.5,22 "/>
<path class="st0" d="M22.9,19.7c-1,2.9-4.2,4.5-7.1,3.5c-2.1-0.7-3.5-2.5-3.7-4.7"/>
<polyline class="st0" points="20,16.5 23.5,16.5 23.5,13 "/>
<path class="st0" d="M12.1,15.3c1-2.9,4.2-4.5,7.1-3.5c2.1,0.7,3.5,2.5,3.7,4.7"/>
</svg>
