<?xml version="1.0" encoding="utf-8"?>
<!-- Generator: Adobe Illustrator 22.1.0, SVG Export Plug-In . SVG Version: 6.00 Build 0)  -->
<svg version="1.1" id="Layer_1" xmlns="http://www.w3.org/2000/svg" xmlns:xlink="http://www.w3.org/1999/xlink" x="0px" y="0px"
	 viewBox="0 0 24 24" style="enable-background:new 0 0 24 24;" xml:space="preserve">
<style type="text/css">
	.st0{fill:none;stroke:#028970;stroke-linecap:round;stroke-linejoin:round;}
	.st1{fill:none;stroke:#000000;stroke-linecap:round;stroke-linejoin:round;}
</style>
<title>app-window-edit</title>
<line class="st0" x1="0.5" y1="4.5" x2="20.5" y2="4.5"/>
<line class="st1" x1="3.5" y1="2.3" x2="3.5" y2="2.3"/>
<path class="st0" d="M3.5,2.3c-0.1,0-0.3,0.1-0.3,0.3s0.1,0.3,0.3,0.3s0.3-0.1,0.3-0.3S3.7,2.3,3.5,2.3"/>
<line class="st1" x1="5.5" y1="2.3" x2="5.5" y2="2.3"/>
<path class="st0" d="M5.5,2.3c-0.1,0-0.3,0.1-0.3,0.3s0.1,0.3,0.3,0.3s0.3-0.1,0.3-0.3S5.7,2.3,5.5,2.3"/>
<line class="st1" x1="7.5" y1="2.3" x2="7.5" y2="2.3"/>
<path class="st0" d="M7.5,2.3c-0.1,0-0.3,0.1-0.3,0.3s0.1,0.3,0.3,0.3s0.3-0.1,0.3-0.3S7.7,2.3,7.5,2.3"/>
<path class="st0" d="M9.5,16.5h-7c-1.1,0-2-0.9-2-2v-12c0-1.1,0.9-2,2-2h16c1.1,0,2,0.9,2,2v7"/>
<path class="st0" d="M15.7,22.3l-4.2,1.2l1.2-4.2l7.2-7.2c0.8-0.8,2.2-0.8,3,0s0.8,2.2,0,3L15.7,22.3z"/>
<line class="st0" x1="19" y1="13" x2="22" y2="16"/>
<line class="st0" x1="12.7" y1="19.3" x2="15.7" y2="22.3"/>
</svg>
