<?xml version="1.0" encoding="utf-8"?>
<!-- Generator: Adobe Illustrator 22.1.0, SVG Export Plug-In . SVG Version: 6.00 Build 0)  -->
<svg version="1.1" id="Layer_1" xmlns="http://www.w3.org/2000/svg" xmlns:xlink="http://www.w3.org/1999/xlink" x="0px" y="0px"
	 viewBox="0 0 24 24" style="enable-background:new 0 0 24 24;" xml:space="preserve">
<style type="text/css">
	.st0{fill:none;stroke:#028970;stroke-linecap:round;stroke-linejoin:round;}
</style>
<title>app-window-two</title>
<line class="st0" x1="0.5" y1="6.5" x2="20.5" y2="6.5"/>
<line class="st0" x1="3.5" y1="4.3" x2="3.5" y2="4.3"/>
<path class="st0" d="M3.5,4.3c-0.1,0-0.3,0.1-0.3,0.3s0.1,0.3,0.3,0.3s0.3-0.1,0.3-0.3S3.6,4.3,3.5,4.3"/>
<line class="st0" x1="5.5" y1="4.3" x2="5.5" y2="4.3"/>
<path class="st0" d="M5.5,4.3c-0.1,0-0.3,0.1-0.3,0.3s0.1,0.3,0.3,0.3s0.3-0.1,0.3-0.3S5.6,4.3,5.5,4.3"/>
<line class="st0" x1="7.5" y1="4.3" x2="7.5" y2="4.3"/>
<path class="st0" d="M7.5,4.3c-0.1,0-0.3,0.1-0.3,0.3s0.1,0.3,0.3,0.3s0.3-0.1,0.3-0.3S7.6,4.3,7.5,4.3"/>
<path class="st0" d="M2.5,2.5h16c1.1,0,2,0.9,2,2v11c0,1.1-0.9,2-2,2h-16c-1.1,0-2-0.9-2-2v-11C0.5,3.4,1.4,2.5,2.5,2.5z"/>
<line class="st0" x1="20.5" y1="10.5" x2="23.5" y2="10.5"/>
<path class="st0" d="M20.5,6.5h1c1.1,0,2,0.9,2,2v11c0,1.1-0.9,2-2,2h-16c-1.1,0-2-0.9-2-2v-2"/>
</svg>
