<?xml version="1.0" encoding="utf-8"?>
<!-- Generator: Adobe Illustrator 22.1.0, SVG Export Plug-In . SVG Version: 6.00 Build 0)  -->
<svg version="1.1" id="Layer_1" xmlns="http://www.w3.org/2000/svg" xmlns:xlink="http://www.w3.org/1999/xlink" x="0px" y="0px"
	 viewBox="0 0 24 24" style="enable-background:new 0 0 24 24;" xml:space="preserve">
<style type="text/css">
	.st0{fill:none;stroke:#028970;stroke-linecap:round;stroke-linejoin:round;}
</style>
<title>app-window-next</title>
<polyline class="st0" points="19,12 23.5,15.5 19,19 "/>
<path class="st0" d="M23.5,15.5H20c-3.3,0-6,2.7-6,6v2"/>
<line class="st0" x1="1" y1="4.5" x2="21" y2="4.5"/>
<line class="st0" x1="4" y1="2.3" x2="4" y2="2.3"/>
<path class="st0" d="M4,2.3c-0.1,0-0.3,0.1-0.3,0.3S3.9,2.8,4,2.8s0.3-0.1,0.3-0.3S4.2,2.3,4,2.3"/>
<line class="st0" x1="6" y1="2.3" x2="6" y2="2.3"/>
<path class="st0" d="M6,2.3c-0.1,0-0.3,0.1-0.3,0.3S5.9,2.8,6,2.8s0.3-0.1,0.3-0.3S6.2,2.3,6,2.3"/>
<line class="st0" x1="8" y1="2.3" x2="8" y2="2.3"/>
<path class="st0" d="M8,2.3c-0.1,0-0.3,0.1-0.3,0.3S7.9,2.8,8,2.8c0.1,0,0.3-0.1,0.3-0.3S8.2,2.3,8,2.3"/>
<path class="st0" d="M12,16.5H3c-1.1,0-2-0.9-2-2v-12c0-1.1,0.9-2,2-2h16c1.1,0,2,0.9,2,2v8"/>
</svg>
