<svg id="Layer_1" data-name="Layer 1" xmlns="http://www.w3.org/2000/svg" viewBox="0 0 1282 1280"><defs><style>.cls-1{fill:#364444;}.cls-2,.cls-3{fill:none;stroke:#fff;}.cls-2{stroke-miterlimit:10;}</style></defs><title>BlackBox</title><rect class="cls-1" width="1280" height="1280"/><line class="cls-2" x1="677.5" y1="203" x2="677.5" y2="1076"/><line class="cls-2" x1="878.5" y1="203" x2="878.5" y2="1076"/><line class="cls-2" x1="1079.5" y1="203" x2="1079.5" y2="1076"/><line class="cls-2" x1="627" y1="639.75" x2="1280" y2="639.75"/><line class="cls-2" x1="627" y1="438.75" x2="1280" y2="438.75"/><line class="cls-2" x1="639.5" y1="237.75" x2="1280" y2="237.75"/><line class="cls-2" x1="568.5" y1="1041.75" x2="1280" y2="1041.75"/><line class="cls-2" x1="627.5" y1="840.75" x2="1280" y2="840.75"/><circle class="cls-2" cx="978.5" cy="338.5" r="101"/><circle class="cls-2" cx="1180.5" cy="941.5" r="101"/><line class="cls-2" x1="877.5" y1="238.5" x2="677.5" y2="438.5"/><path class="cls-3" d="M677,638v52.91c0,75.22,71.35,111.27,100.72,129.91,39.49,25.08,100.71,52.42,100.71,178.92V1041"/><polygon class="cls-2" points="1079.5 790.89 1079.5 690.44 979 640.21 878.5 690.44 878.5 790.89 979 841.13 1079.5 790.89"/><line class="cls-2" x1="979.5" y1="640.5" x2="979.5" y2="740.5"/><line class="cls-2" x1="878.5" y1="790.5" x2="979.5" y2="740.5"/><line class="cls-2" x1="978.61" y1="740.47" x2="1080.5" y2="790.5"/></svg>