<?xml version="1.0" encoding="utf-8"?>
<!-- Generator: Adobe Illustrator 23.0.1, SVG Export Plug-In . SVG Version: 6.00 Build 0)  -->
<svg version="1.1" id="Layer_1" xmlns="http://www.w3.org/2000/svg" xmlns:xlink="http://www.w3.org/1999/xlink" x="0px" y="0px"
	 viewBox="0 0 24 24" style="enable-background:new 0 0 24 24;" xml:space="preserve">
<style type="text/css">
	.st0{fill:#028970;}
</style>
<g>
	<title>business-climb-top</title>
	<path class="st0" d="M0.8,24c-0.2,0-0.3-0.1-0.4-0.3s-0.1-0.4,0-0.5l3.5-5.5c0,0,0,0,0,0C4.2,17.3,4.7,17,5.2,17
		c0.6,0,1.1,0.3,1.4,0.7c0,0,0,0.1,0.1,0.1l0.3,0.5l5.4-8.5c0.2-0.3,0.6-0.5,0.9-0.7V0.5c0-0.3,0.2-0.5,0.5-0.5h7
		c0.3,0,0.5,0.1,0.7,0.3c0.2,0.2,0.3,0.4,0.3,0.7c0,0.2-0.1,0.4-0.2,0.6L20.4,3l1.1,1.4c0.3,0.4,0.3,1.1-0.2,1.4
		C21.2,5.9,20.9,6,20.7,6h-6.5v3.1c0.2,0.1,0.4,0.2,0.6,0.3c0.1,0.1,0.2,0.2,0.3,0.3l8.5,13.5c0.1,0.2,0.1,0.3,0,0.5
		c-0.1,0.2-0.3,0.3-0.4,0.3H0.8z M22.3,23l-3.7-5.8l-1.9,1.6c-0.3,0.2-0.6,0.4-1,0.4c-0.4,0-0.8-0.2-1.1-0.4l-0.6-0.6
		c-0.1-0.1-0.2-0.1-0.4-0.1s-0.3,0.1-0.4,0.1l-0.6,0.6c-0.3,0.3-0.7,0.4-1.1,0.4c-0.4,0-0.7-0.1-1-0.4l-1.9-1.6l-1.5,2.4
		c0,0,0,0,0,0.1L5.2,23H22.3z M4,23l2.4-3.7l-0.5-1C5.7,18.1,5.5,18,5.2,18c-0.2,0-0.4,0.1-0.6,0.3l-3,4.7H4z M11.4,18
		c0.1,0.1,0.2,0.1,0.3,0.1c0.1,0,0.3-0.1,0.4-0.1l0.6-0.6c0.3-0.3,0.7-0.4,1.1-0.4s0.8,0.2,1.1,0.4l0.6,0.6c0.1,0.1,0.2,0.1,0.4,0.1
		c0.1,0,0.2,0,0.3-0.1l2-1.7l-3.8-6c0,0-0.1-0.1-0.1-0.1c-0.1-0.1-0.3-0.2-0.5-0.2c0,0-0.1,0-0.1,0c-0.2,0-0.4,0.1-0.5,0.3l-3.8,6
		L11.4,18z M20.7,5l-1.1-1.4c-0.3-0.4-0.3-0.9,0-1.2L20.7,1h-6.5v4H20.7z"/>
</g>
</svg>
