<?xml version="1.0" encoding="utf-8"?>
<!-- Generator: Adobe Illustrator 23.0.1, SVG Export Plug-In . SVG Version: 6.00 Build 0)  -->
<svg version="1.1" id="Layer_1" xmlns="http://www.w3.org/2000/svg" xmlns:xlink="http://www.w3.org/1999/xlink" x="0px" y="0px"
	 viewBox="0 0 24 24" style="enable-background:new 0 0 24 24;" xml:space="preserve">
<style type="text/css">
	.st0{fill:none;stroke:#028970;stroke-linecap:round;stroke-linejoin:round;}
</style>
<title>business-deal-handshake</title>
<path class="st0" d="M13.8,15.7H14c0,0,3.5,0,3.5,0l2.2-0.4c0.5-0.1,0.8-0.5,0.8-1V8.9c0-0.4-0.3-0.8-0.6-0.9l-5-2
	c-0.5-0.2-1.1-0.1-1.5,0.2l-3.7,3C9.3,9.5,9.3,10,9.5,10.3c0.2,0.2,0.5,0.3,0.8,0.2l4.1-1.4"/>
<path class="st0" d="M3.5,13.7l2.6,0.5l3.6,3.6c0.2,0.2,0.6,0.3,0.9,0.3l0.5-0.1c0.4-0.1,0.7-0.4,0.8-0.8l0.2-1l1.7-0.3l0.3-1.7
	l1.7-0.3l0.3-1.7l-2.6-2.6"/>
<path class="st0" d="M11.6,7.7l-1.5-1.5C9.8,5.9,9.4,5.8,9,6L6,7.2L3.5,7.7"/>
<path class="st0" d="M0.5,6.2h2c0.6,0,1,0.4,1,1v7c0,0.6-0.4,1-1,1h-2l0,0V6.2L0.5,6.2z"/>
<path class="st0" d="M21.5,7.2h2l0,0v9l0,0h-2c-0.6,0-1-0.4-1-1v-7C20.5,7.7,20.9,7.2,21.5,7.2z"/>
</svg>
