<?xml version="1.0" encoding="utf-8"?>
<!-- Generator: Adobe Illustrator 23.0.1, SVG Export Plug-In . SVG Version: 6.00 Build 0)  -->
<svg version="1.1" id="Layer_1" xmlns="http://www.w3.org/2000/svg" xmlns:xlink="http://www.w3.org/1999/xlink" x="0px" y="0px"
	 viewBox="0 0 24 24" style="enable-background:new 0 0 24 24;" xml:space="preserve">
<style type="text/css">
	.st0{fill:none;stroke:#028970;stroke-linecap:round;stroke-linejoin:round;}
</style>
<title>business-contract-handshake-sign</title>
<line class="st0" x1="20" y1="20.7" x2="16.1" y2="21.4"/>
<path class="st0" d="M16.5,17l-1.9,0.8c-0.6,0.2-1.3,0-1.6-0.7c-0.2-0.6,0-1.2,0.6-1.5l1.9-0.9c0.4-0.2,0.9-0.2,1.3-0.1l3.4,1.3"/>
<path class="st0" d="M9,21.5h1.4l2.3,1.8c0.2,0.3,0.7,0.3,0.9,0.1l3.5-2.8c0.3-0.2,0.3-0.7,0.1-0.9l-1.9-2.1"/>
<path class="st0" d="M13.5,15.7l-0.3-0.2c-0.3-0.2-0.6-0.3-0.9-0.3c-0.2,0-0.4,0-0.5,0.1L9,16.5"/>
<path class="st0" d="M6,22.5h2c0.6,0,1-0.4,1-1v-5c0-0.6-0.4-1-1-1H6V22.5z"/>
<path class="st0" d="M23,22.5h-2c-0.6,0-1-0.4-1-1v-5c0-0.6,0.4-1,1-1h2V22.5z"/>
<path class="st0" d="M16.5,0.5H4c-1.7,0-3,1.3-3,3V23c0,0.3,0.2,0.5,0.5,0.5H4"/>
<line class="st0" x1="4" y1="4.5" x2="11" y2="4.5"/>
<line class="st0" x1="4" y1="7.5" x2="11" y2="7.5"/>
<line class="st0" x1="4" y1="10.5" x2="7.5" y2="10.5"/>
<path class="st0" d="M14,13V3c0-1.4,1.1-2.5,2.5-2.5c1.4,0,2.5,1.1,2.5,3h-5"/>
</svg>
