<?xml version="1.0" encoding="utf-8"?>
<!-- Generator: Adobe Illustrator 23.0.1, SVG Export Plug-In . SVG Version: 6.00 Build 0)  -->
<svg version="1.1" id="Layer_1" xmlns="http://www.w3.org/2000/svg" xmlns:xlink="http://www.w3.org/1999/xlink" x="0px" y="0px"
	 viewBox="0 0 24 24" style="enable-background:new 0 0 24 24;" xml:space="preserve">
<style type="text/css">
	.st0{fill:none;stroke:#028970;stroke-linecap:round;stroke-linejoin:round;}
</style>
<title>business-contract-approve</title>
<path class="st0" d="M23.5,22l-1-1.9v-4.6c0-1.8-2.1-3.4-4-5"/>
<path class="st0" d="M20,17.5l-2.6-2.6c-0.5-0.5-1.3-0.5-1.8,0c-0.5,0.5-0.5,1.3,0,1.8c0,0,0,0,0,0l2.8,2.9V21
	c0.2,0.9,0.5,1.7,1,2.5"/>
<path class="st0" d="M0.5,2l1,1.9v4.6c0,1.8,2.1,3.4,4,5"/>
<path class="st0" d="M4,6.5l2.6,2.6c0.5,0.5,1.3,0.5,1.8,0c0.5-0.5,0.5-1.3,0-1.8c0,0,0,0,0,0L5.5,4.5V3C5.3,2.1,5,1.3,4.5,0.5"/>
<path class="st0" d="M5.5,8.1V23c0,0.3,0.2,0.5,0.5,0.5h11"/>
<line class="st0" x1="11" y1="2.5" x2="7.5" y2="2.5"/>
<line class="st0" x1="18.5" y1="15.9" x2="18.5" y2="10"/>
<line class="st0" x1="13" y1="15.5" x2="7.5" y2="15.5"/>
<line class="st0" x1="16.5" y1="12.5" x2="7.5" y2="12.5"/>
<line class="st0" x1="12" y1="18.5" x2="7.5" y2="18.5"/>
<path class="st0" d="M20.5,4.5c0,2.2-1.8,4-4,4s-4-1.8-4-4s1.8-4,4-4"/>
<path class="st0" d="M20.5,1.5l-3.6,3.6c-0.2,0.2-0.5,0.2-0.7,0c0,0,0,0,0,0L15,4"/>
</svg>
