<?xml version="1.0" encoding="utf-8"?>
<!-- Generator: Adobe Illustrator 22.1.0, SVG Export Plug-In . SVG Version: 6.00 Build 0)  -->
<svg version="1.1" id="Layer_1" xmlns="http://www.w3.org/2000/svg" xmlns:xlink="http://www.w3.org/1999/xlink" x="0px" y="0px"
	 viewBox="0 0 24 24" style="enable-background:new 0 0 24 24;" xml:space="preserve">
<style type="text/css">
	.st0{fill:none;stroke:#028970;stroke-linecap:round;stroke-linejoin:round;}
</style>
<title>calendar-3</title>
<path class="st0" d="M1.5,2.5h21c0.6,0,1,0.4,1,1v19c0,0.6-0.4,1-1,1h-21c-0.6,0-1-0.4-1-1v-19C0.5,2.9,0.9,2.5,1.5,2.5z"/>
<line class="st0" x1="5.5" y1="0.5" x2="5.5" y2="5.5"/>
<line class="st0" x1="18.5" y1="0.5" x2="18.5" y2="5.5"/>
<line class="st0" x1="0.5" y1="7.5" x2="23.5" y2="7.5"/>
<line class="st0" x1="12" y1="7.5" x2="12" y2="23.5"/>
<line class="st0" x1="6" y1="7.5" x2="6" y2="23.5"/>
<line class="st0" x1="18" y1="7.5" x2="18" y2="23.5"/>
<line class="st0" x1="0.5" y1="15.5" x2="23.5" y2="15.5"/>
<line class="st0" x1="0.5" y1="11.5" x2="23.5" y2="11.5"/>
<line class="st0" x1="0.5" y1="19.5" x2="23.5" y2="19.5"/>
</svg>
