<?xml version="1.0" encoding="utf-8"?>
<!-- Generator: Adobe Illustrator 22.1.0, SVG Export Plug-In . SVG Version: 6.00 Build 0)  -->
<svg version="1.1" id="Layer_1" xmlns="http://www.w3.org/2000/svg" xmlns:xlink="http://www.w3.org/1999/xlink" x="0px" y="0px"
	 viewBox="0 0 24 24" style="enable-background:new 0 0 24 24;" xml:space="preserve">
<style type="text/css">
	.st0{fill:none;stroke:#028970;stroke-linecap:round;stroke-linejoin:round;}
</style>
<title>color-bucket-1</title>
<path class="st0" d="M18.3,12.5c0.5,0,0.7-0.3,0.3-0.7L11,4.2c-0.4-0.4-1-0.4-1.4,0L1.8,12c-0.8,0.8-0.8,2,0,2.8c0,0,0,0,0,0
	l4.7,4.7c0.8,0.8,2,0.8,2.8,0l6.3-6.3c0.5-0.4,1.1-0.7,1.7-0.7H18.3z"/>
<path class="st0" d="M9.8,10.5v-8c0-1.1-0.9-2-2-2l0,0c-1.1,0-2,0.9-2,2V8"/>
<path class="st0" d="M22.8,21c0,1.4-1.1,2.5-2.5,2.5s-2.5-1.1-2.5-2.5c0-1,1.4-3.5,2.1-4.8c0.1-0.2,0.4-0.3,0.7-0.2
	c0.1,0,0.1,0.1,0.2,0.2C21.4,17.5,22.8,20,22.8,21z"/>
</svg>
