<?xml version="1.0" encoding="utf-8"?>
<!-- Generator: Adobe Illustrator 22.1.0, SVG Export Plug-In . SVG Version: 6.00 Build 0)  -->
<svg version="1.1" id="Layer_1" xmlns="http://www.w3.org/2000/svg" xmlns:xlink="http://www.w3.org/1999/xlink" x="0px" y="0px"
	 viewBox="0 0 24 24" style="enable-background:new 0 0 24 24;" xml:space="preserve">
<style type="text/css">
	.st0{fill:none;stroke:#028970;stroke-linecap:round;stroke-linejoin:round;}
</style>
<title>common-file-stack</title>
<path class="st0" d="M8,1h9.6c0.3,0,0.5,0.1,0.7,0.3l2.4,2.4C20.9,3.9,21,4.1,21,4.4V18c0,0.6-0.4,1-1,1H8c-0.6,0-1-0.4-1-1V2
	C7,1.4,7.4,1,8,1z"/>
<path class="st0" d="M18,21H6c-0.6,0-1-0.4-1-1V4"/>
<path class="st0" d="M16,23H4c-0.6,0-1-0.4-1-1V6"/>
</svg>
