<?xml version="1.0" encoding="utf-8"?>
<!-- Generator: Adobe Illustrator 22.1.0, SVG Export Plug-In . SVG Version: 6.00 Build 0)  -->
<svg version="1.1" id="Layer_1" xmlns="http://www.w3.org/2000/svg" xmlns:xlink="http://www.w3.org/1999/xlink" x="0px" y="0px"
	 viewBox="0 0 24 24" style="enable-background:new 0 0 24 24;" xml:space="preserve">
<style type="text/css">
	.st0{fill:none;stroke:#028970;stroke-linecap:round;stroke-linejoin:round;}
</style>
<title>common-file-double</title>
<path class="st0" d="M17.1,0.5c0.3,0,0.5,0.1,0.7,0.3l3.4,3.4c0.2,0.2,0.3,0.4,0.3,0.7v14.6c0,0.6-0.4,1-1,1h-14c-0.6,0-1-0.4-1-1
	v-18c0-0.6,0.4-1,1-1H17.1z"/>
<path class="st0" d="M18.5,20.5v2c0,0.6-0.4,1-1,1h-14c-0.6,0-1-0.4-1-1v-18c0-0.6,0.4-1,1-1h2"/>
</svg>
