<?xml version="1.0" encoding="utf-8"?>
<!-- Generator: Adobe Illustrator 22.1.0, SVG Export Plug-In . SVG Version: 6.00 Build 0)  -->
<svg version="1.1" id="Layer_1" xmlns="http://www.w3.org/2000/svg" xmlns:xlink="http://www.w3.org/1999/xlink" x="0px" y="0px"
	 viewBox="0 0 24 24" style="enable-background:new 0 0 24 24;" xml:space="preserve">
<style type="text/css">
	.st0{fill:none;stroke:#028970;stroke-linecap:round;stroke-linejoin:round;}
</style>
<title>currency-dollar-international</title>
<path class="st0" d="M12.3,23.5C5.9,23.5,0.8,18.4,0.8,12S5.9,0.5,12.3,0.5h0.5v23H12.3z"/>
<line class="st0" x1="2.2" y1="17.5" x2="12.8" y2="17.5"/>
<line class="st0" x1="2.2" y1="6.5" x2="12.8" y2="6.5"/>
<line class="st0" x1="0.8" y1="11.5" x2="12.8" y2="11.5"/>
<path class="st0" d="M11.8,23.5C8.9,20.4,7.2,16.3,7.3,12c0-4.3,1.6-8.4,4.6-11.5"/>
<path class="st0" d="M23.3,4.5h-3.9C17.5,4.5,16,6.1,16,8c0,1.3,0.7,2.5,1.9,3.1l3.5,1.8c1.2,0.6,1.9,1.8,1.9,3.1
	c0,1.9-1.5,3.4-3.4,3.5c0,0,0,0,0,0H16"/>
<line class="st0" x1="18.8" y1="19.5" x2="18.8" y2="22.2"/>
<line class="st0" x1="20.8" y1="1.8" x2="20.8" y2="4.5"/>
</svg>
