<?xml version="1.0" encoding="utf-8"?>
<!-- Generator: Adobe Illustrator 23.0.1, SVG Export Plug-In . SVG Version: 6.00 Build 0)  -->
<svg version="1.1" id="Layer_1" xmlns="http://www.w3.org/2000/svg" xmlns:xlink="http://www.w3.org/1999/xlink" x="0px" y="0px"
	 viewBox="0 0 24 24" style="enable-background:new 0 0 24 24;" xml:space="preserve">
<style type="text/css">
	.st0{fill:#028970;}
</style>
<g>
	<title>currency-euro</title>
	<path class="st0" d="M20,24c-5.6,0-12.1-1-13.3-9H4c-0.3,0-0.5-0.2-0.5-0.5S3.7,14,4,14h2.6c-0.1-0.6-0.1-1.1-0.1-1.7
		c0-0.4,0-0.8,0-1.3H4c-0.3,0-0.5-0.2-0.5-0.5S3.7,10,4,10h2.6C7.4,3.3,11.8,0,20,0c0.3,0,0.5,0.2,0.5,0.5S20.3,1,20,1
		C12.4,1,8.4,3.9,7.6,10H17c0.3,0,0.5,0.2,0.5,0.5S17.3,11,17,11H7.5c0,0.4,0,0.8,0,1.3c0,0.6,0,1.2,0.1,1.7H15
		c0.3,0,0.5,0.2,0.5,0.5S15.3,15,15,15H7.7c1.2,7.1,7.2,8,12.3,8c0.3,0,0.5,0.2,0.5,0.5S20.3,24,20,24z"/>
</g>
</svg>
