<?xml version="1.0" encoding="utf-8"?>
<!-- Generator: Adobe Illustrator 23.0.1, SVG Export Plug-In . SVG Version: 6.00 Build 0)  -->
<svg version="1.1" id="Layer_1" xmlns="http://www.w3.org/2000/svg" xmlns:xlink="http://www.w3.org/1999/xlink" x="0px" y="0px"
	 viewBox="0 0 24 24" style="enable-background:new 0 0 24 24;" xml:space="preserve">
<style type="text/css">
	.st0{fill:none;stroke:#028970;stroke-linecap:round;stroke-linejoin:round;}
</style>
<title>discount-30</title>
<path class="st0" d="M13.5,13c0,0.8-0.7,1.5-1.5,1.5s-1.5-0.7-1.5-1.5v-2c0-0.8,0.7-1.5,1.5-1.5s1.5,0.7,1.5,1.5V13z"/>
<line class="st0" x1="16" y1="14.5" x2="19.5" y2="10"/>
<path class="st0" d="M15.8,10.5c0.1,0,0.3,0.1,0.3,0.3S15.9,11,15.8,11s-0.3-0.1-0.3-0.3S15.6,10.5,15.8,10.5"/>
<path class="st0" d="M19.8,13.5c0.1,0,0.3,0.1,0.3,0.3S19.9,14,19.8,14s-0.3-0.1-0.3-0.3S19.6,13.5,19.8,13.5"/>
<path class="st0" d="M5.5,10.5c0-0.6,0.4-1,1-1h0.8c0.7,0,1.3,0.6,1.3,1.3S7.9,12,7.3,12c0.7,0,1.3,0.6,1.3,1.3s-0.6,1.3-1.3,1.3
	H6.5c-0.6,0-1-0.4-1-1"/>
<path class="st0" d="M23.5,12c0-1.6-1-3.1-2.5-3.7c0.9-2,0-4.4-2.1-5.3c-1-0.4-2.2-0.4-3.2,0C14.9,1,12.6,0,10.5,0.8
	C9.5,1.2,8.7,2,8.3,3c-2-0.9-4.4,0-5.3,2.1c-0.4,1-0.4,2.2,0,3.2C1,9.1,0,11.4,0.8,13.5c0.4,1,1.2,1.9,2.3,2.3c-0.9,2,0,4.4,2.1,5.3
	c1,0.4,2.2,0.4,3.2,0c0.8,2.1,3.1,3.1,5.2,2.3c1-0.4,1.9-1.2,2.3-2.3c2,0.9,4.4,0,5.3-2.1c0.4-1,0.4-2.2,0-3.2
	C22.5,15.1,23.5,13.6,23.5,12z"/>
</svg>
