<?xml version="1.0" encoding="utf-8"?>
<!-- Generator: Adobe Illustrator 23.0.1, SVG Export Plug-In . SVG Version: 6.00 Build 0)  -->
<svg version="1.1" id="Layer_1" xmlns="http://www.w3.org/2000/svg" xmlns:xlink="http://www.w3.org/1999/xlink" x="0px" y="0px"
	 viewBox="0 0 24 24" style="enable-background:new 0 0 24 24;" xml:space="preserve">
<style type="text/css">
	.st0{fill:none;stroke:#028970;stroke-linecap:round;stroke-linejoin:round;}
</style>
<title>e-commerce-buy</title>
<line class="st0" x1="23.5" y1="22" x2="19" y2="17.5"/>
<path class="st0" d="M17,19.9c0.1,0.3,0.4,0.4,0.7,0.3c0.1,0,0.2-0.1,0.3-0.3l1-2.4l2.4-1c0.3-0.1,0.4-0.4,0.3-0.7
	c-0.1-0.1-0.1-0.2-0.3-0.3L15.1,13c-0.3-0.1-0.5,0-0.7,0.3c-0.1,0.1-0.1,0.3,0,0.4L17,19.9z"/>
<path class="st0" d="M8.5,6.5C8.5,7.3,7.8,8,7,8H5.5V5H7C7.8,5,8.5,5.7,8.5,6.5z"/>
<path class="st0" d="M8.5,9.5C8.5,10.3,7.8,11,7,11H5.5V8H7C7.8,8,8.5,8.7,8.5,9.5z"/>
<path class="st0" d="M13.5,5v4.5c0,0.8-0.7,1.5-1.5,1.5s-1.5-0.7-1.5-1.5V5"/>
<line class="st0" x1="17.5" y1="8.5" x2="17.5" y2="11"/>
<path class="st0" d="M19.5,5v1.5c0,1.1-0.9,2-2,2l0,0c-1.1,0-2-0.9-2-2V5"/>
<path class="st0" d="M20.9,13c1.6-1.1,2.6-3,2.6-5l0,0c0-3.3-2.7-6-6-6h-11c-3.3,0-6,2.7-6,6l0,0c0,3.3,2.7,6,6,6H12"/>
</svg>
