<?xml version="1.0" encoding="utf-8"?>
<!-- Generator: Adobe Illustrator 23.0.1, SVG Export Plug-In . SVG Version: 6.00 Build 0)  -->
<svg version="1.1" id="Layer_1" xmlns="http://www.w3.org/2000/svg" xmlns:xlink="http://www.w3.org/1999/xlink" x="0px" y="0px"
	 viewBox="0 0 24 24" style="enable-background:new 0 0 24 24;" xml:space="preserve">
<style type="text/css">
	.st0{fill:none;stroke:#028970;stroke-linecap:round;stroke-linejoin:round;}
</style>
<title>e-commerce-apparel</title>
<path class="st0" d="M14.9,22.5H9.1l0.2-0.4c0.7-1.1,1.1-2.3,1.2-3.6h2.9c0.1,1.3,0.5,2.5,1.2,3.6L14.9,22.5z"/>
<line class="st0" x1="7.5" y1="22.5" x2="16.5" y2="22.5"/>
<line class="st0" x1="0.5" y1="15.5" x2="23.5" y2="15.5"/>
<path class="st0" d="M1.5,1.5h21c0.6,0,1,0.4,1,1v15c0,0.6-0.4,1-1,1h-21c-0.6,0-1-0.4-1-1v-15C0.5,1.9,0.9,1.5,1.5,1.5z"/>
<path class="st0" d="M17.5,8.5l-0.8-3.2c-0.1-0.4-0.5-0.8-1-0.8h-2.2C13.5,5.3,12.8,6,12,6s-1.5-0.7-1.5-1.5H8.3
	c-0.5,0-0.9,0.3-1,0.8L6.5,8.5h2v4h7v-4H17.5z"/>
</svg>
