<?xml version="1.0" encoding="utf-8"?>
<!-- Generator: Adobe Illustrator 23.0.1, SVG Export Plug-In . SVG Version: 6.00 Build 0)  -->
<svg version="1.1" id="Layer_1" xmlns="http://www.w3.org/2000/svg" xmlns:xlink="http://www.w3.org/1999/xlink" x="0px" y="0px"
	 viewBox="0 0 24 24" style="enable-background:new 0 0 24 24;" xml:space="preserve">
<style type="text/css">
	.st0{fill:none;stroke:#028970;stroke-linecap:round;stroke-linejoin:round;}
</style>
<title>e-commerce-shopping-bag</title>
<path class="st0" d="M1,3V2c0-0.6,0.4-1,1-1h1"/>
<path class="st0" d="M1,21v1c0,0.6,0.4,1,1,1h1"/>
<path class="st0" d="M21,1h1c0.6,0,1,0.4,1,1v1"/>
<path class="st0" d="M23,21v1c0,0.6-0.4,1-1,1h-1"/>
<line class="st0" x1="12" y1="23" x2="12" y2="22"/>
<line class="st0" x1="1" y1="12" x2="2" y2="12"/>
<line class="st0" x1="23" y1="12" x2="22" y2="12"/>
<line class="st0" x1="12" y1="1" x2="12" y2="2"/>
<path class="st0" d="M14,12h-3.2c-0.5,0-0.8,0.4-0.8,0.9c0,0.4,0.3,0.7,0.6,0.8l2.7,0.7c0.5,0.1,0.7,0.6,0.6,1
	c-0.1,0.4-0.4,0.6-0.8,0.6H10"/>
<line class="st0" x1="12" y1="12" x2="12" y2="11"/>
<line class="st0" x1="12" y1="17" x2="12" y2="16"/>
<path class="st0" d="M9,10V7c0-1.7,1.3-3,3-3s3,1.3,3,3v3"/>
<path class="st0" d="M18.9,17l-0.8-8C18,8.4,17.6,8,17,8H7C6.4,8,6,8.4,5.9,9l-0.8,8C5,17.3,5,17.7,5,18c0,1.1,0.9,2,2,2h10
	c1.1,0,2-0.9,2-2C19,17.7,19,17.3,18.9,17z"/>
</svg>
