<?xml version="1.0" encoding="utf-8"?>
<!-- Generator: Adobe Illustrator 22.1.0, SVG Export Plug-In . SVG Version: 6.00 Build 0)  -->
<svg version="1.1" id="Layer_1" xmlns="http://www.w3.org/2000/svg" xmlns:xlink="http://www.w3.org/1999/xlink" x="0px" y="0px"
	 viewBox="0 0 24 24" style="enable-background:new 0 0 24 24;" xml:space="preserve">
<style type="text/css">
	.st0{fill:none;stroke:#028970;stroke-linecap:round;stroke-linejoin:round;}
</style>
<title>earth-locate</title>
<path class="st0" d="M16,22.8C10,25,3.4,21.9,1.2,16S2,3.4,8,1.2S20.6,2,22.8,8c0.5,1.3,0.7,2.6,0.7,4c0,0.3,0,0.7,0,1"/>
<path class="st0" d="M0.7,10h6.1c0.8,0,1.6,0.3,2.1,0.9L10,12c1.1,1.1,1.2,2.9,0.1,4.1l-1.4,1.5c-0.5,0.5-0.8,1.3-0.8,2v3.1"/>
<path class="st0" d="M20.3,4h-5.8c-1.2,0-2.2,1-2.2,2.3c0,1.2,1,2.2,2.2,2.2h0.4c1,0,1.9,0.5,2.5,1.3l1.1,1.7"/>
<path class="st0" d="M23.5,17.5c0,2.5-4,6-4,6s-4-3.5-4-6c0-2.2,1.8-4,4-4S23.5,15.3,23.5,17.5z"/>
<path class="st0" d="M19.5,17.2c0.1,0,0.2,0.1,0.3,0.2c0,0,0,0,0,0"/>
<path class="st0" d="M19.3,17.5c0-0.1,0.1-0.2,0.2-0.3c0,0,0,0,0,0"/>
<path class="st0" d="M19.5,17.7c-0.1,0-0.3-0.1-0.3-0.3"/>
<path class="st0" d="M19.8,17.5c0,0.1-0.1,0.3-0.3,0.3"/>
</svg>
