<?xml version="1.0" encoding="utf-8"?>
<!-- Generator: Adobe Illustrator 22.1.0, SVG Export Plug-In . SVG Version: 6.00 Build 0)  -->
<svg version="1.1" id="Layer_1" xmlns="http://www.w3.org/2000/svg" xmlns:xlink="http://www.w3.org/1999/xlink" x="0px" y="0px"
	 viewBox="0 0 24 24" style="enable-background:new 0 0 24 24;" xml:space="preserve">
<style type="text/css">
	.st0{fill:none;stroke:#028970;stroke-linecap:round;stroke-linejoin:round;}
</style>
<title>family-grandfather</title>
<line class="st0" x1="7.5" y1="11" x2="7.5" y2="14"/>
<path class="st0" d="M5.5,23.5l-0.5-6H2.5V14c0-2.8,2.2-5,5-5s5,2.2,5,5v3.5H10l-0.5,6H5.5z"/>
<path class="st0" d="M4.5,2.2C5.6,3.4,7.1,4,8.7,4c0.8,0,1.6-0.2,2.3-0.5"/>
<circle class="st0" cx="7.5" cy="4" r="3.5"/>
<circle class="st0" cx="17.5" cy="10.3" r="2.3"/>
<path class="st0" d="M21.5,20.5L20,15.4c-0.4-1.4-1.9-2.2-3.3-1.8c-0.9,0.3-1.6,0.9-1.8,1.8l-1.4,5.1h2.7l0.3,3h2l0.3-3H21.5z"/>
</svg>
