<?xml version="1.0" encoding="utf-8"?>
<!-- Generator: Adobe Illustrator 22.1.0, SVG Export Plug-In . SVG Version: 6.00 Build 0)  -->
<svg version="1.1" id="Capa_1" xmlns="http://www.w3.org/2000/svg" xmlns:xlink="http://www.w3.org/1999/xlink" x="0px" y="0px"
	 viewBox="0 0 46 47.9" style="enable-background:new 0 0 46 47.9;" xml:space="preserve">
<style type="text/css">
	.st0{fill:#028970;}
</style>
<g>
	<path class="st0" d="M46,6.4C46,2.2,34.4,0,23,0S0,2.2,0,6.4c0,1,0.6,1.8,1.7,2.6l15.8,21.7v16.1c0,0.4,0.2,0.7,0.6,0.9l0.6,0.2
		l9.8-9.8v-7.4L44.3,9l0,0C45.4,8.3,46,7.4,46,6.4z M23,1.8c12.9,0,21.2,2.7,21.2,4.6c0,0.4-0.4,0.8-1,1.2l0,0l0,0
		C40.5,9.3,33.2,11,23,11C12.8,11,5.5,9.3,2.9,7.7l0,0L2.5,7.4c-0.5-0.3-0.7-0.7-0.7-1C1.8,4.6,10.1,1.8,23,1.8z M26.7,37.3
		l-7.4,7.4V31.3h7.4V37.3z M27.1,29.4h-8.3L5.1,10.6c4.4,1.5,11.2,2.2,17.9,2.2s13.4-0.8,17.9-2.2L27.1,29.4z"/>
</g>
</svg>
