<svg xmlns="http://www.w3.org/2000/svg" viewBox="0 0 800 600"><defs><style>.cls-1{fill:#2d36b4;}.cls-2{fill:#3745c4;}.cls-3{fill:#ffcf3a;}.cls-4{fill:#fff;}</style></defs><title>gdpr</title><g id="Ñëîé_2" data-name="Ñëîé 2"><rect class="cls-1" width="800" height="600"/><path class="cls-2" d="M0,600H800V0C346.63,0,563.58,600,0,600Z"/></g><g id="Ñëîé_1" data-name="Ñëîé 1"><polygon class="cls-3" points="393.19 153.08 381.89 144.86 395.86 144.86 400.18 131.58 404.49 144.86 418.46 144.86 407.16 153.08 411.48 166.36 400.18 158.15 388.87 166.36 393.19 153.08"/><polygon class="cls-3" points="393.19 455.13 381.89 446.92 395.86 446.92 400.18 433.64 404.49 446.92 418.46 446.92 407.16 455.13 411.48 468.42 400.18 460.21 388.87 468.42 393.19 455.13"/><polygon class="cls-3" points="475.8 178.09 464.5 186.3 468.81 173.02 457.51 164.81 471.48 164.81 475.8 151.52 480.12 164.81 494.08 164.81 482.78 173.02 487.1 186.31 475.8 178.09"/><polygon class="cls-3" points="324.8 178.09 313.5 186.31 317.82 173.02 306.51 164.81 320.49 164.81 324.8 151.52 329.12 164.81 343.09 164.81 331.79 173.02 336.11 186.31 324.8 178.09"/><polygon class="cls-3" points="530.94 233.83 519.63 242.04 523.95 228.76 512.65 220.55 526.62 220.55 530.94 207.26 535.25 220.55 549.22 220.55 537.92 228.76 542.24 242.04 530.94 233.83"/><polygon class="cls-3" points="269.21 233.83 257.91 242.04 262.23 228.76 250.93 220.55 264.9 220.55 269.21 207.26 273.53 220.55 287.5 220.55 276.2 228.76 280.52 242.04 269.21 233.83"/><polygon class="cls-3" points="551.22 309.26 539.92 317.47 544.24 304.18 532.93 295.97 546.9 295.97 551.22 282.68 555.54 295.97 569.51 295.97 558.21 304.18 562.52 317.47 551.22 309.26"/><polygon class="cls-3" points="241.79 304.18 230.49 295.97 244.46 295.97 248.78 282.68 253.1 295.97 267.07 295.97 255.76 304.18 260.08 317.47 248.78 309.26 237.48 317.47 241.79 304.18"/><polygon class="cls-3" points="531.09 384.98 519.78 393.19 524.1 379.9 512.8 371.69 526.77 371.69 531.09 358.4 535.4 371.69 549.38 371.69 538.07 379.9 542.39 393.19 531.09 384.98"/><polygon class="cls-3" points="269.21 384.98 257.91 393.19 262.23 379.9 250.93 371.69 264.9 371.69 269.21 358.4 273.53 371.69 287.5 371.69 276.2 379.9 280.52 393.19 269.21 384.98"/><polygon class="cls-3" points="476.1 440.27 464.8 448.48 469.11 435.19 457.81 426.98 471.78 426.98 476.1 413.69 480.42 426.98 494.39 426.98 483.08 435.19 487.4 448.48 476.1 440.27"/><polygon class="cls-3" points="324.65 440.27 313.35 448.48 317.67 435.19 306.37 426.98 320.34 426.98 324.65 413.69 328.97 426.98 342.94 426.98 331.64 435.19 335.95 448.48 324.65 440.27"/><path class="cls-4" d="M440.79,284.58V265.87a40.79,40.79,0,0,0-81.58,0v18.71H346.63v30A62.94,62.94,0,0,0,400,376.81a62.94,62.94,0,0,0,53.37-62.21v-30Zm-69.43-18.71a28.64,28.64,0,0,1,57.28,0v18.71H371.36Z"/><polygon class="cls-2" points="391.9 347.83 372.01 327.94 379.38 320.58 391.9 333.1 420.62 304.37 427.99 311.74 391.9 347.83"/></g></svg>