<?xml version="1.0" encoding="utf-8"?>
<!-- Generator: Adobe Illustrator 22.1.0, SVG Export Plug-In . SVG Version: 6.00 Build 0)  -->
<svg version="1.1" id="Layer_1" xmlns="http://www.w3.org/2000/svg" xmlns:xlink="http://www.w3.org/1999/xlink" x="0px" y="0px"
	 viewBox="0 0 24 24" style="enable-background:new 0 0 24 24;" xml:space="preserve">
<style type="text/css">
	.st0{fill:none;stroke:#028970;stroke-linecap:round;stroke-linejoin:round;}
</style>
<title>html-1</title>
<line class="st0" x1="5.5" y1="11.5" x2="5.5" y2="19.5"/>
<line class="st0" x1="1.5" y1="19.5" x2="1.5" y2="11.5"/>
<line class="st0" x1="1.5" y1="15.5" x2="5.5" y2="15.5"/>
<polyline class="st0" points="13.5,19.5 13.5,11.5 15.5,15.5 17.5,11.5 17.5,19.5 "/>
<path class="st0" d="M19.5,11.5V18c0,0.8,0.7,1.5,1.5,1.5h2.5"/>
<line class="st0" x1="7.5" y1="11.5" x2="11.5" y2="11.5"/>
<line class="st0" x1="9.5" y1="11.5" x2="9.5" y2="19.5"/>
<path class="st0" d="M23.5,22.5c0,0.6-0.4,1-1,1h-21c-0.6,0-1-0.4-1-1"/>
<path class="st0" d="M0.5,8.5v-7c0-0.6,0.4-1,1-1h21c0.6,0,1,0.4,1,1v7"/>
</svg>
