<?xml version="1.0" encoding="utf-8"?>
<!-- Generator: Adobe Illustrator 23.0.1, SVG Export Plug-In . SVG Version: 6.00 Build 0)  -->
<svg version="1.1" id="Layer_1" xmlns="http://www.w3.org/2000/svg" xmlns:xlink="http://www.w3.org/1999/xlink" x="0px" y="0px"
	 viewBox="0 0 24 24" style="enable-background:new 0 0 24 24;" xml:space="preserve">
<style type="text/css">
	.st0{fill:none;stroke:#028970;stroke-linecap:round;stroke-linejoin:round;}
</style>
<title>invitation</title>
<path class="st0" d="M12,13.5H3c-0.6,0-1-0.4-1-1v-11c0-0.6,0.4-1,1-1h18c0.6,0,1,0.4,1,1v11c0,0.6-0.4,1-1,1h-4.5"/>
<line class="st0" x1="12" y1="3.5" x2="18" y2="3.5"/>
<line class="st0" x1="12" y1="5.5" x2="18" y2="5.5"/>
<path class="st0" d="M13,23.5v-2c-0.6-0.6-1.1-1.3-1.5-2c-0.3-1-0.3-2,0-3l0.5-2V10c0-0.5,0-2.5,2-2.5s2,2,2,2.5v3.5h5L20,19v4.5"/>
<path class="st0" d="M11.6,16c-0.3,0.8-0.9,1.5-1.6,2c-0.6,0.3-2,0.1-2-1v-3.5"/>
<circle class="st0" cx="7.5" cy="6" r="2.5"/>
</svg>
