<?xml version="1.0" encoding="utf-8"?>
<!-- Generator: Adobe Illustrator 22.1.0, SVG Export Plug-In . SVG Version: 6.00 Build 0)  -->
<svg version="1.1" id="Layer_1" xmlns="http://www.w3.org/2000/svg" xmlns:xlink="http://www.w3.org/1999/xlink" x="0px" y="0px"
	 viewBox="0 0 24 24" style="enable-background:new 0 0 24 24;" xml:space="preserve">
<style type="text/css">
	.st0{fill:none;stroke:#028970;stroke-linecap:round;stroke-linejoin:round;}
</style>
<title>js-1</title>
<path class="st0" d="M1.5,0.5h21c0.6,0,1,0.4,1,1v21c0,0.6-0.4,1-1,1h-21c-0.6,0-1-0.4-1-1v-21C0.5,1,0.9,0.5,1.5,0.5z"/>
<path class="st0" d="M10.5,11.5v6c0,1.1-0.9,2-2,2s-2-0.9-2-2"/>
<path class="st0" d="M16.5,11.5h-2.1c-1,0-1.9,0.8-1.9,1.9c0,0.7,0.4,1.3,1,1.7l1.9,1c0.9,0.5,1.3,1.6,0.8,2.5c-0.3,0.6-1,1-1.7,1
	h-2.1"/>
</svg>
