<?xml version="1.0" encoding="utf-8"?>
<!-- Generator: Adobe Illustrator 22.1.0, SVG Export Plug-In . SVG Version: 6.00 Build 0)  -->
<svg version="1.1" id="Layer_1" xmlns="http://www.w3.org/2000/svg" xmlns:xlink="http://www.w3.org/1999/xlink" x="0px" y="0px"
	 viewBox="0 0 24 24" style="enable-background:new 0 0 24 24;" xml:space="preserve">
<style type="text/css">
	.st0{fill:none;stroke:#028970;stroke-linecap:round;stroke-linejoin:round;}
</style>
<title>laptop-launch</title>
<path class="st0" d="M13.8,15.5c0,1.5-1.9,3.5-1.9,3.5S10,17,10,15.5c-0.1-1,0.7-2,1.8-2c1-0.1,2,0.7,2,1.8
	C13.8,15.4,13.8,15.4,13.8,15.5L13.8,15.5z"/>
<path class="st0" d="M13.9,4.5c0-1.7-2-3-2-3s-2,1.3-2,3v7h4V4.5z"/>
<path class="st0" d="M9.9,11.5H7.4c-0.3,0-0.5-0.2-0.5-0.5c0,0,0-0.1,0-0.1C7.4,9.5,8.5,8.4,9.9,8"/>
<path class="st0" d="M13.9,11.5h2.4c0.3,0,0.5-0.2,0.5-0.5c0,0,0-0.1,0-0.1c-0.4-1.4-1.5-2.5-2.9-2.9"/>
<path class="st0" d="M8.9,13.5c-0.4-0.1-0.8,0.1-1,0.5c-0.1,0.2-0.1,0.3,0,0.5H7.4c-0.8,0-1.5,0.7-1.5,1.5"/>
<path class="st0" d="M14.9,13.5c0.4-0.1,0.8,0.1,1,0.5c0.1,0.2,0.1,0.3,0,0.5h0.5c0.8,0,1.5,0.7,1.5,1.5"/>
<path class="st0" d="M19.4,17.5c0.4,0,0.8,0.2,1,0.5l2.5,3c0.2,0.5,0,1.2-0.5,1.4c-0.1,0.1-0.3,0.1-0.5,0.1H2.4
	c-0.6,0-1.1-0.4-1.1-1c0-0.2,0-0.3,0.1-0.5l2.4-3c0.2-0.3,0.5-0.5,0.9-0.5"/>
<path class="st0" d="M7.9,5.5h-3c-0.6,0-1,0.4-1,1v10c0,0.6-0.1,1,0.5,1h3.5"/>
<path class="st0" d="M15.9,17.5h3.5c0.6,0,0.5-0.4,0.5-1v-10c0-0.6-0.4-1-1-1h-3"/>
<line class="st0" x1="10.4" y1="20.5" x2="13.4" y2="20.5"/>
</svg>
