<?xml version="1.0" encoding="utf-8"?>
<!-- Generator: Adobe Illustrator 23.0.0, SVG Export Plug-In . SVG Version: 6.00 Build 0)  -->
<svg version="1.1" id="Layer_1" xmlns="http://www.w3.org/2000/svg" xmlns:xlink="http://www.w3.org/1999/xlink" x="0px" y="0px"
	 viewBox="0 0 24 24" style="enable-background:new 0 0 24 24;" xml:space="preserve">
<style type="text/css">
	.st0{fill:#028970;}
</style>
<g>
	<title>layout-three-columns</title>
	<path class="st0" d="M2,23.5c-0.8,0-1.5-0.7-1.5-1.5V2c0-0.8,0.7-1.5,1.5-1.5h20c0.8,0,1.5,0.7,1.5,1.5v20c0,0.8-0.7,1.5-1.5,1.5H2
		z M22,22.5c0.3,0,0.5-0.2,0.5-0.5V2c0-0.3-0.2-0.5-0.5-0.5h-5.5v21H22z M15.5,22.5v-21h-7v21H15.5z M2,1.5C1.7,1.5,1.5,1.7,1.5,2
		v20c0,0.3,0.2,0.5,0.5,0.5h5.5v-21C7.5,1.5,2,1.5,2,1.5z"/>
</g>
</svg>
