<?xml version="1.0" encoding="utf-8"?>
<!-- Generator: Adobe Illustrator 22.1.0, SVG Export Plug-In . SVG Version: 6.00 Build 0)  -->
<svg version="1.1" id="Layer_1" xmlns="http://www.w3.org/2000/svg" xmlns:xlink="http://www.w3.org/1999/xlink" x="0px" y="0px"
	 viewBox="0 0 24 24" style="enable-background:new 0 0 24 24;" xml:space="preserve">
<style type="text/css">
	.st0{fill:none;stroke:#028970;stroke-linecap:round;stroke-linejoin:round;}
</style>
<title>legal-hammer</title>
<path class="st0" d="M10.5,22.9c0,0.3-0.2,0.5-0.5,0.5H1c-0.3,0-0.5-0.2-0.5-0.5v-1.5c0-0.6,0.4-1,1-1h8c0.6,0,1,0.4,1,1V22.9z"/>
<path class="st0" d="M9.5,20.4h-8v-1c0-0.6,0.4-1,1-1h6c0.6,0,1,0.4,1,1V20.4z"/>
<rect x="7.6" y="4.9" transform="matrix(0.7071 -0.7071 0.7071 0.7071 -1.8641 10.2993)" class="st0" width="7.8" height="4.9"/>
<path class="st0" d="M7,8.4L6.5,7.9C5.6,7,4.1,8.5,5,9.4l4.5,4.5c0.9,0.9,2.4-0.6,1.5-1.5l-0.5-0.5"/>
<path class="st0" d="M16,6.4l0.5,0.5c0.9,0.9,2.4-0.6,1.5-1.5l-4.5-4.5C12.6,0,11.1,1.5,12,2.4l0.5,0.5"/>
<line class="st0" x1="13.3" y1="9.1" x2="23.5" y2="19.4"/>
</svg>
