<?xml version="1.0" encoding="utf-8"?>
<!-- Generator: Adobe Illustrator 23.0.1, SVG Export Plug-In . SVG Version: 6.00 Build 0)  -->
<svg version="1.1" id="Layer_1" xmlns="http://www.w3.org/2000/svg" xmlns:xlink="http://www.w3.org/1999/xlink" x="0px" y="0px"
	 viewBox="0 0 24 24" style="enable-background:new 0 0 24 24;" xml:space="preserve">
<style type="text/css">
	.st0{fill:none;stroke:#028970;stroke-linecap:round;stroke-linejoin:round;}
</style>
<title>maze-strategy-1</title>
<path class="st0" d="M9,22.5H2.5c-0.6,0-1-0.4-1-1v-19c0-0.6,0.4-1,1-1h6"/>
<path class="st0" d="M17.5,1.5h4c0.6,0,1,0.4,1,1v19c0,0.6-0.4,1-1,1H15"/>
<polyline class="st0" points="22.5,10.5 16.5,10.5 16.5,15.5 13.5,15.5 "/>
<line class="st0" x1="22.5" y1="6.5" x2="18" y2="6.5"/>
<polyline class="st0" points="6.5,1.5 6.5,6.5 4.5,6.5 "/>
<polyline class="st0" points="1.5,10.5 6.5,10.5 6.5,15.5 "/>
<line class="st0" x1="4.5" y1="22.5" x2="4.5" y2="17.5"/>
<polyline class="st0" points="12.5,23.5 12.5,18.5 9.5,18.5 9.5,7.5 13.5,7.5 13.5,0.5 "/>
<line class="st0" x1="16.5" y1="10.5" x2="12.5" y2="10.5"/>
<line class="st0" x1="19.5" y1="13.5" x2="19.5" y2="22.5"/>
<polyline class="st0" points="11,3 13.5,0.5 16,3 "/>
</svg>
