<?xml version="1.0" encoding="utf-8"?>
<!-- Generator: Adobe Illustrator 23.0.1, SVG Export Plug-In . SVG Version: 6.00 Build 0)  -->
<svg version="1.1" id="Layer_1" xmlns="http://www.w3.org/2000/svg" xmlns:xlink="http://www.w3.org/1999/xlink" x="0px" y="0px"
	 viewBox="0 0 24 24" style="enable-background:new 0 0 24 24;" xml:space="preserve">
<style type="text/css">
	.st0{fill:none;stroke:#028970;stroke-linecap:round;stroke-linejoin:round;}
</style>
<title>module-hand-puzzle</title>
<path class="st0" d="M1,14.5h3c0.3,0,0.5,0.2,0.5,0.5v7c0,0.3-0.2,0.5-0.5,0.5H1c-0.3,0-0.5-0.2-0.5-0.5v-7
	C0.5,14.7,0.7,14.5,1,14.5z"/>
<path class="st0" d="M4.5,21.1c10.5,3.5,7,3.5,19-2.5c-0.7-0.9-1.9-1.3-3-1l-4.3,1.4"/>
<path class="st0" d="M4.5,15.5h3c2.4,0,4,2,4.5,2h3.5c1,0,1,2,0,2H10"/>
<path class="st0" d="M17.6,11.4c-0.8-0.8-0.8-2,0-2.8c0.8-0.8,2-0.8,2.8,0c0.2,0.2,0.3,0.4,0.4,0.7c0.1,0.3,0.4,0.4,0.6,0.3
	c0.1,0,0.1-0.1,0.2-0.1l1.6-1.6c0.4-0.4,0.4-1,0-1.4l-1.6-1.6c1.1-0.3,1.7-1.4,1.4-2.5S21.6,0.7,20.6,1c-0.7,0.2-1.2,0.7-1.4,1.4
	l-1.6-1.6c-0.4-0.4-1-0.4-1.4,0l-1.4,1.4c-0.2,0.2-0.2,0.5,0,0.7c0,0,0.1,0,0.1,0.1c0.9,0.6,1.2,1.9,0.6,2.8
	c-0.6,0.9-1.9,1.2-2.8,0.6C12.4,6.2,12.2,6,12,5.8c-0.2-0.2-0.5-0.3-0.7-0.1c0,0-0.1,0-0.1,0.1L9.8,7.2c-0.4,0.4-0.4,1,0,1.4
	l5.7,5.7c0.4,0.4,1,0.4,1.4,0l1.6-1.6c0.2-0.2,0.2-0.5,0-0.7c0,0-0.1-0.1-0.2-0.1C18,11.7,17.8,11.6,17.6,11.4z"/>
</svg>
