<?xml version="1.0" encoding="utf-8"?>
<!-- Generator: Adobe Illustrator 22.1.0, SVG Export Plug-In . SVG Version: 6.00 Build 0)  -->
<svg version="1.1" id="Layer_1" xmlns="http://www.w3.org/2000/svg" xmlns:xlink="http://www.w3.org/1999/xlink" x="0px" y="0px"
	 viewBox="0 0 24 24" style="enable-background:new 0 0 24 24;" xml:space="preserve">
<style type="text/css">
	.st0{fill:none;stroke:#028970;stroke-linecap:round;stroke-linejoin:round;}
</style>
<title>module-three-1</title>
<path class="st0" d="M17,4.8c0.3,0.2,0.5,0.6,0.5,0.9v4.6L12,13.9l-5.5-3.5V5.7C6.5,5.3,6.7,5,7,4.8l4.4-2.6c0.3-0.2,0.8-0.2,1.1,0
	L17,4.8z"/>
<line class="st0" x1="12" y1="8.4" x2="12" y2="13.9"/>
<path class="st0" d="M17.5,17.2L12,13.9l5.5-3.5l5,3.2c0.3,0.2,0.5,0.6,0.5,0.9v4.1c0,0.4-0.2,0.7-0.5,0.9l-4.4,2.8
	c-0.4,0.2-0.8,0.2-1.2,0L12,19.2v-5.3"/>
<line class="st0" x1="17.5" y1="17.2" x2="17.5" y2="22.5"/>
<path class="st0" d="M12,13.9v5.3l-4.9,3.2c-0.4,0.2-0.8,0.2-1.2,0l-4.4-2.8C1.2,19.3,1,18.9,1,18.6v-4.1c0-0.4,0.2-0.7,0.5-0.9
	l5-3.2L12,13.9l-5.5,3.3"/>
<line class="st0" x1="6.5" y1="17.2" x2="1.1" y2="14"/>
<line class="st0" x1="6.5" y1="17.2" x2="6.5" y2="22.5"/>
<line class="st0" x1="12" y1="8.4" x2="6.6" y2="5.2"/>
<line class="st0" x1="17.4" y1="5.2" x2="12" y2="8.4"/>
<line class="st0" x1="22.9" y1="14" x2="17.5" y2="17.2"/>
</svg>
