<?xml version="1.0" encoding="utf-8"?>
<!-- Generator: Adobe Illustrator 22.1.0, SVG Export Plug-In . SVG Version: 6.00 Build 0)  -->
<svg version="1.1" id="Layer_1" xmlns="http://www.w3.org/2000/svg" xmlns:xlink="http://www.w3.org/1999/xlink" x="0px" y="0px"
	 viewBox="0 0 24 24" style="enable-background:new 0 0 24 24;" xml:space="preserve">
<style type="text/css">
	.st0{fill:none;stroke:#028970;stroke-linecap:round;stroke-linejoin:round;}
</style>
<title>monitor-touch</title>
<path class="st0" d="M16,22l-3.1-4.6c-1.2-1.9,1.8-2.5,3.2,0.6v-8c0-0.6,0.4-1,1-1s1,0.4,1,1v4.8l4,1.1c0.7,0.2,1,0.9,0.9,1.5
	l-0.1,0.4L22.1,22"/>
<path class="st0" d="M11.1,17H2.6c-0.8,0-1.5-0.7-1.5-1.5v-12C1.1,2.7,1.8,2,2.6,2h18c0.8,0,1.5,0.7,1.5,1.5V14"/>
<line class="st0" x1="6.6" y1="20" x2="11.6" y2="20"/>
<line class="st0" x1="10.1" y1="17" x2="10.1" y2="20"/>
</svg>
