<?xml version="1.0" encoding="utf-8"?>
<!-- Generator: Adobe Illustrator 22.1.0, SVG Export Plug-In . SVG Version: 6.00 Build 0)  -->
<svg version="1.1" id="Layer_1" xmlns="http://www.w3.org/2000/svg" xmlns:xlink="http://www.w3.org/1999/xlink" x="0px" y="0px"
	 viewBox="0 0 24 24" style="enable-background:new 0 0 24 24;" xml:space="preserve">
<style type="text/css">
	.st0{fill:none;stroke:#028970;stroke-linecap:round;stroke-linejoin:round;}
</style>
<title>monitor-www</title>
<line class="st0" x1="5" y1="22" x2="19" y2="22"/>
<line class="st0" x1="11.5" y1="20" x2="11.5" y2="22"/>
<line class="st0" x1="0.5" y1="16" x2="23.5" y2="16"/>
<path class="st0" d="M2,2h20c0.8,0,1.5,0.7,1.5,1.5v15c0,0.8-0.7,1.5-1.5,1.5H2c-0.8,0-1.5-0.7-1.5-1.5v-15C0.5,2.7,1.2,2,2,2z"/>
<path class="st0" d="M4.5,7.5v1.3c0,0.8,0.1,1.5,0.4,2.2l0.6,1.4l1-3.5l1,3.5l0.6-1.4c0.3-0.7,0.4-1.5,0.4-2.2V7.5"/>
<path class="st0" d="M10.5,7.5v1.3c0,0.8,0.1,1.5,0.4,2.2l0.6,1.4l1-3.5l1,3.5l0.6-1.4c0.3-0.7,0.4-1.5,0.4-2.2V7.5"/>
<path class="st0" d="M16.5,7.5v1.3c0,0.8,0.1,1.5,0.4,2.2l0.6,1.4l1-3.5l1,3.5l0.6-1.4c0.3-0.7,0.4-1.5,0.4-2.2V7.5"/>
</svg>
