<?xml version="1.0" encoding="utf-8"?>
<!-- Generator: Adobe Illustrator 22.1.0, SVG Export Plug-In . SVG Version: 6.00 Build 0)  -->
<svg version="1.1" id="Light" xmlns="http://www.w3.org/2000/svg" xmlns:xlink="http://www.w3.org/1999/xlink" x="0px" y="0px"
	 viewBox="0 0 24 24" style="enable-background:new 0 0 24 24;" xml:space="preserve">
<style type="text/css">
	.st0{fill:none;stroke:#028970;stroke-linecap:round;stroke-linejoin:round;}
</style>
<title>multiple-man-woman-1</title>
<path class="st0" d="M17.5,19.1c0-1.2-0.8-2.3-1.9-2.8L11,14.5V12c0,0,1.5-0.5,1.5-3c0.8,0,0.8-2,0-2c0-0.2,0.8-2.1,0.5-3.5
	c-0.5-2-6-2-6.5,0C4,3,5.5,6.7,5.5,7c-0.8,0-0.8,2,0,2c0,2.5,1.5,3,1.5,3v2.5l-4.6,1.8c-1.1,0.5-1.9,1.6-1.9,2.8V22h17V19.1z"/>
<path class="st0" d="M17.5,13.1c1.5,0.2,3.1-0.2,4.4-0.9c0.2-0.1,0.3-0.4,0.2-0.7c0,0,0-0.1-0.1-0.1c-0.5-0.6-0.9-1.3-1-3.6
	c-0.3-4.2-3.1-5.7-5.5-5.7c-0.2,0-0.5,0-0.7,0"/>
<path class="st0" d="M20,22h3.5v-2c0.1-1.3-0.5-2.6-1.6-3.4c-1.2-0.7-2.4-1.4-3.7-1.9c-0.4-0.1-0.6-0.4-0.7-0.8v-1.6
	c0-0.2,0.2-0.5,0.4-0.6c0.7-0.6,1.1-1.4,1.1-2.3V7.3c-1.4-0.2-2.6-0.9-3.5-1.9"/>
</svg>
