<?xml version="1.0" encoding="utf-8"?>
<!-- Generator: Adobe Illustrator 22.1.0, SVG Export Plug-In . SVG Version: 6.00 Build 0)  -->
<svg version="1.1" id="Layer_1" xmlns="http://www.w3.org/2000/svg" xmlns:xlink="http://www.w3.org/1999/xlink" x="0px" y="0px"
	 viewBox="0 0 24 24" style="enable-background:new 0 0 24 24;" xml:space="preserve">
<style type="text/css">
	.st0{fill:none;stroke:#028970;stroke-linecap:round;stroke-linejoin:round;}
</style>
<title>network-arrow</title>
<line class="st0" x1="1.9" y1="17.5" x2="9.5" y2="17.5"/>
<line class="st0" x1="2.5" y1="5.5" x2="21.5" y2="5.5"/>
<line class="st0" x1="8.5" y1="11.5" x2="0.5" y2="11.5"/>
<path class="st0" d="M11.3,0.5c-6,6.5-5.9,15,0.1,23"/>
<path class="st0" d="M12.7,0.5C15,2.9,16.5,5.8,17,9"/>
<path class="st0" d="M23.5,12c0-6.4-5.1-11.5-11.5-11.5S0.5,5.6,0.5,12S5.6,23.5,12,23.5"/>
<path class="st0" d="M20,16.4l2.2-2.2c0.2-0.2,0.2-0.5,0-0.7c-0.1-0.1-0.1-0.1-0.2-0.1L11,10.3c-0.3-0.1-0.5,0.1-0.6,0.3
	c0,0.1,0,0.2,0,0.3l3.1,10.9c0.1,0.3,0.4,0.4,0.6,0.3c0.1,0,0.2-0.1,0.2-0.1l2.1-2l3.2,3.2c0.2,0.2,0.5,0.2,0.7,0l2.9-2.8
	c0.2-0.2,0.2-0.5,0-0.7L20,16.4z"/>
</svg>
