<?xml version="1.0" encoding="utf-8"?>
<!-- Generator: Adobe Illustrator 23.0.1, SVG Export Plug-In . SVG Version: 6.00 Build 0)  -->
<svg version="1.1" id="Layer_1" xmlns="http://www.w3.org/2000/svg" xmlns:xlink="http://www.w3.org/1999/xlink" x="0px" y="0px"
	 viewBox="0 0 24 24" style="enable-background:new 0 0 24 24;" xml:space="preserve">
<style type="text/css">
	.st0{fill:none;stroke:#028970;stroke-linecap:round;stroke-linejoin:round;}
</style>
<title>passport-hand</title>
<path class="st0" d="M9.4,2.5H20c0.3,0,0.5,0.2,0.5,0.5v1.3"/>
<line class="st0" x1="7.5" y1="12.5" x2="7.5" y2="2.4"/>
<path class="st0" d="M23.5,4.5V22c0,0.3-0.2,0.5-0.5,0.5H9.4c-1,0-1.9-0.8-1.9-1.9v-1.8"/>
<path class="st0" d="M23.5,4.5h-14c-1.1,0-2-0.9-2-2l0,0c0-1.1,0.9-2,2-2H22c0.3,0,0.5,0.2,0.5,0.5v3.5"/>
<path class="st0" d="M10.6,12c0.7-2.7,3.4-4.3,6.1-3.6s4.3,3.4,3.6,6.1c-0.7,2.7-3.4,4.3-6.1,3.6c-1-0.2-1.9-0.8-2.6-1.6"/>
<line class="st0" x1="13.5" y1="15" x2="20.1" y2="15"/>
<line class="st0" x1="13.5" y1="11.5" x2="20.2" y2="11.5"/>
<line class="st0" x1="13.5" y1="8.6" x2="13.5" y2="15"/>
<line class="st0" x1="17.5" y1="8.6" x2="17.5" y2="17.8"/>
<path class="st0" d="M8.5,16.5h2.8c1,0,1.9-0.7,2.1-1.7c0.2-1.1-0.6-2.1-1.7-2.3c-0.1,0-0.2,0-0.3,0H6"/>
<path class="st0" d="M6.5,19.5c1.2-0.5,2-1.7,2-3"/>
<path class="st0" d="M7.5,7.5H6.6c-3.3,0-6.1,2.7-6.1,6.1v5c0,1.5,0.7,2.2,2,2.9c0,0,0,0,0,0.1v2"/>
</svg>
