<?xml version="1.0" encoding="utf-8"?>
<!-- Generator: Adobe Illustrator 22.1.0, SVG Export Plug-In . SVG Version: 6.00 Build 0)  -->
<svg version="1.1" id="Layer_1" xmlns="http://www.w3.org/2000/svg" xmlns:xlink="http://www.w3.org/1999/xlink" x="0px" y="0px"
	 viewBox="0 0 24 24" style="enable-background:new 0 0 24 24;" xml:space="preserve">
<style type="text/css">
	.st0{fill:none;stroke:#028970;stroke-linecap:round;stroke-linejoin:round;}
</style>
<title>performance-increase</title>
<line class="st0" x1="0.5" y1="23.3" x2="23.5" y2="23.3"/>
<path class="st0" d="M4.5,23.3v-2.5c0-0.3-0.2-0.5-0.5-0.5H2c-0.3,0-0.5,0.2-0.5,0.5v2.5"/>
<path class="st0" d="M10.5,23.3v-6.5c0-0.3-0.2-0.5-0.5-0.5H8c-0.3,0-0.5,0.2-0.5,0.5v6.5"/>
<path class="st0" d="M16.5,23.3V12.8c0-0.3-0.2-0.5-0.5-0.5h-2c-0.3,0-0.5,0.2-0.5,0.5v10.5"/>
<path class="st0" d="M22.5,23.3V8.8c0-0.3-0.2-0.5-0.5-0.5h-2c-0.3,0-0.5,0.2-0.5,0.5v14.5"/>
<line class="st0" x1="3" y1="13.3" x2="21" y2="1.3"/>
<polyline class="st0" points="20.5,5.3 21,1.3 17,0.8 "/>
</svg>
