<?xml version="1.0" encoding="utf-8"?>
<!-- Generator: Adobe Illustrator 23.0.1, SVG Export Plug-In . SVG Version: 6.00 Build 0)  -->
<svg version="1.1" id="Layer_1" xmlns="http://www.w3.org/2000/svg" xmlns:xlink="http://www.w3.org/1999/xlink" x="0px" y="0px"
	 viewBox="0 0 24 24" style="enable-background:new 0 0 24 24;" xml:space="preserve">
<style type="text/css">
	.st0{fill:none;stroke:#028970;stroke-linecap:round;stroke-linejoin:round;}
</style>
<title>performance-money-increase</title>
<path class="st0" d="M14.5,11.5h8c0.3,0,0.5,0.2,0.5,0.5v2c0,0.3-0.2,0.5-0.5,0.5h-8c-0.3,0-0.5-0.2-0.5-0.5v-2
	C14,11.7,14.2,11.5,14.5,11.5z"/>
<path class="st0" d="M13.5,14.5h8c0.3,0,0.5,0.2,0.5,0.5v2c0,0.3-0.2,0.5-0.5,0.5h-8c-0.3,0-0.5-0.2-0.5-0.5v-2
	C13,14.7,13.2,14.5,13.5,14.5z"/>
<path class="st0" d="M14.5,17.5h8c0.3,0,0.5,0.2,0.5,0.5v2c0,0.3-0.2,0.5-0.5,0.5h-8c-0.3,0-0.5-0.2-0.5-0.5v-2
	C14,17.7,14.2,17.5,14.5,17.5z"/>
<path class="st0" d="M13.5,20.5h8c0.3,0,0.5,0.2,0.5,0.5v2c0,0.3-0.2,0.5-0.5,0.5h-8c-0.3,0-0.5-0.2-0.5-0.5v-2
	C13,20.7,13.2,20.5,13.5,20.5z"/>
<path class="st0" d="M1.5,17.5h8c0.3,0,0.5,0.2,0.5,0.5v2c0,0.3-0.2,0.5-0.5,0.5h-8C1.2,20.5,1,20.3,1,20v-2
	C1,17.7,1.2,17.5,1.5,17.5z"/>
<path class="st0" d="M2.5,20.5h8c0.3,0,0.5,0.2,0.5,0.5v2c0,0.3-0.2,0.5-0.5,0.5h-8C2.2,23.5,2,23.3,2,23v-2
	C2,20.7,2.2,20.5,2.5,20.5z"/>
<path class="st0" d="M1.5,13.5l8.4-8.4c0.4-0.4,0.9-0.4,1.3-0.1l3.6,2.9c0.4,0.3,1,0.3,1.4-0.1L23,0.5"/>
<polyline class="st0" points="16,0.5 23,0.5 23,7 "/>
</svg>
