<?xml version="1.0" encoding="utf-8"?>
<!-- Generator: Adobe Illustrator 23.0.1, SVG Export Plug-In . SVG Version: 6.00 Build 0)  -->
<svg version="1.1" id="Layer_1" xmlns="http://www.w3.org/2000/svg" xmlns:xlink="http://www.w3.org/1999/xlink" x="0px" y="0px"
	 viewBox="0 0 24 24" style="enable-background:new 0 0 24 24;" xml:space="preserve">
<style type="text/css">
	.st0{fill:none;stroke:#028970;stroke-linecap:round;stroke-linejoin:round;}
</style>
<title>performance-increase-1</title>
<line class="st0" x1="0.5" y1="23" x2="23.5" y2="23"/>
<path class="st0" d="M4.5,23v-4.5C4.5,18.2,4.3,18,4,18H2c-0.3,0-0.5,0.2-0.5,0.5V23"/>
<path class="st0" d="M10.5,23v-9.5c0-0.3-0.2-0.5-0.5-0.5H8c-0.3,0-0.5,0.2-0.5,0.5V23"/>
<path class="st0" d="M16.5,23v-7.5c0-0.3-0.2-0.5-0.5-0.5h-2c-0.3,0-0.5,0.2-0.5,0.5V23"/>
<path class="st0" d="M22.5,23V8.5C22.5,8.2,22.3,8,22,8h-2c-0.3,0-0.5,0.2-0.5,0.5V23"/>
<path class="st0" d="M21.5,1l-5.6,6.1c-0.5,0.6-1.4,0.8-2.1,0.5l-3.7-1.2C9.4,6.1,8.7,6.3,8.1,6.7L3,11"/>
<polyline class="st0" points="17.5,1 21.5,1 21.5,5 "/>
</svg>
