<?xml version="1.0" encoding="utf-8"?>
<!-- Generator: Adobe Illustrator 23.0.1, SVG Export Plug-In . SVG Version: 6.00 Build 0)  -->
<svg version="1.1" id="Layer_1" xmlns="http://www.w3.org/2000/svg" xmlns:xlink="http://www.w3.org/1999/xlink" x="0px" y="0px"
	 viewBox="0 0 24 24" style="enable-background:new 0 0 24 24;" xml:space="preserve">
<style type="text/css">
	.st0{fill:none;stroke:#028970;stroke-linecap:round;stroke-linejoin:round;}
</style>
<title>phone-hand-hold-1</title>
<path class="st0" d="M9.5,9.5v-7c0-1.1,0.9-2,2-2h9c1.1,0,2,0.9,2,2v19c0,1.1-0.9,2-2,2h-9c-1.1,0-2-0.9-2-2v-1"/>
<path class="st0" d="M7.5,19.5c1.2-0.5,2-1.7,2-3h3c1.1,0,2-0.9,2-2s-0.9-2-2-2h-6"/>
<path class="st0" d="M9.5,7.5h-2c-3.3,0-6,2.7-6,6v5c0,1.5,0.7,2.2,2,3v2"/>
<path class="st0" d="M16.2,20.6c0.1,0.1,0.1,0.3,0,0.4c-0.1,0.1-0.3,0.1-0.4,0c-0.1-0.1-0.1-0.3,0-0.4
	C15.9,20.5,16.1,20.5,16.2,20.6"/>
</svg>
