<?xml version="1.0" encoding="utf-8"?>
<!-- Generator: Adobe Illustrator 22.1.0, SVG Export Plug-In . SVG Version: 6.00 Build 0)  -->
<svg version="1.1" id="Layer_1" xmlns="http://www.w3.org/2000/svg" xmlns:xlink="http://www.w3.org/1999/xlink" x="0px" y="0px"
	 viewBox="0 0 24 24" style="enable-background:new 0 0 24 24;" xml:space="preserve">
<style type="text/css">
	.st0{fill:none;stroke:#028970;stroke-linecap:round;stroke-linejoin:round;}
</style>
<title>picture-landscape</title>
<path class="st0" d="M1.5,0.5h21c0.6,0,1,0.4,1,1v21c0,0.6-0.4,1-1,1h-21c-0.6,0-1-0.4-1-1v-21C0.5,0.9,0.9,0.5,1.5,0.5z"/>
<line class="st0" x1="23.5" y1="17.5" x2="0.5" y2="17.5"/>
<path class="st0" d="M9.5,3.5C8.3,3.5,7.2,4.4,7,5.6C6.3,5.3,5.4,5.7,5.1,6.5S5.2,8.1,6,8.4c0.2,0.1,0.4,0.1,0.5,0.1h3
	C10.9,8.5,12,7.4,12,6S10.9,3.5,9.5,3.5z"/>
<path class="st0" d="M3.5,17.5c0,0,2-5,4.5-5s4.5,3,4.5,3l3-5.2C16,9.5,17,9.3,17.8,9.7c0.3,0.2,0.5,0.4,0.7,0.7l3.5,7.1"/>
</svg>
