<?xml version="1.0" encoding="utf-8"?>
<!-- Generator: Adobe Illustrator 23.0.1, SVG Export Plug-In . SVG Version: 6.00 Build 0)  -->
<svg version="1.1" id="Layer_1" xmlns="http://www.w3.org/2000/svg" xmlns:xlink="http://www.w3.org/1999/xlink" x="0px" y="0px"
	 viewBox="0 0 24 24" style="enable-background:new 0 0 24 24;" xml:space="preserve">
<style type="text/css">
	.st0{fill:none;stroke:#028970;stroke-linecap:round;stroke-linejoin:round;}
</style>
<title>programming-code</title>
<polyline class="st0" points="7.5,8 10,10.5 7.5,13 "/>
<line class="st0" x1="13" y1="11" x2="17" y2="11"/>
<path class="st0" d="M1.5,2h21c0.6,0,1,0.4,1,1v18c0,0.6-0.4,1-1,1h-21c-0.6,0-1-0.4-1-1V3C0.5,2.4,0.9,2,1.5,2z"/>
<path class="st0" d="M3,4h18c0.3,0,0.5,0.2,0.5,0.5v15c0,0.3-0.2,0.5-0.5,0.5H3c-0.3,0-0.5-0.2-0.5-0.5v-15C2.5,4.2,2.7,4,3,4z"/>
</svg>
