<?xml version="1.0" encoding="utf-8"?>
<!-- Generator: Adobe Illustrator 23.0.1, SVG Export Plug-In . SVG Version: 6.00 Build 0)  -->
<svg version="1.1" id="Layer_1" xmlns="http://www.w3.org/2000/svg" xmlns:xlink="http://www.w3.org/1999/xlink" x="0px" y="0px"
	 viewBox="0 0 24 24" style="enable-background:new 0 0 24 24;" xml:space="preserve">
<style type="text/css">
	.st0{fill:none;stroke:#028970;stroke-linecap:round;stroke-linejoin:round;}
</style>
<title>reception-hotel-bell</title>
<path class="st0" d="M11.5,14.5V14c0-2.8-2.2-5-5-5s-5,2.2-5,5v0.5"/>
<path class="st0" d="M10,3.5c0,0.2,0,0.3,0,0.5c0,1.9-1.6,3.5-3.5,3.5S3,5.9,3,4c0-0.1,0-0.4,0-0.5"/>
<path class="st0" d="M1,14.5h22c0.3,0,0.5,0.2,0.5,0.5v8c0,0.3-0.2,0.5-0.5,0.5H1c-0.3,0-0.5-0.2-0.5-0.5v-8
	C0.5,14.7,0.7,14.5,1,14.5z"/>
<path class="st0" d="M15.5,14.5c0-1.7,1.3-3,3-3s3,1.3,3,3H15.5z"/>
<path class="st0" d="M10,3.5c-2.3-0.7-4.7-0.7-7,0v-2c0-0.6,0.4-1,1-1h5c0.6,0,1,0.4,1,1V3.5z"/>
<path class="st0" d="M6.8,10.8c0,0.1-0.1,0.3-0.3,0.3s-0.3-0.1-0.3-0.3s0.1-0.3,0.3-0.3S6.8,10.6,6.8,10.8"/>
<path class="st0" d="M6.8,13c0,0.1-0.1,0.3-0.3,0.3S6.3,13.1,6.3,13s0.1-0.3,0.3-0.3S6.8,12.9,6.8,13"/>
<line class="st0" x1="17.5" y1="9.5" x2="19.5" y2="9.5"/>
<line class="st0" x1="18.5" y1="9.5" x2="18.5" y2="11.5"/>
<line class="st0" x1="10.5" y1="21.5" x2="10.5" y2="17.5"/>
<line class="st0" x1="14.5" y1="21.5" x2="14.5" y2="17.5"/>
<line class="st0" x1="10.5" y1="19.5" x2="14.5" y2="19.5"/>
</svg>
