<?xml version="1.0" encoding="utf-8"?>
<!-- Generator: Adobe Illustrator 22.1.0, SVG Export Plug-In . SVG Version: 6.00 Build 0)  -->
<svg version="1.1" id="Layer_1" xmlns="http://www.w3.org/2000/svg" xmlns:xlink="http://www.w3.org/1999/xlink" x="0px" y="0px"
	 viewBox="0 0 24 24" style="enable-background:new 0 0 24 24;" xml:space="preserve">
<style type="text/css">
	.st0{fill:none;stroke:#028970;stroke-linecap:round;stroke-linejoin:round;}
</style>
<title>responsive-design</title>
<line class="st0" x1="8.5" y1="19.5" x2="15.5" y2="19.5"/>
<line class="st0" x1="12" y1="17.5" x2="12" y2="19.5"/>
<line class="st0" x1="3.5" y1="14.5" x2="15.5" y2="14.5"/>
<path class="st0" d="M1.5,0.5h4c0.6,0,1,0.4,1,1v7c0,0.6-0.4,1-1,1h-4c-0.6,0-1-0.4-1-1v-7C0.5,0.9,0.9,0.5,1.5,0.5z"/>
<path class="st0" d="M18.5,14.5h4c0.6,0,1,0.4,1,1v7c0,0.6-0.4,1-1,1h-4c-0.6,0-1-0.4-1-1v-7C17.5,14.9,17.9,14.5,18.5,14.5z"/>
<line class="st0" x1="17.5" y1="21.5" x2="23.5" y2="21.5"/>
<line class="st0" x1="17.5" y1="16.5" x2="23.5" y2="16.5"/>
<path class="st0" d="M8.5,5.5H19c0.8,0,1.5,0.7,1.5,1.5v5.5"/>
<path class="st0" d="M15.5,17.5H5c-0.8,0-1.5-0.7-1.5-1.5v-4.5"/>
</svg>
