<?xml version="1.0" encoding="utf-8"?>
<!-- Generator: Adobe Illustrator 23.0.1, SVG Export Plug-In . SVG Version: 6.00 Build 0)  -->
<svg version="1.1" id="Layer_1" xmlns="http://www.w3.org/2000/svg" xmlns:xlink="http://www.w3.org/1999/xlink" x="0px" y="0px"
	 viewBox="0 0 24 24" style="enable-background:new 0 0 24 24;" xml:space="preserve">
<style type="text/css">
	.st0{fill:none;stroke:#028970;stroke-linecap:round;stroke-linejoin:round;}
</style>
<title>shopping-voucher-mail</title>
<path class="st0" d="M19.5,8.8l4,2.8V22c0,0.8-0.7,1.5-1.5,1.5H2c-0.8,0-1.5-0.7-1.5-1.5V11.5l4-2.8"/>
<polyline class="st0" points="3.5,20.5 8.5,16.5 15.5,16.5 20.5,20.5 "/>
<line class="st0" x1="23.5" y1="11.5" x2="17.5" y2="15.5"/>
<line class="st0" x1="0.5" y1="11.5" x2="6.5" y2="15.5"/>
<path class="st0" d="M19.5,14.2V1.5c0-0.6-0.4-1-1-1h-13c-0.6,0-1,0.4-1,1v12.7"/>
<path class="st0" d="M16,4l-1.9,5.2c-0.1,0.2-0.3,0.3-0.5,0.3h-3.6c-0.2,0-0.4-0.1-0.5-0.3l-1.1-3c-0.1-0.3,0-0.5,0.3-0.7
	c0.1,0,0.1,0,0.2,0h6.5"/>
<path class="st0" d="M10.8,11c0.1,0,0.3,0.1,0.3,0.3s-0.1,0.3-0.3,0.3s-0.3-0.1-0.3-0.3S10.6,11,10.8,11"/>
<path class="st0" d="M13.3,11c0.1,0,0.3,0.1,0.3,0.3s-0.1,0.3-0.3,0.3S13,11.4,13,11.3S13.1,11,13.3,11"/>
</svg>
