<?xml version="1.0" encoding="utf-8"?>
<!-- Generator: Adobe Illustrator 23.0.1, SVG Export Plug-In . SVG Version: 6.00 Build 0)  -->
<svg version="1.1" id="Layer_1" xmlns="http://www.w3.org/2000/svg" xmlns:xlink="http://www.w3.org/1999/xlink" x="0px" y="0px"
	 viewBox="0 0 24 24" style="enable-background:new 0 0 24 24;" xml:space="preserve">
<style type="text/css">
	.st0{fill:none;stroke:#028970;stroke-linecap:round;stroke-linejoin:round;}
</style>
<path class="st0" d="M0.5,1.5c0-0.6,0.4-1,1-1h14c0.6,0,1,0.4,1,1v10c0,0.6-0.4,1-1,1H14v2l-2.5-2h-10c-0.6,0-1-0.4-1-1V1.5z"/>
<path class="st0" d="M21.2,13c-0.1,0-0.3,0.1-0.3,0.3s0.1,0.3,0.3,0.3s0.3-0.1,0.3-0.3S21.4,13,21.2,13"/>
<path class="st0" d="M23.5,23.5H22c-0.9-0.1-1.7-0.7-2-1.5c-0.1-0.2-0.1-0.4,0.1-0.6l1.9-1.9h-2c-0.3,0-0.5-0.2-0.5-0.5v-1.5h-2.3
	c-0.3,0-0.5-0.2-0.5-0.5c0-0.1,0-0.1,0-0.2C18.2,12,19,6.7,23.5,5"/>
<path class="st0" d="M12.5,2l-1.9,5.2c-0.1,0.2-0.3,0.3-0.5,0.3H6.6c-0.2,0-0.4-0.1-0.5-0.3L5,4.2C4.9,3.9,5,3.7,5.3,3.5
	c0.1,0,0.1,0,0.2,0H12"/>
<path class="st0" d="M7.3,9c0.1,0,0.2,0.1,0.2,0.3S7.4,9.5,7.2,9.5C7.1,9.5,7,9.4,7,9.3C7,9.1,7.1,9,7.3,9C7.3,9,7.3,9,7.3,9"/>
<path class="st0" d="M9.8,9C9.9,9,10,9.1,10,9.3S9.9,9.5,9.8,9.5S9.5,9.4,9.5,9.3S9.6,9,9.8,9"/>
<title>shopping-cart-man-message</title>
</svg>
