<?xml version="1.0" encoding="utf-8"?>
<!-- Generator: Adobe Illustrator 23.0.1, SVG Export Plug-In . SVG Version: 6.00 Build 0)  -->
<svg version="1.1" id="Light" xmlns="http://www.w3.org/2000/svg" xmlns:xlink="http://www.w3.org/1999/xlink" x="0px" y="0px"
	 viewBox="0 0 24 24" style="enable-background:new 0 0 24 24;" xml:space="preserve">
<style type="text/css">
	.st0{fill:#028970;}
</style>
<g>
	<title>single-woman-focus</title>
	<path class="st0" d="M1.5,24C0.7,24,0,23.3,0,22.5v-6C0,16.2,0.2,16,0.5,16S1,16.2,1,16.5v6C1,22.8,1.2,23,1.5,23h6
		C7.8,23,8,23.2,8,23.5S7.8,24,7.5,24H1.5z"/>
	<path class="st0" d="M0.5,8C0.2,8,0,7.8,0,7.5v-6C0,0.7,0.7,0,1.5,0h6C7.8,0,8,0.2,8,0.5S7.8,1,7.5,1h-6C1.2,1,1,1.2,1,1.5v6
		C1,7.8,0.8,8,0.5,8z"/>
	<path class="st0" d="M16.5,24c-0.3,0-0.5-0.2-0.5-0.5s0.2-0.5,0.5-0.5h6c0.3,0,0.5-0.2,0.5-0.5v-6c0-0.3,0.2-0.5,0.5-0.5
		s0.5,0.2,0.5,0.5v6c0,0.8-0.7,1.5-1.5,1.5H16.5z"/>
	<path class="st0" d="M23.5,8C23.2,8,23,7.8,23,7.5v-6C23,1.2,22.8,1,22.5,1h-6C16.2,1,16,0.8,16,0.5S16.2,0,16.5,0h6
		C23.3,0,24,0.7,24,1.5v6C24,7.8,23.8,8,23.5,8z"/>
	<path class="st0" d="M16.4,12.9c-0.2,0-0.3-0.1-0.4-0.2c-0.3-0.5-0.5-1.1-0.7-1.7c-0.6,1.2-1.9,1.9-3.3,1.9c-0.1,0-0.1,0-0.2,0
		c-1.3-0.1-2.5-0.8-3.1-1.9c-0.1,0.6-0.3,1.2-0.7,1.7c-0.1,0.1-0.3,0.2-0.4,0.2c-0.1,0-0.2,0-0.3-0.1c-0.2-0.1-0.3-0.5-0.2-0.7
		c0.4-0.7,0.6-1.5,0.6-2.3V8.7c0-2.3,1.9-4.2,4.2-4.2s4.2,1.9,4.2,4.2v1.1c0,0.8,0.2,1.7,0.6,2.4c0.1,0.1,0.1,0.2,0.1,0.4
		c0,0.1-0.1,0.2-0.2,0.3C16.6,12.8,16.5,12.9,16.4,12.9z M9.3,9.7c0.3,1.2,1.3,2.1,2.6,2.2c0,0,0.1,0,0.1,0c1.3,0,2.4-0.9,2.7-2.2
		c-1-0.2-1.9-0.7-2.7-1.4C11.3,9,10.3,9.5,9.3,9.7z M12,7.1c0.1,0,0.3,0.1,0.4,0.2c0.7,0.8,1.7,1.4,2.8,1.5V8.7
		c0-1.8-1.4-3.2-3.2-3.2S8.8,6.9,8.8,8.7v0.1c1.1-0.1,2.1-0.7,2.8-1.5C11.7,7.2,11.9,7.1,12,7.1z"/>
	<path class="st0" d="M6.5,20C6.2,20,6,19.8,6,19.5c0-3.3,2.7-6,6-6s6,2.7,6,6c0,0.3-0.2,0.5-0.5,0.5H6.5z M17,19
		c-0.3-2.5-2.4-4.5-5-4.5s-4.7,2-5,4.5H17z"/>
</g>
</svg>
