<svg id="Layer_1" data-name="Layer 1" xmlns="http://www.w3.org/2000/svg" viewBox="0 0 45.72 40.08"><defs><style>.cls-1{fill:#e6e7e8;}.cls-2{fill:#41414f;}.cls-3{fill:#f1f2f2;}.cls-4,.cls-8{fill:none;stroke-miterlimit:10;}.cls-4{stroke:#222;}.cls-5{opacity:0.12;isolation:isolate;}.cls-6{fill:#ededed;}.cls-7{fill:#008870;}.cls-8{stroke:#fff;}.cls-9{fill:#fff;}</style></defs><title>speedup</title><path class="cls-1" d="M43.36,41.86H2.64a.21.21,0,0,1-.19-.19V14.49a.21.21,0,0,1,.19-.19H43.26a.2.2,0,0,1,.19.19V41.57C43.55,41.76,43.45,41.86,43.36,41.86Z" transform="translate(-0.14 -4.2)"/><rect class="cls-2" x="4.52" y="11.73" width="36.3" height="22.47"/><path class="cls-3" d="M43.84,43.78H2.16a1,1,0,0,1-1-1l-.39-2.5H19.26l.67,1.06H25l.76-1.06h19.5l-.39,2.5A1,1,0,0,1,43.84,43.78Z" transform="translate(-0.14 -4.2)"/><path class="cls-4" d="M43.84,43.78H2.16a1,1,0,0,1-1-1l-.39-2.5H19.26l.67,1.06H25l.76-1.06h19.5l-.39,2.5A1,1,0,0,1,43.84,43.78Z" transform="translate(-0.14 -4.2)"/><polygon class="cls-5" points="5.67 10.2 7.11 34.01 38.51 34.01 39.95 10.2 5.67 10.2"/><path class="cls-6" d="M38.46,4.79h-31a.21.21,0,0,0-.19.2V38.21h31.4V4.89C38.65,4.79,38.56,4.79,38.46,4.79Z" transform="translate(-0.14 -4.2)"/><path class="cls-1" d="M38.46,4.79h-4a.21.21,0,0,1,.19.2V38.21h4V4.89C38.65,4.79,38.56,4.79,38.46,4.79Z" transform="translate(-0.14 -4.2)"/><path class="cls-7" d="M38.08,4.79H7.83a.21.21,0,0,0-.19.2v5.66H38.17V5C38.27,4.79,38.17,4.79,38.08,4.79Z" transform="translate(-0.14 -4.2)"/><path class="cls-4" d="M19,10.56H7.64V4.89a.2.2,0,0,1,.19-.19H38.08a.2.2,0,0,1,.19.19v5.67H32.41" transform="translate(-0.14 -4.2)"/><line class="cls-4" x1="20.17" y1="6.26" x2="23.44" y2="6.26"/><line class="cls-8" x1="10.38" y1="3.28" x2="11.82" y2="3.28"/><line class="cls-8" x1="13.07" y1="3.28" x2="14.51" y2="3.28"/><line class="cls-8" x1="15.66" y1="3.28" x2="17.19" y2="3.28"/><polyline class="cls-4" points="11.24 8.85 11.24 15 34.38 15"/><path class="cls-9" d="M23,23.23A14.59,14.59,0,0,0,8.4,37.83H37.6A14.59,14.59,0,0,0,23,23.23Z" transform="translate(-0.14 -4.2)"/><path class="cls-7" d="M23,34.66a3.2,3.2,0,0,0-3.17,3.17h6.34A3.2,3.2,0,0,0,23,34.66Z" transform="translate(-0.14 -4.2)"/><path class="cls-4" d="M19.83,37.83a3.17,3.17,0,0,1,6.34,0" transform="translate(-0.14 -4.2)"/><path class="cls-4" d="M8.4,37.83a14.6,14.6,0,0,1,29.2,0" transform="translate(-0.14 -4.2)"/><path class="cls-4" d="M13,33.7a12.18,12.18,0,0,1,2.31-3.46,10.74,10.74,0,0,1,3.46-2.3A10,10,0,0,1,23,27.07a10.28,10.28,0,0,1,4.22.87,12,12,0,0,1,3.46,2.3A10.93,10.93,0,0,1,33,33.7" transform="translate(-0.14 -4.2)"/><line class="cls-4" x1="24.97" y1="31.32" x2="28.62" y2="26.81"/><line class="cls-4" x1="22.86" y1="24.7" x2="22.86" y2="26.14"/><line class="cls-4" x1="25.84" y1="25.27" x2="25.36" y2="26.62"/><line class="cls-4" x1="15.08" y1="29.21" x2="16.33" y2="29.88"/><line class="cls-4" x1="17.1" y1="26.81" x2="17.96" y2="27.96"/><line class="cls-4" x1="19.69" y1="25.27" x2="20.27" y2="26.62"/><line class="cls-4" x1="4.52" y1="34.11" x2="40.82" y2="34.11"/></svg>