<?xml version="1.0" encoding="utf-8"?>
<!-- Generator: Adobe Illustrator 23.0.1, SVG Export Plug-In . SVG Version: 6.00 Build 0)  -->
<svg version="1.1" id="Layer_1" xmlns="http://www.w3.org/2000/svg" xmlns:xlink="http://www.w3.org/1999/xlink" x="0px" y="0px"
	 viewBox="0 0 24 24" style="enable-background:new 0 0 24 24;" xml:space="preserve">
<style type="text/css">
	.st0{fill:none;stroke:#028970;stroke-linecap:round;stroke-linejoin:round;}
</style>
<title>startup-launch-1</title>
<line class="st0" x1="9" y1="2" x2="9" y2="4"/>
<line class="st0" x1="10" y1="3" x2="8" y2="3"/>
<line class="st0" x1="16" y1="21" x2="16" y2="23"/>
<line class="st0" x1="17" y1="22" x2="15" y2="22"/>
<path class="st0" d="M23,14h-1.7c-0.7,0-1.3,0.6-1.3,1.3c0,0.4,0.2,0.9,0.6,1.1l1.8,1.2c0.6,0.4,0.8,1.2,0.4,1.8
	c-0.2,0.4-0.7,0.6-1.1,0.6H20"/>
<line class="st0" x1="22" y1="14" x2="22" y2="13"/>
<line class="st0" x1="21" y1="21" x2="21" y2="20"/>
<path class="st0" d="M4,2H2.3C1.6,2,1,2.6,1,3.3c0,0.4,0.2,0.9,0.6,1.1l1.8,1.2C4,6,4.2,6.8,3.8,7.4C3.6,7.8,3.1,8,2.7,8H1"/>
<line class="st0" x1="3" y1="2" x2="3" y2="1"/>
<line class="st0" x1="2" y1="9" x2="2" y2="8"/>
<path class="st0" d="M7.1,20.4c-1,1-4.1,1.1-4.1,1.1s0.2-2.9,1.2-3.9s2-0.1,2.5,0.4S8,19.5,7.1,20.4z"/>
<line class="st0" x1="9" y1="11.6" x2="12.9" y2="15.5"/>
<line class="st0" x1="19.4" y1="5.1" x2="20.5" y2="4"/>
<path class="st0" d="M19.8,8.9l-0.4-3.9l-3.9-0.4c-1.1-0.1-2.2,0.4-2.8,1.4l-6,8.8l1.4,1.4l1.4,1.4l8.8-6
	C19.4,11.2,19.9,10.1,19.8,8.9z"/>
<path class="st0" d="M9,11.6l-1.1-0.4c-0.7-0.3-1.6-0.1-2.1,0.5l-2,2c-0.2,0.2-0.2,0.5,0,0.7c0.1,0.1,0.2,0.1,0.3,0.1L6.7,15"/>
<path class="st0" d="M12.9,15.5l0.4,1.1c0.3,0.7,0.1,1.6-0.5,2.1l-2,2c-0.2,0.2-0.5,0.2-0.7,0c-0.1-0.1-0.1-0.2-0.1-0.3l-0.5-2.6"/>
<circle class="st0" cx="15.6" cy="8.9" r="1.5"/>
</svg>
