<?xml version="1.0" encoding="utf-8"?>
<!-- Generator: Adobe Illustrator 23.0.1, SVG Export Plug-In . SVG Version: 6.00 Build 0)  -->
<svg version="1.1" id="Layer_1" xmlns="http://www.w3.org/2000/svg" xmlns:xlink="http://www.w3.org/1999/xlink" x="0px" y="0px"
	 viewBox="0 0 46 46" style="enable-background:new 0 0 46 46;" xml:space="preserve">
<style type="text/css">
	.st0{display:none;}
	.st1{display:inline;fill:#FFFFFF;}
	.st2{display:inline;fill:#EDEDED;}
	.st3{display:inline;fill:#FFC107;}
	.st4{display:inline;fill:url(#XMLID_2_);}
	.st5{display:inline;fill:none;stroke:#4C5159;stroke-miterlimit:10;}
	.st6{display:inline;fill:none;stroke:#FFFFFF;stroke-miterlimit:10;}
	.st7{display:inline;}
	.st8{fill:none;stroke:#4C5159;stroke-miterlimit:10;}
	.st9{display:inline;opacity:0.3;fill:#414042;enable-background:new    ;}
	.st10{display:inline;fill:url(#XMLID_3_);}
	.st11{display:inline;fill:url(#XMLID_4_);}
	.st12{display:inline;fill:none;stroke:#4C5159;stroke-miterlimit:10;stroke-dasharray:1;}
	.st13{display:inline;fill:#F1F2F2;}
	.st14{display:inline;fill:url(#XMLID_5_);}
	.st15{display:inline;opacity:0.2;fill:#FFFFFF;enable-background:new    ;}
	.st16{display:inline;opacity:0.2;fill:#414042;enable-background:new    ;}
	.st17{fill:none;stroke:#FFFFFF;stroke-miterlimit:10;}
	.st18{display:inline;fill:none;stroke:#4C5159;stroke-miterlimit:10;stroke-dasharray:1.9857,1.9857;}
	.st19{display:inline;fill:url(#XMLID_6_);}
	.st20{display:inline;fill:url(#XMLID_7_);}
	.st21{display:inline;fill:url(#XMLID_8_);}
	.st22{display:inline;fill:url(#XMLID_9_);}
	.st23{display:inline;fill:url(#XMLID_10_);}
	.st24{display:inline;fill:url(#XMLID_11_);}
	.st25{display:inline;opacity:0.3;}
	.st26{fill:#414042;}
	.st27{display:inline;fill:url(#XMLID_12_);}
	.st28{display:inline;fill:url(#XMLID_13_);}
	.st29{fill:#FFC107;}
	.st30{display:inline;fill:url(#XMLID_14_);}
	.st31{fill:url(#XMLID_15_);}
	.st32{display:inline;fill:url(#XMLID_16_);}
	.st33{fill:#F1F2F2;}
	.st34{opacity:0.3;fill:#414042;enable-background:new    ;}
	.st35{display:inline;fill:#E6E7E8;}
	.st36{display:inline;fill:url(#XMLID_17_);}
	.st37{fill:#EDEDED;}
	.st38{fill:url(#XMLID_18_);}
	.st39{display:inline;fill:url(#XMLID_19_);}
	.st40{display:inline;fill:url(#XMLID_20_);}
	.st41{fill:#E6E7E8;}
	.st42{fill:url(#XMLID_21_);}
	.st43{display:inline;fill:url(#XMLID_22_);}
	.st44{fill:#D1D3D4;}
	.st45{fill:#008870;}
	.st46{opacity:0.3;fill:#353535;}
	.st47{fill:none;stroke:#222222;stroke-miterlimit:10;}
	.st48{fill:#41414F;}
	.st49{fill:none;stroke:#222222;stroke-miterlimit:10;stroke-dasharray:1;}
	.st50{display:inline;fill:url(#XMLID_23_);}
	.st51{display:inline;fill:url(#XMLID_24_);}
	.st52{display:inline;fill:url(#XMLID_25_);}
	.st53{display:inline;fill:url(#XMLID_26_);}
</style>
<g id="bg" class="st0">
	<rect id="XMLID_119_" x="-227" y="-277.2" class="st1" width="500" height="600.3"/>
</g>
<g id="XMLID_361_" class="st0">
	<path id="XMLID_115_" class="st2" d="M44.5,44.4h-43c-0.1,0-0.2-0.1-0.2-0.2V1.8c0-0.1,0.1-0.2,0.2-0.2h43.1c0.1,0,0.2,0.1,0.2,0.2
		v42.5C44.8,44.4,44.7,44.4,44.5,44.4z"/>
	<path id="XMLID_389_" class="st3" d="M34.4,27.9v-2.4l-3.9-0.6c-0.2-0.8-0.5-1.6-1-2.3l2.3-3.1l-1.7-1.7L27,20.1
		c-0.7-0.4-1.5-0.8-2.3-1l-0.6-3.9h-2.4l-0.6,3.9c-0.8,0.2-1.6,0.5-2.3,0.9l-3.1-2.3L14,19.4l2.3,3.1c-0.4,0.7-0.8,1.5-1,2.3
		l-3.9,0.6v2.4l3.9,0.6c0.2,0.8,0.5,1.6,0.9,2.3l-2.3,3.1l1.7,1.7l3.1-2.3c0.7,0.4,1.5,0.8,2.3,1l0.6,3.9H24l0.6-3.9
		c0.8-0.2,1.6-0.5,2.3-0.9l3.1,2.3l1.7-1.7l-2.3-3.1c0.4-0.7,0.8-1.5,1-2.3L34.4,27.9z M23,30.1c-1.9,0-3.4-1.5-3.4-3.4
		s1.5-3.4,3.4-3.4c1.9,0,3.4,1.5,3.4,3.4S24.9,30.1,23,30.1z"/>
	
		<linearGradient id="XMLID_2_" gradientUnits="userSpaceOnUse" x1="1.6596" y1="40.6429" x2="44.3596" y2="40.6429" gradientTransform="matrix(1 0 0 -1 0 45.8961)">
		<stop  offset="0" style="stop-color:#6874E7"/>
		<stop  offset="0.4803" style="stop-color:#747FE9"/>
		<stop  offset="0.9847" style="stop-color:#858EEC"/>
	</linearGradient>
	<path id="XMLID_187_" class="st4" d="M44.2,9H1.9C1.8,9,1.7,8.9,1.7,8.8V1.7c0-0.1,0.1-0.2,0.2-0.2h42.3c0.1,0,0.2,0.1,0.2,0.2v7.1
		C44.4,8.9,44.3,9,44.2,9z"/>
	<path id="XMLID_141_" class="st5" d="M16.8,9H1.7V1.7c0-0.1,0.1-0.2,0.2-0.2h42.3c0.1,0,0.2,0.1,0.2,0.2V9H33.3"/>
	<line id="XMLID_140_" class="st5" x1="18.3" y1="9" x2="22.6" y2="9"/>
	<line id="XMLID_139_" class="st6" x1="5.6" y1="5" x2="7.3" y2="5"/>
	<line id="XMLID_138_" class="st6" x1="9" y1="5" x2="10.6" y2="5"/>
	<line id="XMLID_137_" class="st6" x1="12.4" y1="5" x2="14" y2="5"/>
	<line id="XMLID_136_" class="st5" x1="6.9" y1="16.9" x2="11.3" y2="16.9"/>
	<line id="XMLID_133_" class="st5" x1="39.5" y1="16.9" x2="34.2" y2="16.9"/>
	<line id="XMLID_131_" class="st5" x1="6.9" y1="22.2" x2="11.7" y2="22.2"/>
	<line id="XMLID_127_" class="st5" x1="42" y1="22.2" x2="37" y2="22.2"/>
	<line id="XMLID_126_" class="st5" x1="6.9" y1="27.5" x2="9.6" y2="27.5"/>
	<line id="XMLID_124_" class="st5" x1="40.5" y1="27.5" x2="36.8" y2="27.5"/>
	<line id="XMLID_123_" class="st5" x1="6.9" y1="32.8" x2="11.7" y2="32.8"/>
	<line id="XMLID_120_" class="st5" x1="41.3" y1="32.8" x2="34.9" y2="32.8"/>
	<line id="XMLID_118_" class="st5" x1="6.9" y1="38.1" x2="9.6" y2="38.1"/>
	<line id="XMLID_117_" class="st5" x1="13" y1="38.1" x2="17.5" y2="38.1"/>
	<line id="XMLID_116_" class="st5" x1="38.7" y1="38.1" x2="32.4" y2="38.1"/>
	<g id="XMLID_160_" class="st7">
		<path id="XMLID_165_" class="st8" d="M34.5,27.9v-2.4l-3.9-0.6c-0.2-0.8-0.5-1.6-1-2.3l2.3-3.1l-1.7-1.7l-3.1,2.3
			c-0.7-0.4-1.5-0.8-2.3-1l-0.6-3.9h-2.4l-0.6,3.9c-0.8,0.2-1.6,0.5-2.3,0.9l-3.1-2.3l-1.7,1.7l2.3,3.1c-0.4,0.7-0.8,1.5-1,2.3
			l-3.9,0.6v2.4l3.9,0.6c0.2,0.8,0.5,1.6,0.9,2.3L14,33.8l1.7,1.7l3.1-2.3c0.7,0.4,1.5,0.8,2.3,1l0.6,3.9h2.4l0.6-3.9
			c0.8-0.2,1.6-0.5,2.3-0.9l3.1,2.3l1.7-1.7l-2.3-3.1c0.4-0.7,0.8-1.5,1-2.3L34.5,27.9z"/>
		<path id="XMLID_167_" class="st8" d="M26.6,26.7c0,1-0.4,1.8-1,2.5c-0.6,0.6-1.5,1-2.5,1s-1.8-0.4-2.5-1c-0.6-0.6-1-1.5-1-2.5
			s0.4-1.8,1-2.5c0.6-0.6,1.5-1,2.5-1"/>
	</g>
</g>
<g id="XMLID_69_" class="st0">
	<path id="XMLID_83_" class="st3" d="M43.1,31.7H45c0.1,0,0.2-0.1,0.2-0.2V1.8c0-0.1-0.1-0.2-0.2-0.2H5c-0.1,0-0.2,0.1-0.2,0.2v4.1
		v25.6c0,0.1,0.1,0.3,0.3,0.3L43.1,31.7L43.1,31.7z"/>
	<path id="XMLID_161_" class="st9" d="M42.2,6.4H4.8v25c0,0.1,0.1,0.3,0.3,0.3h37.4v-25C42.5,6.5,42.3,6.4,42.2,6.4z"/>
	
		<linearGradient id="XMLID_3_" gradientUnits="userSpaceOnUse" x1="0.7817" y1="19.8722" x2="41.2232" y2="19.8722" gradientTransform="matrix(1 0 0 -1 0 45.8961)">
		<stop  offset="0" style="stop-color:#6874E7"/>
		<stop  offset="0.4803" style="stop-color:#747FE9"/>
		<stop  offset="0.9847" style="stop-color:#858EEC"/>
	</linearGradient>
	<path id="XMLID_75_" class="st10" d="M41,37.7H8.8l-7.9,6.7c-0.1,0.1-0.2,0-0.2-0.1V7.8c0-0.1,0.1-0.2,0.2-0.2h40
		c0.1,0,0.2,0.1,0.2,0.2v29.7C41.2,37.6,41.1,37.7,41,37.7z"/>
	<path id="XMLID_82_" class="st5" d="M4.8,5.9V1.8c0-0.1,0.1-0.2,0.2-0.2h40c0.1,0,0.2,0.1,0.2,0.2v29.7c0,0.1-0.1,0.2-0.2,0.2h-1.9
		"/>
	<g id="XMLID_72_" class="st7">
		<path id="XMLID_221_" class="st8" d="M28.5,33.4h-1.9c-0.4,0-0.7-0.3-0.7-0.7l0,0c0-0.4,0.3-0.7,0.7-0.7h1.9
			c0.4,0,0.7,0.3,0.7,0.7l0,0C29.2,33.1,28.9,33.4,28.5,33.4z"/>
		<path id="XMLID_223_" class="st8" d="M21.8,25.4h-0.6c-1.3,0-2.3-1-2.3-2.3l0,0c0-1.3,1-2.3,2.3-2.3h0.6V25.4z"/>
		<path id="XMLID_225_" class="st8" d="M35.9,25.4h0.6c1.3,0,2.3-1,2.3-2.3l0,0c0-1.3-1-2.3-2.3-2.3h-0.6V25.4z"/>
		<path id="XMLID_226_" class="st8" d="M35.9,19.5c-0.7-3.2-3.6-5.6-7-5.6l0,0c-3.6,0-6.7,2.8-7.1,6.3"/>
		<path id="XMLID_222_" class="st8" d="M28.9,32.7c3.9,0,7.1-3.2,7.1-7.1v-6.5"/>
	</g>
	<line id="XMLID_74_" class="st5" x1="4.4" y1="13.6" x2="21.9" y2="13.6"/>
	<line id="XMLID_73_" class="st5" x1="4.4" y1="18.1" x2="18.9" y2="18.1"/>
	<line id="XMLID_76_" class="st5" x1="4.4" y1="22.6" x2="16.1" y2="22.6"/>
	<line id="XMLID_78_" class="st5" x1="4.4" y1="27.2" x2="18" y2="27.2"/>
	<line id="XMLID_79_" class="st5" x1="4.4" y1="31.7" x2="22.1" y2="31.7"/>
</g>
<g id="XMLID_98_" class="st0">
	
		<linearGradient id="XMLID_4_" gradientUnits="userSpaceOnUse" x1="12.9777" y1="25.6554" x2="33.0285" y2="25.6554" gradientTransform="matrix(1 0 0 -1 0 45.8961)">
		<stop  offset="0" style="stop-color:#6874E7"/>
		<stop  offset="0.4803" style="stop-color:#747FE9"/>
		<stop  offset="0.9847" style="stop-color:#858EEC"/>
	</linearGradient>
	<path id="XMLID_157_" class="st11" d="M23,7c-5.5,0-10,4.5-10,10c-0.1,7.2,8.8,15.4,9.9,16.4c0.1,0.1,0.2,0.1,0.2,0
		c1.1-1,10-9.2,9.9-16.4C33,11.4,28.5,7,23,7z M23,22.5c-3.1,0-5.5-2.5-5.5-5.5c0-3.1,2.5-5.5,5.5-5.5c3.1,0,5.5,2.5,5.5,5.5
		S26.1,22.5,23,22.5z"/>
	<path id="XMLID_111_" class="st5" d="M29.8,29.1c6,2.6,10.1,8.6,10.1,15.5"/>
	<path id="XMLID_110_" class="st5" d="M6.1,44.6c0-6.9,4.1-12.8,10-15.4"/>
	<path id="XMLID_103_" class="st5" d="M28.9,31c1.8,3.8,2.9,8.5,2.9,13.6"/>
	<path id="XMLID_99_" class="st5" d="M16.1,31.4c-1.7,3.7-2.7,8.3-2.7,13.2"/>
	<line id="XMLID_448_" class="st5" x1="23" y1="34.2" x2="23" y2="44.6"/>
	<line id="XMLID_444_" class="st5" x1="8.7" y1="36.4" x2="37.9" y2="36.4"/>
	<circle id="XMLID_440_" class="st5" cx="23" cy="17" r="5.5"/>
	<path id="XMLID_452_" class="st12" d="M12,28.1c-2.8-2.8-4.6-6.7-4.6-11s1.7-8.2,4.6-11c2.8-2.8,6.7-4.6,11-4.6s8.2,1.7,11,4.6
		c2.8,2.8,4.6,6.7,4.6,11s-1.7,8.2-4.6,11"/>
</g>
<g id="XMLID_171_" class="st0">
	<path id="XMLID_384_" class="st13" d="M26.1,4.8c0-1.2-0.9-2.1-2.1-2.1H3.1C1.9,2.7,1,3.6,1,4.8v38C1,44,2,45,3.1,45H24
		c1.2,0,2.1-0.9,2.1-2.1V4.8z"/>
	
		<linearGradient id="XMLID_5_" gradientUnits="userSpaceOnUse" x1="1.7141" y1="7.9841" x2="25.7141" y2="36.4841" gradientTransform="matrix(1 0 0 -1 0 45.8961)">
		<stop  offset="0" style="stop-color:#6874E7"/>
		<stop  offset="0.4803" style="stop-color:#747FE9"/>
		<stop  offset="0.9847" style="stop-color:#858EEC"/>
	</linearGradient>
	<rect id="XMLID_383_" x="1" y="9.1" class="st14" width="25.1" height="29.5"/>
	<line id="XMLID_382_" class="st5" x1="11.1" y1="6" x2="16.4" y2="6"/>
	<line id="XMLID_381_" class="st5" x1="17" y1="6" x2="18.6" y2="6"/>
	<path id="XMLID_367_" class="st15" d="M24,2.7h-2c1.2,0,2.1,0.9,2.1,2.1v38c0,1.2-0.9,2.1-2.1,2.1h2c1.2,0,2.1-0.9,2.1-2.1v-38
		C26.1,3.6,25.2,2.7,24,2.7z"/>
	<path id="XMLID_366_" class="st16" d="M3.1,2.7h2C3.9,2.7,3,3.6,3,4.8v38C3,44,4,45,5.1,45h-2C2,45,1,44,1,42.8v-38
		C1,3.6,2,2.7,3.1,2.7z"/>
	<path id="XMLID_173_" class="st5" d="M26.1,6V4.8c0-1.2-0.9-2.1-2.1-2.1H3.1C1.9,2.7,1,3.6,1,4.8v38C1,44,2,45,3.1,45H24
		c1.2,0,2.1-0.9,2.1-2.1V26.3"/>
	<g id="XMLID_188_" class="st7">
		<path id="XMLID_190_" class="st17" d="M23,24.8v-2l-3.2-0.5c-0.2-0.7-0.4-1.3-0.8-1.9l1.9-2.6l-1.4-1.4l-2.6,1.9
			c-0.6-0.4-1.2-0.6-1.9-0.8l-0.5-3.2h-2L12,17.5c-0.7,0.2-1.3,0.4-1.9,0.8l-2.6-1.9l-1.4,1.4L8,20.4c-0.4,0.6-0.6,1.2-0.8,1.9
			L4,22.8v2l3.2,0.5C7.4,26,7.6,26.6,8,27.2l-1.9,2.6l1.4,1.4l2.6-1.9c0.6,0.4,1.2,0.6,1.9,0.8l0.5,3.2h2L15,30
			c0.7-0.2,1.3-0.4,1.9-0.8l2.6,1.9l1.4-1.4L19,27.2c0.4-0.6,0.6-1.2,0.8-1.9L23,24.8z"/>
		<circle id="XMLID_189_" class="st17" cx="13.6" cy="23.8" r="2.9"/>
	</g>
	<path id="XMLID_364_" class="st9" d="M24.7,21.8l1.5-1.1V8.1L24.7,7l-1.4,1.4l1.9,2.6c-0.4,0.6-0.6,1.2-0.8,1.9l-3.2,0.5v2l3.2,0.5
		c0.2,0.7,0.4,1.3,0.8,1.9l-1.9,2.6L24.7,21.8z"/>
	<path id="XMLID_198_" class="st3" d="M41,15.4v-2l-3.2-0.5c-0.2-0.7-0.4-1.3-0.8-1.9l1.9-2.6L37.6,7L35,9c-0.6-0.4-1.2-0.6-1.9-0.8
		L32.6,5h-2l-0.5,3.2c-0.7,0.2-1.3,0.4-1.9,0.8l-2.5-2l-1.4,1.4l1.9,2.6c-0.4,0.6-0.6,1.2-0.8,1.9l-3.2,0.5v2l3.2,0.5
		c0.2,0.7,0.4,1.3,0.8,1.9l-1.9,2.6l1.4,1.4l2.6-1.9c0.6,0.4,1.2,0.6,1.9,0.8l0.5,3.2h2l0.5-3.2c0.7-0.2,1.3-0.4,1.9-0.8l2.6,1.9
		l1.4-1.4L37,17.8c0.4-0.6,0.6-1.2,0.8-1.9L41,15.4z M31.6,17.3c-1.6,0-2.9-1.3-2.9-2.9s1.3-2.9,2.9-2.9c1.6,0,2.9,1.3,2.9,2.9
		S33.2,17.3,31.6,17.3z"/>
	<path id="XMLID_199_" class="st18" d="M31.6,1C39,1,45,7,45,14.4s-6,13.4-13.4,13.4"/>
</g>
<g id="XMLID_113_" class="st0">
	<path id="XMLID_162_" class="st2" d="M9.8,26.6h28.5l7,6c0.1,0,0.1,0,0.1-0.1V5.4c0-0.1-0.1-0.2-0.2-0.2H9.8
		c-0.1,0-0.2,0.1-0.2,0.2v21C9.6,26.5,9.7,26.6,9.8,26.6z"/>
	<path id="XMLID_193_" class="st9" d="M37.2,12.2H9.6v14.2c0,0.1,0.1,0.2,0.2,0.2h27.6V12.4C37.4,12.3,37.3,12.2,37.2,12.2z"/>
	
		<linearGradient id="XMLID_6_" gradientUnits="userSpaceOnUse" x1="0.5031" y1="18.7929" x2="36.3619" y2="18.7929" gradientTransform="matrix(1 0 0 -1 0 45.8961)">
		<stop  offset="0" style="stop-color:#6874E7"/>
		<stop  offset="0.4803" style="stop-color:#747FE9"/>
		<stop  offset="0.9847" style="stop-color:#858EEC"/>
	</linearGradient>
	<path id="XMLID_216_" class="st19" d="M36.2,34.8H7.6l-7,6c-0.1,0-0.1,0-0.1-0.1V13.6c0-0.1,0.1-0.2,0.2-0.2h35.5
		c0.1,0,0.2,0.1,0.2,0.2v21C36.4,34.7,36.3,34.8,36.2,34.8z"/>
	<path id="XMLID_204_" class="st5" d="M38.9,27.1l6.5,5.5c0.1,0,0.1,0,0.1-0.1V5.4c0-0.1-0.1-0.2-0.2-0.2H9.8
		c-0.1,0-0.2,0.1-0.2,0.2v6.4"/>
	<path id="XMLID_715_" class="st3" d="M9.5,27.5l-2.4-1.2H7l-2.3,1.3c-0.1,0.1-0.3,0-0.2-0.2l0.4-2.6c0-0.1,0-0.1,0-0.1L3,22.9
		c-0.1-0.1,0-0.3,0.1-0.3l2.6-0.4c0.1,0,0.1,0,0.1-0.1l1.1-2.4c0.1-0.1,0.2-0.1,0.3,0l1.2,2.4l0.1,0.1l2.6,0.3
		c0.1,0,0.2,0.2,0.1,0.3l-1.9,1.9c0,0-0.1,0.1,0,0.1l0.5,2.6C9.8,27.5,9.6,27.6,9.5,27.5z"/>
	<path id="XMLID_202_" class="st3" d="M20.9,27.5l-2.4-1.2h-0.1l-2.3,1.3c-0.1,0.1-0.3,0-0.2-0.2l0.4-2.6c0-0.1,0-0.1,0-0.1
		l-1.9-1.8c-0.1-0.1,0-0.3,0.1-0.3l2.6-0.4c0.1,0,0.1,0,0.1-0.1l1.1-2.4c0.1-0.1,0.2-0.1,0.3,0l1.2,2.4l0.1,0.1l2.6,0.3
		c0.1,0,0.2,0.2,0.1,0.3l-1.9,1.9c0,0-0.1,0.1,0,0.1l0.5,2.6C21.2,27.5,21,27.6,20.9,27.5z"/>
	<path id="XMLID_203_" class="st3" d="M32.3,27.5L30,26.3h-0.1l-2.3,1.3c-0.1,0.1-0.3,0-0.2-0.2l0.4-2.6c0-0.1,0-0.1,0-0.1l-1.9-1.8
		c-0.1-0.1,0-0.3,0.1-0.3l2.6-0.4c0.1,0,0.1,0,0.1-0.1l1.1-2.4c0.1-0.1,0.2-0.1,0.3,0l1.2,2.4l0.1,0.1l2.6,0.3
		c0.1,0,0.2,0.2,0.1,0.3l-1.9,1.9c0,0-0.1,0.1,0,0.1l0.5,2.6C32.6,27.5,32.5,27.6,32.3,27.5z"/>
</g>
<g id="XMLID_108_" class="st0">
	
		<linearGradient id="XMLID_7_" gradientUnits="userSpaceOnUse" x1="18.8241" y1="12.2542" x2="29.1992" y2="28.8792" gradientTransform="matrix(1 0 0 -1 0 45.8961)">
		<stop  offset="0" style="stop-color:#6874E7"/>
		<stop  offset="0.4803" style="stop-color:#747FE9"/>
		<stop  offset="0.9847" style="stop-color:#858EEC"/>
	</linearGradient>
	<path id="XMLID_718_" class="st20" d="M25.2,25.6v-2.8c0.5-0.2,0.8-0.7,0.8-1.2l0.3-3.9c0-1.8-1.4-3.2-3.2-3.2s-3.2,1.4-3.2,3.2
		l0.3,3.9c0,0.5,0.3,1,0.8,1.2l0.2,0.1v2.6l-4.5,1.6V31l13.1,0.2v-4L25.2,25.6z"/>
	<g id="XMLID_206_" class="st7">
		<path id="XMLID_210_" class="st8" d="M16.3,31.4v-3.5c0-0.3,0.2-0.6,0.5-0.7l4.3-1.5v-2.4"/>
		<path id="XMLID_209_" class="st8" d="M29.7,31.4v-3.5c0-0.3-0.2-0.6-0.5-0.7l-4.3-1.5v-2.4"/>
		<path id="XMLID_208_" class="st8" d="M26.2,17.9c0-1.8-1.4-3.2-3.2-3.2s-3.2,1.4-3.2,3.2l0.3,3.9c0,0.5,0.3,1,0.8,1.2l1.6,1h1
			l1.6-1c0.5-0.2,0.8-0.7,0.8-1.2L26.2,17.9z"/>
		<polyline id="XMLID_207_" class="st8" points="21.1,25.7 22.3,27.1 23.7,27.1 25,25.7 		"/>
	</g>
	<circle id="XMLID_212_" class="st5" cx="23" cy="23" r="15"/>
	<line id="XMLID_214_" class="st5" x1="13.7" y1="31.4" x2="32.6" y2="31.4"/>
	<line id="XMLID_217_" class="st5" x1="23" y1="3.3" x2="23" y2="6.5"/>
	<line id="XMLID_213_" class="st5" x1="32.8" y1="6" x2="31.2" y2="8.7"/>
	<line id="XMLID_218_" class="st5" x1="40" y1="13.2" x2="37.3" y2="14.8"/>
	<line id="XMLID_219_" class="st5" x1="42.7" y1="23" x2="39.5" y2="23"/>
	<line id="XMLID_227_" class="st5" x1="40" y1="32.9" x2="37.3" y2="31.3"/>
	<line id="XMLID_229_" class="st5" x1="32.8" y1="40.1" x2="31.2" y2="37.3"/>
	<line id="XMLID_231_" class="st5" x1="22.9" y1="42.7" x2="22.9" y2="39.5"/>
	<line id="XMLID_232_" class="st5" x1="13.1" y1="40" x2="14.7" y2="37.2"/>
	<line id="XMLID_233_" class="st5" x1="5.9" y1="32.7" x2="8.7" y2="31.2"/>
	<line id="XMLID_234_" class="st5" x1="3.3" y1="22.8" x2="6.5" y2="22.9"/>
	<line id="XMLID_235_" class="st5" x1="6.1" y1="13" x2="8.8" y2="14.6"/>
	<line id="XMLID_236_" class="st5" x1="13.3" y1="5.9" x2="14.9" y2="8.6"/>
	<circle id="XMLID_237_" class="st3" cx="22.9" cy="0.7" r="1.8"/>
	<circle id="XMLID_238_" class="st3" cx="34.1" cy="3.6" r="1.8"/>
	<circle id="XMLID_239_" class="st3" cx="42.3" cy="11.8" r="1.8"/>
	<circle id="XMLID_240_" class="st3" cx="45.3" cy="23" r="1.8"/>
	<circle id="XMLID_241_" class="st3" cx="42.4" cy="34.1" r="1.8"/>
	<circle id="XMLID_242_" class="st3" cx="34.2" cy="42.3" r="1.8"/>
	<circle id="XMLID_243_" class="st3" cx="23" cy="45.3" r="1.8"/>
	<circle id="XMLID_244_" class="st3" cx="11.8" cy="42.3" r="1.8"/>
	<circle id="XMLID_245_" class="st3" cx="3.6" cy="34.1" r="1.8"/>
	<circle id="XMLID_246_" class="st3" cx="0.7" cy="22.9" r="1.8"/>
	<circle id="XMLID_247_" class="st3" cx="3.7" cy="11.8" r="1.8"/>
	<circle id="XMLID_248_" class="st3" cx="11.9" cy="3.6" r="1.8"/>
</g>
<g id="XMLID_220_" class="st0">
	<path id="XMLID_413_" class="st2" d="M44.8,44.7H1.3l0,0V1.5c0-0.1,0.1-0.2,0.2-0.2h43.1c0.1,0,0.2,0.1,0.2,0.2V44.7z"/>
	
		<linearGradient id="XMLID_8_" gradientUnits="userSpaceOnUse" x1="1.6595" y1="40.8429" x2="44.3595" y2="40.8429" gradientTransform="matrix(1 0 0 -1 0 45.8961)">
		<stop  offset="0" style="stop-color:#6874E7"/>
		<stop  offset="0.4803" style="stop-color:#747FE9"/>
		<stop  offset="0.9847" style="stop-color:#858EEC"/>
	</linearGradient>
	<path id="XMLID_409_" class="st21" d="M44.2,8.8H1.9c-0.1,0-0.2-0.1-0.2-0.2V1.5c0-0.1,0.1-0.2,0.2-0.2h42.3c0.1,0,0.2,0.1,0.2,0.2
		v7.1C44.4,8.7,44.3,8.8,44.2,8.8z"/>
	<path id="XMLID_408_" class="st5" d="M16.8,8.8H1.7V1.5c0-0.1,0.1-0.2,0.2-0.2h42.3c0.1,0,0.2,0.1,0.2,0.2v7.3H33.3"/>
	<line id="XMLID_407_" class="st5" x1="18.3" y1="8.8" x2="22.6" y2="8.8"/>
	<line id="XMLID_406_" class="st6" x1="5.6" y1="4.8" x2="7.3" y2="4.8"/>
	<line id="XMLID_405_" class="st6" x1="9" y1="4.8" x2="10.6" y2="4.8"/>
	<line id="XMLID_404_" class="st6" x1="12.4" y1="4.8" x2="14" y2="4.8"/>
	
		<linearGradient id="XMLID_9_" gradientUnits="userSpaceOnUse" x1="19.5856" y1="5.6722" x2="25.4932" y2="5.6722" gradientTransform="matrix(1 0 0 -1 0 45.8961)">
		<stop  offset="0" style="stop-color:#6874E7"/>
		<stop  offset="0.4803" style="stop-color:#747FE9"/>
		<stop  offset="0.9847" style="stop-color:#858EEC"/>
	</linearGradient>
	<path id="XMLID_252_" class="st22" d="M19.6,36v8.3c0,0.1,0.1,0.2,0.2,0.1l2.8-1.1l2.8,1.1c0.1,0,0.2,0,0.2-0.1V36H19.6z"/>
	<path id="XMLID_477_" class="st5" d="M19.6,39v5.3c0,0.1,0.1,0.2,0.2,0.1l2.8-1.1l2.8,1.1c0.1,0,0.2,0,0.2-0.1V39"/>
	<path id="XMLID_253_" class="st9" d="M25.5,36h-5.9v4l2.8-1.5c0.1-0.1,0.3-0.1,0.4,0l2.7,1.4V36z"/>
	<path id="XMLID_201_" class="st3" d="M29.6,40.4l-6.8-3.5c-0.1-0.1-0.3-0.1-0.4,0l-6.7,3.6C15.4,40.7,15,40.4,15,40l1.2-7.5
		c0-0.1,0-0.3-0.1-0.4l-5.5-5.2c-0.3-0.3-0.1-0.7,0.2-0.8l7.5-1.2c0.1,0,0.3-0.1,0.3-0.3l3.3-6.9c0.2-0.3,0.6-0.3,0.8,0l3.5,6.8
		c0.1,0.1,0.2,0.2,0.3,0.2l7.5,1c0.4,0,0.5,0.5,0.3,0.8L29,32c-0.1,0.1-0.2,0.3-0.1,0.4l1.4,7.5C30.3,40.2,29.9,40.5,29.6,40.4z"/>
	<path id="XMLID_256_" class="st18" d="M10.8,40.8c-3-3-4.8-7.1-4.8-11.7s1.9-8.7,4.8-11.7s7.1-4.8,11.7-4.8s8.7,1.9,11.7,4.8
		S39,24.5,39,29.1s-1.9,8.7-4.8,11.7"/>
</g>
<g id="XMLID_276_" class="st0">
	
		<linearGradient id="XMLID_10_" gradientUnits="userSpaceOnUse" x1="4.6782" y1="21.3929" x2="44.1847" y2="21.3929" gradientTransform="matrix(1 0 0 -1 0 45.8961)">
		<stop  offset="0" style="stop-color:#6874E7"/>
		<stop  offset="0.4803" style="stop-color:#747FE9"/>
		<stop  offset="0.9847" style="stop-color:#858EEC"/>
	</linearGradient>
	<circle id="XMLID_251_" class="st23" cx="24.4" cy="24.5" r="19.8"/>
	<circle id="XMLID_254_" class="st1" cx="24.4" cy="24.5" r="14.3"/>
	<circle id="XMLID_255_" class="st3" cx="24.4" cy="24.5" r="3.6"/>
	<line id="XMLID_284_" class="st5" x1="24.4" y1="24.5" x2="8.4" y2="8.3"/>
	<polyline id="XMLID_273_" class="st5" points="5.4,1.7 5.4,5.4 1.8,5.4 	"/>
	<polyline id="XMLID_285_" class="st5" points="8.4,4.6 8.4,8.3 4.7,8.3 	"/>
	<path id="XMLID_282_" class="st18" d="M20.3,16.9c1.9-1.1,4.3-1.4,6.6-0.7c2.3,0.7,4.1,2.2,5.2,4.1c1.1,1.9,1.4,4.3,0.7,6.6
		s-2.2,4.1-4.1,5.2c-1.9,1.1-4.3,1.4-6.6,0.7s-4.1-2.2-5.2-4.1c-1.1-1.9-1.4-4.3-0.7-6.6c0.4-1.5,1.3-2.8,2.3-3.8"/>
	<path id="XMLID_287_" class="st5" d="M21.7,21.8c0.7-0.7,1.6-1.1,2.7-1.1c1.1,0,2,0.4,2.7,1.1s1.1,1.6,1.1,2.7c0,1.1-0.4,2-1.1,2.7
		c-0.7,0.7-1.6,1.1-2.7,1.1c-1.1,0-2-0.4-2.7-1.1c-0.7-0.7-1.1-1.6-1.1-2.7"/>
	<path id="XMLID_279_" class="st5" d="M14.3,14.4c2.6-2.6,6.2-4.2,10.1-4.2c4,0,7.5,1.6,10.1,4.2s4.2,6.2,4.2,10.1
		c0,4-1.6,7.5-4.2,10.1s-6.2,4.2-10.1,4.2c-4,0-7.5-1.6-10.1-4.2c-2.6-2.6-4.2-6.2-4.2-10.1c0-3.3,1.1-6.3,2.9-8.7"/>
</g>
<g id="XMLID_278_" class="st0">
	
		<linearGradient id="XMLID_11_" gradientUnits="userSpaceOnUse" x1="9.7333" y1="30.0429" x2="34.4744" y2="30.0429" gradientTransform="matrix(1 0 0 -1 0 45.8961)">
		<stop  offset="0" style="stop-color:#6874E7"/>
		<stop  offset="0.4803" style="stop-color:#747FE9"/>
		<stop  offset="0.9847" style="stop-color:#858EEC"/>
	</linearGradient>
	<path id="XMLID_388_" class="st24" d="M34.5,17.4v-3.1l-2.6-0.7c-0.2-1.1-0.7-2.1-1.2-3L32.3,8L30,5.8l-2.6,1.5
		c-0.9-0.6-1.9-1-3-1.2l-0.7-2.9h-3.1l-0.7,2.9c-1.1,0.2-2,0.7-2.9,1.2l-2.5-1.5L12.1,8l1.5,2.5c-0.6,0.9-1,1.9-1.2,3l-2.6,0.8v3.1
		l2.6,0.6c0.2,1.1,0.7,2.1,1.2,3L12,23.5l2.2,2.2l2.6-1.4c0.9,0.6,1.9,1,3,1.2l0.7,3h3.1l0.7-3c1.1-0.2,2.1-0.7,3-1.2l2.6,1.5
		l2.2-2.2l-1.6-2.5c0.6-0.9,1-1.9,1.2-3L34.5,17.4z M22,20.3c-2.5,0-4.4-2-4.4-4.4s2-4.4,4.4-4.4c2.5,0,4.4,2,4.4,4.4
		S24.4,20.3,22,20.3z"/>
	<path id="XMLID_595_" class="st3" d="M6.1,11.7L6.1,11.7h-6.3l-0.1,0.1l3.2,4.8h6.7L6.1,11.7z"/>
	<path id="XMLID_374_" class="st5" d="M3,16.6l-3.2-4.8c0,0,0-0.1,0.1-0.1h6.2l0,0l3.6,4.9"/>
	<path id="XMLID_291_" class="st9" d="M13.6,21.1L12,23.5l2.2,2.2l2.6-1.4c0.9,0.6,1.9,1,3,1.2l0.7,3h3.1l0.7-3
		c1.1-0.2,2.1-0.7,3-1.2l2.6,1.5l2.2-2.2l-1.6-2.5c0.6-0.9,1-1.9,1.2-3l2.6-0.7v-2.8h-7.8H26c0.1,0.4,0.2,0.8,0.2,1.3
		c0,2.5-2,4.4-4.4,4.4c-2.5,0-4.4-2-4.4-4.4c0-0.4,0.1-0.9,0.2-1.3h-6h-2v2.9l2.6,0.6C12.6,19.2,13,20.1,13.6,21.1z"/>
	<path id="XMLID_373_" class="st3" d="M11.7,16.6H3v26c0,0.1,0.1,0.2,0.2,0.2H42c0.1,0,0.2-0.1,0.2-0.2v-24l4.1-5.1l0,0h-8.8l0,0
		l-2.7,3.1h-8C26.8,16.6,11.7,16.6,11.7,16.6z"/>
	<path id="XMLID_599_" class="st15" d="M46.2,13.5h-8.8l0,0l0,0l0,0l-2.7,3l-0.1,26c0,0.1-0.1,0.2-0.2,0.2H42c0.1,0,0.2-0.1,0.2-0.2
		v-24L46.2,13.5C46.2,13.6,46.2,13.5,46.2,13.5z"/>
	<path id="XMLID_372_" class="st5" d="M11.7,16.6H3v26c0,0.1,0.1,0.2,0.2,0.2H42c0.1,0,0.2-0.1,0.2-0.2v-24l4.1-5.1l0,0h-8.8l0,0
		l-2.7,3.1h-8C26.8,16.6,11.7,16.6,11.7,16.6z"/>
	<line id="XMLID_371_" class="st5" x1="34.6" y1="42.8" x2="34.6" y2="19"/>
	<line id="XMLID_368_" class="st5" x1="40.3" y1="19" x2="36.9" y2="19"/>
	<polyline id="XMLID_307_" class="st5" points="15.4,29.3 17.6,31.6 22.6,26.6 	"/>
	<path id="XMLID_308_" class="st12" d="M25.3,29.1c0,3.5-2.8,6.3-6.3,6.3s-6.3-2.8-6.3-6.3s2.8-6.3,6.3-6.3"/>
	<path id="XMLID_288_" class="st5" d="M19,22.8c3.5,0,6.3,2.8,6.3,6.3"/>
</g>
<g id="XMLID_289_" class="st0">
	<circle id="XMLID_280_" class="st3" cx="25" cy="11.8" r="5.6"/>
	<path id="XMLID_306_" class="st1" d="M42.8,28.6l-0.5-0.1c1.2-0.2,2.1-1.3,2.1-2.6c0-1.4-1.2-2.6-2.6-2.6h-10h-6.3
		c0,0,2.2-5.5,2.2-8c0-1.2,0.3-3.6-0.5-4.7c-0.3-0.5-2.4-0.5-2.7,0c0,0-2,6.2-3.3,8c-0.7,1-3.6,4.8-3.6,4.8H14v16.9h2.6
		c0.6,0,1.1,0.2,1.5,0.6l2.6,2.7c0.5,0.5,1.1,0.8,1.8,0.8h14.9c1.4,0,2.6-1.2,2.6-2.6c0-1.1-0.8-2.1-1.8-2.5l1.9-0.2
		c1.4,0,2.6-1.2,2.6-2.6c0-1.1-0.7-2-1.6-2.4l1.8-0.2c1.4,0,2.6-1.2,2.6-2.6C45.4,29.7,44.3,28.6,42.8,28.6z"/>
	<g id="XMLID_290_" class="st25">
		<path id="XMLID_299_" class="st26" d="M37.3,41.8H22.4c-0.7,0-1.3-0.3-1.8-0.8L18,38.4c-0.4-0.4-0.9-0.6-1.5-0.6h-2.6v2.5h2.6
			c0.6,0,1.1,0.2,1.5,0.6l2.6,2.7c0.5,0.5,1.1,0.8,1.8,0.8h14.9c1.4,0,2.6-1.2,2.6-2.6c0-0.5-0.1-0.9-0.3-1.3
			C39.2,41.2,38.3,41.8,37.3,41.8z"/>
	</g>
	<path id="XMLID_747_" class="st5" d="M38.2,33.8h4.5c1.4,0,2.6-1.2,2.6-2.6l0,0c0-1.4-1.2-2.6-2.6-2.6h-4.5"/>
	<path id="XMLID_746_" class="st5" d="M33.6,39.1h6.3c1.4,0,2.6-1.2,2.6-2.6l0,0c0-1.4-1.2-2.6-2.6-2.6h-6.3"/>
	<path id="XMLID_745_" class="st5" d="M34.7,39.1h2.5c1.4,0,2.6,1.2,2.6,2.6l0,0c0,1.4-1.2,2.6-2.6,2.6H22.3c-0.7,0-1.3-0.3-1.8-0.8
		l-2.6-2.7c-0.4-0.4-0.9-0.6-1.5-0.6h-1.6"/>
	<path id="XMLID_744_" class="st5" d="M33.6,28.6h8.1c1.4,0,2.6-1.2,2.6-2.6l0,0c0-1.4-1.2-2.6-2.6-2.6h-10h-6.3c0,0,2.2-5.5,2.2-8
		c0-1.2,0.3-3.6-0.5-4.7c-0.3-0.5-2.4-0.5-2.7,0c0,0-2,6.2-3.3,8c-0.7,1-3.6,4.8-3.6,4.8h-1.7"/>
	
		<linearGradient id="XMLID_12_" gradientUnits="userSpaceOnUse" x1="0.825" y1="3.1761" x2="14.9917" y2="25.5095" gradientTransform="matrix(1 0 0 -1 0 45.8961)">
		<stop  offset="0" style="stop-color:#6874E7"/>
		<stop  offset="0.4803" style="stop-color:#747FE9"/>
		<stop  offset="0.9847" style="stop-color:#858EEC"/>
	</linearGradient>
	<path id="XMLID_281_" class="st27" d="M14.9,20.5H0.6v22.3h14.3c0.2,0,0.3-0.1,0.3-0.3V20.7C15.2,20.6,15,20.5,14.9,20.5z"/>
	<line id="XMLID_312_" class="st5" x1="25" y1="2.7" x2="25" y2="5.2"/>
	<line id="XMLID_311_" class="st5" x1="30.8" y1="1.7" x2="28.3" y2="6.1"/>
	<line id="XMLID_313_" class="st5" x1="32.9" y1="7.2" x2="30.7" y2="8.5"/>
	<line id="XMLID_314_" class="st5" x1="36.6" y1="11.8" x2="31.6" y2="11.8"/>
	<line id="XMLID_315_" class="st5" x1="32.9" y1="16.3" x2="30.7" y2="15.1"/>
	<line id="XMLID_319_" class="st5" x1="17.1" y1="16.3" x2="19.3" y2="15"/>
	<line id="XMLID_322_" class="st5" x1="13.4" y1="11.7" x2="18.4" y2="11.7"/>
	<line id="XMLID_325_" class="st5" x1="17.1" y1="7.2" x2="19.3" y2="8.4"/>
	<line id="XMLID_327_" class="st5" x1="19.3" y1="1.7" x2="21.8" y2="6"/>
</g>
<g id="XMLID_36_" class="st0">
	
		<linearGradient id="XMLID_13_" gradientUnits="userSpaceOnUse" x1="1.6031" y1="22.8929" x2="44.4032" y2="22.8929" gradientTransform="matrix(1 0 0 -1 0 45.8961)">
		<stop  offset="0" style="stop-color:#6874E7"/>
		<stop  offset="0.4803" style="stop-color:#747FE9"/>
		<stop  offset="0.9847" style="stop-color:#858EEC"/>
	</linearGradient>
	<path id="XMLID_61_" class="st28" d="M44.4,25.6v-5.4L39.8,19c-0.4-1.8-1.2-3.6-2.1-5.1l2.7-4.4l-3.8-3.9l-4.5,2.7
		c-1.6-1-3.3-1.7-5.1-2.1l-1.3-4.9h-5.4L19,6c-1.8,0.4-3.5,1.1-5.1,2.1L9.6,5.5L5.7,9.3l2.6,4.3c-1,1.6-1.7,3.3-2.1,5.1l-4.6,1.4
		v5.4l4.6,1.1c0.4,1.8,1.2,3.6,2.1,5.1l-2.7,4.2l3.8,3.9l4.5-2.4c1.6,1,3.3,1.7,5.1,2.1l1.3,5.2h5.4l1.2-5.2
		c1.8-0.4,3.6-1.2,5.1-2.1l4.5,2.6l3.9-3.8L37.7,32c1-1.6,1.7-3.3,2.1-5.1L44.4,25.6z M22.8,35c-6.7,0-12.1-5.4-12.1-12.1
		s5.4-12.1,12.1-12.1S34.9,16.3,34.9,23C34.9,29.6,29.5,35,22.8,35z"/>
	<path id="XMLID_412_" class="st9" d="M39,36.8l-6.5-6.6c-1.3,1.7-3,3.1-5,3.9l3.8,3.9c0.2-0.1,0.5-0.3,0.7-0.4l4,2.3L39,36.8z"/>
	<g id="XMLID_158_" class="st7">
		<path id="XMLID_318_" class="st29" d="M36.7,41.4l4.3-4.6l-11.7-12l1.6-4.5v-0.1l-4.7-4.7c-0.2,0-0.4-0.1-0.6-0.2l-4.3,0.5
			c-0.1,0-0.1,0.2-0.1,0.3l3.8,3.8l-1.4,3.8L19.7,25l-3.8-3.8c-0.1-0.1-0.2-0.1-0.3,0.1L15,25.5c0,0.2,0.1,0.4,0.2,0.6l4.9,5h0.1
			l4.9-1.7L36.7,41.4z"/>
	</g>
	<path id="XMLID_317_" class="st5" d="M26.3,34.5c-1.1,0.3-2.2,0.5-3.4,0.5c-6.6,0-12-5.4-12-12s5.4-12,12-12s12,5.4,12,12
		c0,1.1-0.2,2.2-0.4,3.2"/>
	<path id="XMLID_471_" class="st5" d="M41,36.8L29.1,24.9l1.6-4.5v-0.1l-4.8-4.8h-0.1l-4.7,0.4c-0.1,0-0.1,0.2-0.1,0.3l3.5,3.7
		l-1.4,3.8L19.4,25l-3.5-3.7c-0.1-0.1-0.2-0.1-0.3,0.1L15,26.2v0.1l4.8,4.8h0.1l4.9-1.7l11.9,11.9"/>
	<line id="XMLID_329_" class="st5" x1="22" y1="6.2" x2="24" y2="6.2"/>
	<line id="XMLID_323_" class="st5" x1="34.2" y1="10.5" x2="35.6" y2="11.9"/>
	<line id="XMLID_330_" class="st5" x1="39.8" y1="22.1" x2="39.8" y2="24.1"/>
	<line id="XMLID_332_" class="st5" x1="23.9" y1="39.9" x2="22" y2="39.9"/>
	<line id="XMLID_333_" class="st5" x1="11.8" y1="35.7" x2="10.4" y2="34.3"/>
	<line id="XMLID_334_" class="st5" x1="6.1" y1="24.1" x2="6.1" y2="22.1"/>
	<line id="XMLID_337_" class="st5" x1="10.3" y1="11.9" x2="11.7" y2="10.5"/>
</g>
<g id="XMLID_331_" class="st0">
	<path id="XMLID_464_" class="st2" d="M44.8,40.6H1.3l0,0V3.4c0-0.1,0.1-0.2,0.2-0.2h43.1c0.1,0,0.2,0.1,0.2,0.2V40.6z"/>
	
		<linearGradient id="XMLID_14_" gradientUnits="userSpaceOnUse" x1="1.6595" y1="38.9429" x2="44.3595" y2="38.9429" gradientTransform="matrix(1 0 0 -1 0 45.8961)">
		<stop  offset="0" style="stop-color:#6874E7"/>
		<stop  offset="0.4803" style="stop-color:#747FE9"/>
		<stop  offset="0.9847" style="stop-color:#858EEC"/>
	</linearGradient>
	<path id="XMLID_463_" class="st30" d="M44.2,10.7H1.9c-0.1,0-0.2-0.1-0.2-0.2V3.4c0-0.1,0.1-0.2,0.2-0.2h42.3
		c0.1,0,0.2,0.1,0.2,0.2v7.1C44.4,10.6,44.3,10.7,44.2,10.7z"/>
	<path id="XMLID_454_" class="st5" d="M16.8,10.7H1.7V3.4c0-0.1,0.1-0.2,0.2-0.2h42.3c0.1,0,0.2,0.1,0.2,0.2v7.3H33.3"/>
	<line id="XMLID_439_" class="st5" x1="18.3" y1="10.7" x2="22.6" y2="10.7"/>
	<line id="XMLID_429_" class="st6" x1="5.6" y1="6.6" x2="7.3" y2="6.6"/>
	<line id="XMLID_418_" class="st6" x1="9" y1="6.6" x2="10.6" y2="6.6"/>
	<line id="XMLID_417_" class="st6" x1="12.4" y1="6.6" x2="14" y2="6.6"/>
	<g id="XMLID_348_" class="st7">
		<path id="XMLID_350_" class="st8" d="M14.1,21.9H39c0.1,0,0.2,0.1,0.2,0.3l-3.6,12.9c0,0.1-0.1,0.1-0.2,0.1H14.6
			c-0.1,0-0.2-0.1-0.2-0.1L9.8,18.6c0-0.1-0.1-0.1-0.2-0.1H4"/>
		<line id="XMLID_351_" class="st8" x1="15.6" y1="26.3" x2="35.1" y2="26.3"/>
		<line id="XMLID_375_" class="st8" x1="17.1" y1="30.7" x2="33.4" y2="30.7"/>
		<circle id="XMLID_328_" class="st29" cx="19.1" cy="40.1" r="2.7"/>
		<circle id="XMLID_48_" class="st29" cx="30.7" cy="40.1" r="2.7"/>
		<circle id="XMLID_363_" class="st8" cx="19.1" cy="40.1" r="2.7"/>
		<circle id="XMLID_359_" class="st8" cx="30.7" cy="40.1" r="2.7"/>
	</g>
</g>
<g id="XMLID_400_" class="st0">
	<g id="XMLID_341_" class="st7">
		
			<linearGradient id="XMLID_15_" gradientUnits="userSpaceOnUse" x1="4.2032" y1="26.4554" x2="38.5032" y2="26.4554" gradientTransform="matrix(1 0 0 -1 0 45.8961)">
			<stop  offset="0" style="stop-color:#6874E7"/>
			<stop  offset="0.4803" style="stop-color:#747FE9"/>
			<stop  offset="0.9847" style="stop-color:#858EEC"/>
		</linearGradient>
		<path id="XMLID_497_" class="st31" d="M34.2,6H8.7l-3,4.8l-1.5,2.6l17,19.4c0.1,0.1,0.1,0.1,0.2,0l17.1-19.4L34.2,6z"/>
		<path id="XMLID_496_" class="st8" d="M5.7,10.8l-1.5,2.6l17,19.4c0.1,0.1,0.1,0.1,0.2,0l17.1-19.4L34.2,6H13"/>
		<line id="XMLID_495_" class="st8" x1="4.2" y1="13.5" x2="38.5" y2="13.5"/>
		<line id="XMLID_539_" class="st8" x1="21.3" y1="33" x2="13.5" y2="15.1"/>
		<line id="XMLID_494_" class="st8" x1="21.3" y1="32.5" x2="29" y2="15.1"/>
		<line id="XMLID_491_" class="st8" x1="21.3" y1="15.1" x2="21.3" y2="32.5"/>
		<polyline id="XMLID_484_" class="st8" points="17.5,5.8 13,11.9 11.8,10.4 		"/>
		<polyline id="XMLID_535_" class="st8" points="25.7,5.8 21.2,11.9 17.1,6.7 		"/>
		<polyline id="XMLID_468_" class="st8" points="33.9,5.8 29.3,11.9 25.3,6.7 		"/>
		<g id="XMLID_343_">
			<line id="XMLID_466_" class="st8" x1="8.7" y1="1.3" x2="8.7" y2="3.5"/>
			<line id="XMLID_416_" class="st8" x1="12.9" y1="3.6" x2="11" y2="4.8"/>
			<line id="XMLID_414_" class="st8" x1="12.9" y1="8.4" x2="11" y2="7.3"/>
			<line id="XMLID_411_" class="st8" x1="8.8" y1="10.8" x2="8.8" y2="8.6"/>
			<line id="XMLID_349_" class="st8" x1="4.6" y1="8.5" x2="6.6" y2="7.3"/>
			<line id="XMLID_344_" class="st8" x1="4.6" y1="3.7" x2="6.5" y2="4.8"/>
		</g>
		<circle id="XMLID_342_" class="st29" cx="8.7" cy="6" r="1.9"/>
	</g>
	<line id="XMLID_356_" class="st5" x1="3.1" y1="21.3" x2="5.8" y2="21.3"/>
	<line id="XMLID_362_" class="st5" x1="35.2" y1="21.3" x2="42.9" y2="21.3"/>
	<line id="XMLID_353_" class="st5" x1="3.1" y1="29.1" x2="5.8" y2="29.1"/>
	<line id="XMLID_358_" class="st5" x1="3.1" y1="36.9" x2="5.8" y2="36.9"/>
	<line id="XMLID_360_" class="st5" x1="3.1" y1="44.7" x2="5.8" y2="44.7"/>
	<line id="XMLID_379_" class="st5" x1="9.6" y1="29.1" x2="14.3" y2="29.1"/>
	<line id="XMLID_387_" class="st5" x1="29.5" y1="29.1" x2="40.6" y2="29.1"/>
	<line id="XMLID_378_" class="st5" x1="9.6" y1="36.9" x2="14.7" y2="36.9"/>
	<line id="XMLID_380_" class="st5" x1="17.2" y1="36.9" x2="40.6" y2="36.9"/>
	<line id="XMLID_376_" class="st5" x1="9.6" y1="44.7" x2="22.8" y2="44.7"/>
	<line id="XMLID_385_" class="st5" x1="32.5" y1="44.7" x2="25.8" y2="44.7"/>
</g>
<g id="XMLID_391_" class="st0">
	<path id="XMLID_447_" class="st2" d="M43.3,43.2H2.7l0,0V3c0-0.1,0.1-0.2,0.2-0.2H43c0.1,0,0.2,0.1,0.2,0.2L43.3,43.2L43.3,43.2z"
		/>
	
		<linearGradient id="XMLID_16_" gradientUnits="userSpaceOnUse" x1="3.1031" y1="39.5929" x2="42.9032" y2="39.5929" gradientTransform="matrix(1 0 0 -1 0 45.8961)">
		<stop  offset="0" style="stop-color:#6874E7"/>
		<stop  offset="0.4803" style="stop-color:#747FE9"/>
		<stop  offset="0.9847" style="stop-color:#858EEC"/>
	</linearGradient>
	<path id="XMLID_446_" class="st32" d="M42.7,9.8H3.3c-0.1,0-0.2-0.1-0.2-0.2V3c0-0.1,0.1-0.2,0.2-0.2h39.4c0.1,0,0.2,0.1,0.2,0.2
		v6.6C42.9,9.7,42.8,9.8,42.7,9.8z"/>
	<path id="XMLID_445_" class="st5" d="M17.3,9.8H3.1V3c0-0.1,0.1-0.2,0.2-0.2h39.4c0.1,0,0.2,0.1,0.2,0.2v6.8H32.6"/>
	<line id="XMLID_443_" class="st5" x1="18.6" y1="9.8" x2="22.7" y2="9.8"/>
	<line id="XMLID_442_" class="st6" x1="6.8" y1="6" x2="8.3" y2="6"/>
	<line id="XMLID_441_" class="st6" x1="10" y1="6" x2="11.5" y2="6"/>
	<line id="XMLID_438_" class="st6" x1="13.1" y1="6" x2="14.6" y2="6"/>
	<path id="XMLID_423_" class="st3" d="M27.5,22.5L20,26.8c-0.1,0.1-0.3,0-0.3-0.2V18c0-0.2,0.2-0.3,0.3-0.2l7.5,4.3
		C27.7,22.2,27.7,22.4,27.5,22.5L20,26.8c-0.1,0.1-0.3,0-0.3-0.2V18c0-0.2,0.2-0.3,0.3-0.2l7.5,4.3C27.7,22.2,27.7,22.4,27.5,22.5z"
		/>
	<line id="XMLID_426_" class="st18" x1="20.7" y1="36.4" x2="39.9" y2="36.4"/>
	<line id="XMLID_425_" class="st5" x1="7.4" y1="36.4" x2="18.7" y2="36.4"/>
	<line id="XMLID_427_" class="st5" x1="18.2" y1="38.4" x2="18.2" y2="34.4"/>
</g>
<g id="XMLID_320_" class="st0">
	<g id="XMLID_424_" class="st7">
		<path id="XMLID_512_" class="st33" d="M41.3,21.9c0-1.5-1.2-2.7-2.7-2.7v5.4C40.1,24.7,41.3,23.4,41.3,21.9z"/>
		<path id="XMLID_511_" class="st33" d="M18.8,32L18.8,32c1.7,0,3-1.4,3-3v-1.3L17,26.1l-0.6,5.3L18.8,32z"/>
		<path id="XMLID_510_" class="st29" d="M14.8,38.2h-0.2c-0.1,0-0.2-0.1-0.2-0.2V27.7h4.4v6.6C18.7,36.5,16.9,38.2,14.8,38.2z"/>
		<path id="XMLID_509_" class="st8" d="M21.8,27.7V29c0,1.7-1.4,3-3,3l0,0"/>
		<rect id="XMLID_450_" x="8.1" y="18.7" class="st33" width="3.1" height="6.5"/>
		<polyline id="XMLID_449_" class="st8" points="11.2,25.2 8.1,25.2 8.1,18.7 11.2,18.7 		"/>
		<path id="XMLID_437_" class="st33" d="M38.6,31.3V12.6c0-0.1-0.1-0.2-0.2-0.2l-15.8,4.5l0.3,10.2l15.5,4.4
			C38.5,31.5,38.6,31.4,38.6,31.3z"/>
		<path id="XMLID_436_" class="st8" d="M22.6,16.9l15.8-4.5c0.1,0,0.2,0.1,0.2,0.2v18.7c0,0.1-0.1,0.2-0.2,0.2l-15.5-4.4"/>
		<rect id="XMLID_435_" x="14.3" y="27.7" class="st34" width="4.4" height="1.1"/>
		<path id="XMLID_434_" class="st29" d="M23.2,27.7H10.8c-0.1,0-0.2-0.1-0.2-0.2V16.4c0-0.1,0.1-0.2,0.2-0.2h12.4
			c0.1,0,0.2,0.1,0.2,0.2v11.1C23.4,27.6,23.3,27.7,23.2,27.7z"/>
		<line id="XMLID_433_" class="st8" x1="17" y1="23.5" x2="23.4" y2="23.5"/>
		<line id="XMLID_432_" class="st8" x1="15.5" y1="23.5" x2="13.8" y2="23.5"/>
		<path id="XMLID_431_" class="st8" d="M38.6,19.2c1.5,0,2.7,1.2,2.7,2.7s-1.2,2.7-2.7,2.7"/>
	</g>
	<path id="XMLID_469_" class="st18" d="M7.1,38.9C3,34.8,0.5,29.2,0.5,23S3,11.2,7.1,7.1"/>
	<path id="XMLID_467_" class="st5" d="M38.9,38.9c-4.1,4.1-9.7,6.6-15.9,6.6S11.2,43,7.1,38.9"/>
	<path id="XMLID_465_" class="st18" d="M38.9,7.1c4.1,4.1,6.6,9.7,6.6,15.9S43,34.8,38.9,38.9"/>
	<path id="XMLID_461_" class="st5" d="M7.1,7.1C11.2,3,16.8,0.5,23,0.5S34.8,3,38.9,7.1"/>
</g>
<g id="XMLID_401_" class="st0">
	<path id="XMLID_523_" class="st2" d="M37.8,1.2H2.4c-0.1,0-0.2,0.1-0.2,0.2v43.4H38V1.4C38,1.3,37.9,1.2,37.8,1.2z"/>
	<path id="XMLID_522_" class="st35" d="M37.8,1.2H34c0.1,0,0.2,0.1,0.2,0.2v43.4H38V1.4C38,1.3,37.9,1.2,37.8,1.2z"/>
	<polygon id="XMLID_419_" class="st3" points="2.2,44.8 2.2,40.6 2.8,40.6 14.8,28.4 21.9,35.4 38,20.1 38,44.8 	"/>
	
		<linearGradient id="XMLID_17_" gradientUnits="userSpaceOnUse" x1="0.453" y1="37.1867" x2="44.1883" y2="47.1697" gradientTransform="matrix(1 0 0 -1 0 45.8961)">
		<stop  offset="0" style="stop-color:#6874E7"/>
		<stop  offset="0.4803" style="stop-color:#747FE9"/>
		<stop  offset="0.9847" style="stop-color:#858EEC"/>
	</linearGradient>
	<path id="XMLID_521_" class="st36" d="M37.8,1.2H2.4c-0.1,0-0.2,0.1-0.2,0.3v5.7H38V1.5C38,1.3,37.9,1.2,37.8,1.2z"/>
	<path id="XMLID_520_" class="st5" d="M37.6,7.2V1.6c0-0.1-0.1-0.2-0.2-0.2H2.9c-0.1,0-0.2,0.1-0.2,0.2v5.6h23.2"/>
	<line id="XMLID_519_" class="st6" x1="5.7" y1="4.5" x2="6.9" y2="4.5"/>
	<line id="XMLID_518_" class="st6" x1="8.5" y1="4.5" x2="9.7" y2="4.5"/>
	<line id="XMLID_517_" class="st6" x1="11.4" y1="4.5" x2="12.6" y2="4.5"/>
	<polyline id="XMLID_516_" class="st5" points="33.4,18.8 6.6,18.8 6.6,9.6 	"/>
	<line id="XMLID_420_" class="st5" x1="27.4" y1="7.2" x2="29.3" y2="7.2"/>
	<polyline id="XMLID_472_" class="st5" points="43.6,13.9 21.9,35.4 14.8,28.4 2.8,40.6 2.2,40.6 	"/>
	<polyline id="XMLID_481_" class="st5" points="40.4,13.6 43.8,13.6 43.8,17 	"/>
	<line id="XMLID_480_" class="st5" x1="38" y1="19.4" x2="38" y2="44.8"/>
	<line id="XMLID_483_" class="st5" x1="6.5" y1="44.8" x2="6.5" y2="36.9"/>
	<line id="XMLID_479_" class="st5" x1="11" y1="44.8" x2="11" y2="32.3"/>
	<line id="XMLID_485_" class="st5" x1="15.6" y1="44.8" x2="15.6" y2="28.9"/>
	<line id="XMLID_486_" class="st5" x1="20.1" y1="44.8" x2="20.1" y2="33.9"/>
	<line id="XMLID_488_" class="st5" x1="24.6" y1="44.8" x2="24.6" y2="32.9"/>
	<line id="XMLID_489_" class="st5" x1="29.2" y1="44.8" x2="29.2" y2="28.2"/>
	<line id="XMLID_490_" class="st5" x1="33.7" y1="44.8" x2="33.7" y2="23.9"/>
</g>
<g id="XMLID_428_" class="st0">
	<g id="XMLID_422_" class="st7">
		<path id="XMLID_478_" class="st37" d="M43.7,36.6H2.3l0,0V1.2C2.3,1.1,2.4,1,2.5,1h41c0.1,0,0.2,0.1,0.2,0.2V36.6z"/>
		
			<linearGradient id="XMLID_18_" gradientUnits="userSpaceOnUse" x1="2.7031" y1="41.3429" x2="43.3609" y2="41.3429" gradientTransform="matrix(1 0 0 -1 0 45.8961)">
			<stop  offset="0" style="stop-color:#6874E7"/>
			<stop  offset="0.4803" style="stop-color:#747FE9"/>
			<stop  offset="0.9847" style="stop-color:#858EEC"/>
		</linearGradient>
		<path id="XMLID_476_" class="st38" d="M43.1,8.1H2.9C2.8,8.1,2.7,8,2.7,7.9V1.2C2.7,1.1,2.8,1,2.9,1h40.3c0.1,0,0.2,0.1,0.2,0.2
			v6.7C43.3,8,43.3,8.1,43.1,8.1z"/>
		<path id="XMLID_475_" class="st8" d="M17.1,8.1H2.7V1.2C2.7,1.1,2.8,1,2.9,1h40.3c0.1,0,0.2,0.1,0.2,0.2v6.9H32.8"/>
		<line id="XMLID_474_" class="st8" x1="18.5" y1="8.1" x2="22.7" y2="8.1"/>
		<line id="XMLID_473_" class="st17" x1="6.5" y1="4.3" x2="8" y2="4.3"/>
		<line id="XMLID_462_" class="st17" x1="9.7" y1="4.3" x2="11.2" y2="4.3"/>
		<line id="XMLID_460_" class="st17" x1="12.9" y1="4.3" x2="14.5" y2="4.3"/>
	</g>
	<path id="XMLID_421_" class="st3" d="M22.8,30.6L22.8,30.6c-1.7,0-3.1-1.4-3.1-3.1v-5.6c0-1.7,1.4-3.1,3.1-3.1l0,0
		c1.7,0,3.1,1.4,3.1,3.1v5.6C26,29.1,24.6,30.6,22.8,30.6z"/>
	<path id="XMLID_451_" class="st3" d="M23,41.6L23,41.6c-1.7,0-3.1-1.4-3.1-3.1v-5.6c0-1.7,1.4-3.1,3.1-3.1l0,0
		c1.7,0,3.1,1.4,3.1,3.1v5.6C26.2,40.2,24.7,41.6,23,41.6z"/>
	<g id="XMLID_502_" class="st7">
		<path id="XMLID_499_" class="st8" d="M22.8,33.9L22.8,33.9c-2.7,0-4.9-2.2-4.9-4.9v-8.8c0-2.7,2.2-4.9,4.9-4.9l0,0
			c2.7,0,4.9,2.2,4.9,4.9v5"/>
		<path id="XMLID_500_" class="st8" d="M22.8,26.3L22.8,26.3c2.7,0,4.9,2.2,4.9,4.9V40c0,2.7-2.2,4.9-4.9,4.9l0,0
			c-2.7,0-4.9-2.2-4.9-4.9v-5"/>
		<line id="XMLID_501_" class="st8" x1="22.8" y1="21.1" x2="22.8" y2="24.2"/>
		<line id="XMLID_498_" class="st8" x1="22.8" y1="37" x2="22.8" y2="40.1"/>
		<line id="XMLID_507_" class="st8" x1="22.8" y1="29" x2="22.8" y2="32.1"/>
	</g>
</g>
<g id="XMLID_163_" class="st0">
	<path id="XMLID_324_" class="st3" d="M18.6,34.9v-5c0.8-0.4,1.4-1.3,1.4-2.2l0.6-7c0-3.2-2.6-5.8-5.8-5.8S9,17.5,9,20.7l0.6,7
		c0.1,0.9,0.6,1.8,1.5,2.2l0.4,0.2v4.7l-8.2,3v7L26.8,45v-7.3L18.6,34.9z"/>
	<g id="XMLID_550_" class="st7">
		<line id="XMLID_557_" class="st8" x1="9" y1="2" x2="9" y2="4.6"/>
		<line id="XMLID_555_" class="st8" x1="13.7" y1="4.7" x2="11.5" y2="6"/>
		<line id="XMLID_554_" class="st8" x1="13.7" y1="10.1" x2="11.5" y2="8.9"/>
		<line id="XMLID_553_" class="st8" x1="9" y1="12.9" x2="9" y2="10.3"/>
		<line id="XMLID_552_" class="st8" x1="4.3" y1="10.2" x2="6.5" y2="8.9"/>
		<line id="XMLID_551_" class="st8" x1="4.2" y1="4.8" x2="6.5" y2="6"/>
	</g>
	
		<linearGradient id="XMLID_19_" gradientUnits="userSpaceOnUse" x1="21.8394" y1="28.3926" x2="45.8395" y2="46.3926" gradientTransform="matrix(1 0 0 -1 0 45.8961)">
		<stop  offset="0" style="stop-color:#6874E7"/>
		<stop  offset="0.4803" style="stop-color:#747FE9"/>
		<stop  offset="0.9847" style="stop-color:#858EEC"/>
	</linearGradient>
	<path id="XMLID_534_" class="st39" d="M46.1,15.1H27.3l-4.6,4h-0.1v-18C22.6,1,22.7,1,22.7,1h23.4c0.1,0,0.1,0.1,0.1,0.1V15
		C46.3,15.1,46.2,15.1,46.1,15.1z"/>
	<g id="XMLID_524_" class="st7">
		<g id="XMLID_558_">
			<path id="XMLID_562_" class="st8" d="M2.6,45v-6.3c0-0.6,0.4-1.1,0.9-1.3l7.7-2.6v-4.3"/>
			<path id="XMLID_561_" class="st8" d="M26.8,45v-6.3c0-0.6-0.4-1.1-0.9-1.3l-7.7-2.6v-4.3"/>
			<path id="XMLID_560_" class="st8" d="M20.6,20.6c0-3.2-2.6-5.8-5.8-5.8S9,17.4,9,20.6l0.6,7c0.1,0.9,0.6,1.8,1.5,2.2l2.8,1.9h1.9
				l2.9-1.9c0.8-0.4,1.4-1.3,1.5-2.2L20.6,20.6z"/>
			<polyline id="XMLID_559_" class="st8" points="11.3,34.8 13.5,37.2 16.1,37.2 18.2,34.8 			"/>
		</g>
		<line id="XMLID_556_" class="st8" x1="-0.2" y1="45" x2="29.6" y2="45"/>
	</g>
	<line id="XMLID_529_" class="st6" x1="25.8" y1="4.3" x2="42.8" y2="4.3"/>
	<line id="XMLID_527_" class="st6" x1="25.9" y1="8.1" x2="42.9" y2="8.1"/>
	<line id="XMLID_530_" class="st6" x1="26.1" y1="11.9" x2="36.3" y2="11.9"/>
</g>
<g id="XMLID_455_" class="st0">
	<path id="XMLID_575_" class="st5" d="M14.4,15.4c0.7,1.1,1.1,2.2,1.3,3.2"/>
	
		<linearGradient id="XMLID_20_" gradientUnits="userSpaceOnUse" x1="8.2032" y1="14.8554" x2="37.8782" y2="14.8554" gradientTransform="matrix(1 0 0 -1 0 45.8961)">
		<stop  offset="0" style="stop-color:#6874E7"/>
		<stop  offset="0.4803" style="stop-color:#747FE9"/>
		<stop  offset="0.9847" style="stop-color:#858EEC"/>
	</linearGradient>
	<path id="XMLID_503_" class="st40" d="M37.8,34L20.1,16.3c-0.1-0.1-0.2-0.1-0.2-0.1l-8.5,3.1c-0.1,0-0.1,0.1-0.1,0.1l-0.3,1l-1.1,3
		L8.2,28c0,0.1,0,0.2,0.1,0.2l17.6,17.6c0.1,0.1,0.2,0.1,0.3,0l11.6-11.6C37.9,34.2,37.9,34.1,37.8,34z M15.2,23.2
		c-0.5,0.5-1.4,0.5-1.9,0s-0.5-1.4,0-1.9s1.4-0.5,1.9,0C15.7,21.9,15.7,22.7,15.2,23.2z"/>
	<path id="XMLID_547_" class="st6" d="M17.6,27.7l-0.8,0.8c-0.4,0.4-0.4,1.1,0,1.5l0,0c0.4,0.4,1.1,0.4,1.5,0l1.4-1.4
		c0.4-0.4,0.4-1.1,0-1.5l0,0L19.5,27l0,0c-0.4-0.4-0.4-1.1,0-1.5l1.4-1.4c0.4-0.4,1.1-0.4,1.5,0l0,0c0.4,0.4,0.4,1.1,0,1.5l-0.8,0.8
		"/>
	<g id="XMLID_536_" class="st7">
		<rect id="XMLID_453_" x="16" y="5.6" class="st29" width="25.9" height="3.4"/>
		<rect id="XMLID_456_" x="28.1" y="8.9" class="st29" width="3.4" height="6.3"/>
		<rect id="XMLID_457_" x="35.9" y="8.9" class="st29" width="3.4" height="8.1"/>
		<polyline id="XMLID_345_" class="st8" points="18.6,8.9 42,8.9 42,5.6 17.1,5.6 		"/>
		<path id="XMLID_546_" class="st29" d="M10,15.7h6.3c0.6,0,1-0.5,1-1V1.1c0-0.6-0.5-1-1-1H10c-0.6,0-1,0.5-1,1v13.6
			C9,15.2,9.5,15.7,10,15.7z"/>
		<polyline id="XMLID_541_" class="st8" points="39.4,8.9 39.4,16.9 35.8,16.9 35.8,10.1 		"/>
		<polyline id="XMLID_538_" class="st8" points="31.5,8.9 31.5,15.3 28.1,15.3 28.1,10.1 		"/>
		<path id="XMLID_540_" class="st8" d="M9,3.9c-2.2,0-4,1.8-4,4s1.8,4,4,4"/>
		<line id="XMLID_537_" class="st8" x1="14.6" y1="7.9" x2="11.8" y2="7.9"/>
	</g>
	<path id="XMLID_548_" class="st6" d="M25.8,39L25,38.1c-0.4-0.4-0.4-1.1,0-1.5l4.2-4.2c0.4-0.4,1.1-0.4,1.5,0l0.9,0.9
		c0.4,0.4,0.4,1.1,0,1.5L27.3,39C26.9,39.4,26.2,39.4,25.8,39z"/>
	<g id="XMLID_549_" class="st7">
		<path id="XMLID_571_" class="st17" d="M22.4,35.4l-2.2-2.2c-0.1-0.1-0.1-0.2,0-0.2l5.3-5.3c0.1-0.1,0.2-0.1,0.2,0l2.2,2.2"/>
		<line id="XMLID_570_" class="st17" x1="22.6" y1="30.1" x2="24.9" y2="32.3"/>
	</g>
	<path id="XMLID_577_" class="st5" d="M15.1,21.5c-1.5,1.5-5.1,0.5-8-2.4s-3.9-6.4-2.4-8"/>
	<path id="XMLID_576_" class="st5" d="M4.7,11.1C5.6,10.2,7.3,10.2,9,11"/>
</g>
<g id="XMLID_184_" class="st0">
	<g id="XMLID_458_" class="st7">
		<path id="XMLID_597_" class="st37" d="M42.4,1.5H3.5c-0.1,0-0.2,0.1-0.2,0.2v42.6h39.4V1.7C42.7,1.6,42.6,1.5,42.4,1.5z"/>
		<path id="XMLID_596_" class="st41" d="M42.4,1.5h-4.2c0.1,0,0.2,0.1,0.2,0.2v42.6h4.2V1.7C42.7,1.6,42.6,1.5,42.4,1.5z"/>
		
			<linearGradient id="XMLID_21_" gradientUnits="userSpaceOnUse" x1="1.3921" y1="36.139" x2="49.4276" y2="47.1037" gradientTransform="matrix(1 0 0 -1 0 45.8961)">
			<stop  offset="0" style="stop-color:#6874E7"/>
			<stop  offset="0.4803" style="stop-color:#747FE9"/>
			<stop  offset="0.9847" style="stop-color:#858EEC"/>
		</linearGradient>
		<path id="XMLID_588_" class="st42" d="M42.4,1.5H3.5c-0.1,0-0.2,0.1-0.2,0.3v6.3h39.4V1.8C42.7,1.6,42.6,1.5,42.4,1.5z"/>
		<path id="XMLID_586_" class="st8" d="M42.1,8.1V1.9c0-0.1-0.1-0.2-0.2-0.2H4c-0.1,0-0.2,0.1-0.2,0.2v6.2h25.4"/>
		<line id="XMLID_584_" class="st17" x1="7.2" y1="5.1" x2="8.5" y2="5.1"/>
		<line id="XMLID_583_" class="st17" x1="10.3" y1="5.1" x2="11.6" y2="5.1"/>
		<line id="XMLID_578_" class="st17" x1="13.4" y1="5.1" x2="14.7" y2="5.1"/>
		<line id="XMLID_504_" class="st8" x1="31" y1="8.1" x2="33.1" y2="8.1"/>
	</g>
	<path id="XMLID_183_" class="st3" d="M31.5,19.8H15c-0.1,0-0.2-0.1-0.2-0.2v-7c0-0.1,0.1-0.2,0.2-0.2h16.5c0.1,0,0.2,0.1,0.2,0.2v7
		C31.6,19.7,31.6,19.8,31.5,19.8z"/>
	<path id="XMLID_182_" class="st3" d="M19.4,35.9H2.9c-0.1,0-0.2-0.1-0.2-0.2v-7c0-0.1,0.1-0.2,0.2-0.2h16.5c0.1,0,0.2,0.1,0.2,0.2
		v7C19.5,35.8,19.5,35.9,19.4,35.9z"/>
	<path id="XMLID_146_" class="st3" d="M43.5,35.9H27c-0.1,0-0.2-0.1-0.2-0.2v-7c0-0.1,0.1-0.2,0.2-0.2h16.5c0.1,0,0.2,0.1,0.2,0.2v7
		C43.7,35.8,43.6,35.9,43.5,35.9z"/>
	<path id="XMLID_542_" class="st5" d="M31.5,19.8H15c-0.1,0-0.2-0.1-0.2-0.2v-7c0-0.1,0.1-0.2,0.2-0.2h16.5c0.1,0,0.2,0.1,0.2,0.2v7
		C31.6,19.7,31.6,19.8,31.5,19.8z"/>
	<path id="XMLID_544_" class="st5" d="M19.4,35.9H2.9c-0.1,0-0.2-0.1-0.2-0.2v-7c0-0.1,0.1-0.2,0.2-0.2h16.5c0.1,0,0.2,0.1,0.2,0.2
		v7C19.5,35.8,19.5,35.9,19.4,35.9z"/>
	<path id="XMLID_565_" class="st5" d="M43.5,35.9H27c-0.1,0-0.2-0.1-0.2-0.2v-7c0-0.1,0.1-0.2,0.2-0.2h16.5c0.1,0,0.2,0.1,0.2,0.2v7
		C43.7,35.8,43.6,35.9,43.5,35.9z"/>
	<path id="XMLID_568_" class="st5" d="M11.1,26.5V24c0-0.1,0.1-0.1,0.1-0.1h24.4c0.1,0,0.1,0.1,0.1,0.1v2.5"/>
	<line id="XMLID_569_" class="st5" x1="23.2" y1="23.9" x2="23.2" y2="21.5"/>
	<path id="XMLID_591_" class="st5" d="M0.2,44.5V40c0-0.1,0.1-0.1,0.2-0.1h45.1c0.1,0,0.2,0.1,0.2,0.1v4.5"/>
	<line id="XMLID_590_" class="st5" x1="11.2" y1="39.9" x2="11.2" y2="37.5"/>
	<line id="XMLID_592_" class="st5" x1="36.2" y1="39.9" x2="36.2" y2="37.5"/>
	<line id="XMLID_593_" class="st5" x1="23.2" y1="44.5" x2="23.2" y2="39.5"/>
	<line id="XMLID_572_" class="st5" x1="18.1" y1="16.1" x2="19.9" y2="16.1"/>
	<line id="XMLID_567_" class="st5" x1="22.3" y1="16.1" x2="24.1" y2="16.1"/>
	<line id="XMLID_579_" class="st5" x1="26.5" y1="16.1" x2="28.3" y2="16.1"/>
	<line id="XMLID_582_" class="st5" x1="6" y1="32.2" x2="7.8" y2="32.2"/>
	<line id="XMLID_581_" class="st5" x1="10.2" y1="32.2" x2="12" y2="32.2"/>
	<line id="XMLID_580_" class="st5" x1="14.4" y1="32.2" x2="16.2" y2="32.2"/>
	<line id="XMLID_589_" class="st5" x1="30" y1="32.2" x2="31.8" y2="32.2"/>
	<line id="XMLID_587_" class="st5" x1="34.2" y1="32.2" x2="36" y2="32.2"/>
	<line id="XMLID_585_" class="st5" x1="38.4" y1="32.2" x2="40.2" y2="32.2"/>
</g>
<g id="XMLID_298_" class="st0">
	
		<linearGradient id="XMLID_22_" gradientUnits="userSpaceOnUse" x1="1.7486" y1="22.7929" x2="44.2577" y2="22.7929" gradientTransform="matrix(1 0 0 -1 0 45.8961)">
		<stop  offset="0" style="stop-color:#6874E7"/>
		<stop  offset="0.4803" style="stop-color:#747FE9"/>
		<stop  offset="0.9847" style="stop-color:#858EEC"/>
	</linearGradient>
	<path id="XMLID_304_" class="st43" d="M44.3,25.3v-4.5l-7.2-1c-0.4-1.5-1-3-1.8-4.3l4.4-5.8l-3.2-3.2l-5.8,4.4
		c-1.3-0.8-2.7-1.4-4.3-1.8l-1-7.2h-4.5l-1,7.2c-1.5,0.4-2.9,1-4.2,1.8L9.9,6.5L6.7,9.7l4.3,5.8c-0.8,1.3-1.4,2.7-1.8,4.3l-7.2,1
		v4.5l7.2,1.1c0.4,1.5,1,3,1.8,4.3l-4.4,5.8l3.2,3.2l5.8-4.4c1.3,0.8,2.7,1.4,4.3,1.8l1,7.2h4.5l1.1-7.2c1.5-0.4,3-1,4.3-1.8
		l5.8,4.4l3.2-3.2l-4.4-5.8c0.8-1.3,1.4-2.7,1.8-4.3L44.3,25.3z M23,31.6c-4.8,0-8.6-3.9-8.6-8.6c0-4.8,3.9-8.6,8.6-8.6
		s8.6,3.9,8.6,8.6C31.6,27.8,27.8,31.6,23,31.6z"/>
	<path id="XMLID_56_" class="st5" d="M30.9,26.4c-0.4,1-1.1,2-1.8,2.7c-0.8,0.8-1.7,1.4-2.7,1.8c-1,0.4-2.2,0.7-3.4,0.7
		s-2.3-0.2-3.4-0.7c-1-0.4-2-1.1-2.7-1.8c-0.8-0.8-1.4-1.7-1.8-2.7s-0.7-2.2-0.7-3.4s0.2-2.3,0.7-3.4c0.4-1,1.1-2,1.8-2.7
		c0.8-0.8,1.7-1.4,2.7-1.8"/>
	<path id="XMLID_57_" class="st3" d="M23,13.4V23h9.6c0,0-0.1-4-2.5-6.5C30.1,16.5,27.8,13.6,23,13.4z"/>
	<polyline id="XMLID_58_" class="st5" points="23,10.4 23,23 35.8,23 	"/>
	<line id="XMLID_62_" class="st5" x1="23" y1="18.8" x2="27.4" y2="14.4"/>
	<line id="XMLID_59_" class="st5" x1="23" y1="23" x2="30" y2="16.4"/>
	<line id="XMLID_64_" class="st5" x1="27.7" y1="23.2" x2="31.8" y2="19"/>
	<path id="XMLID_55_" class="st5" d="M32.6,23c0-2.7-1.1-5.1-2.8-6.8c-1.7-1.7-4.2-2.8-6.8-2.8"/>
</g>
<g>
	<path id="XMLID_354_" class="st37" d="M34.8,30.7l-8-2.7v-3.4c0.9-0.5,1.7-1.4,1.8-2.5l0.3-3.4c0.7-0.3,1.2-1,1.2-1.8
		c0-0.7-0.4-1.3-0.9-1.6l0.1-0.6c0-3.6-2.9-6.5-6.5-6.5s-6.1,2.9-6.1,6.5l0.1,0.6c-0.5,0.3-0.8,0.9-0.8,1.5c0,0.8,0.5,1.5,1.2,1.8
		l0.5,3.5c0.1,1,0.7,2,1.6,2.5v0.6v2.6l-8.2,2.8c-0.8,0.3-1.3,1-1.3,1.8v6.2h26.3v-6.2C36.1,31.7,35.6,30.9,34.8,30.7z"/>
	<path id="XMLID_347_" class="st37" d="M34.8,30.7l-8-2.7v-3.4c0.9-0.5,1.7-1.4,1.8-2.5l0.3-3.4c0.7-0.3,1.2-1,1.2-1.8
		c0-0.7-0.4-1.3-0.9-1.6l0.1-0.6c0-3.6-2.9-6.5-6.5-6.5s-6.1,2.9-6.1,6.5l0.1,0.6c-0.5,0.3-0.8,0.9-0.8,1.5c0,0.8,0.5,1.5,1.2,1.8
		l0.5,3.5c0.1,1,0.7,2,1.6,2.5v0.6v2.6l-8.2,2.8c-0.8,0.3-1.3,1-1.3,1.8v6.2h26.3v-6.2C36.1,31.7,35.6,30.9,34.8,30.7z"/>
	<path id="XMLID_156_" class="st44" d="M34.8,30.7l-8-2.7v-3.4c0.9-0.5,1.7-1.4,1.8-2.5l0.3-3.4c0.7-0.3,1.2-1,1.2-1.8
		c0-0.7-0.4-1.3-0.9-1.6l0.1-0.6c0-3.6-2.9-6.5-6.5-6.5c-0.4,0-0.8,0-1.2,0.1c3,0.6,5.2,3.2,5.2,6.3L26.2,22c-0.1,1-0.9,3.4-1.8,3.9
		v5.4l8,3.7c0.8,0.3,1.3,3.5,1.3,3.5h2.5v-6.2C36.1,31.7,35.6,30.9,34.8,30.7z"/>
	<path id="XMLID_346_" class="st45" d="M26.9,28l8,2.7c0.8,0.3,1.3,1,1.3,1.8v6.2H9.8v-6.2c0-0.8,0.5-1.5,1.3-1.8l8.2-2.8l3.6,6.3
		L26.9,28z"/>
	<path id="XMLID_487_" class="st46" d="M34.8,30.7l-8-2.7l-1.6,2.6l6.7,2.3c0.7,0.2,1.1,0.9,1.1,1.5v4.4h3.1v-6.2
		C36.1,31.7,35.6,30.9,34.8,30.7z"/>
	<path id="XMLID_336_" class="st47" d="M29.3,15.7l0.1-1.4c0-3.5-2.8-6.3-6.3-6.3s-6.3,2.8-6.3,6.3l0.1,1.3h-0.1
		c-0.7,0-1.3,0.7-1.1,1.4l0.1,0.3c0.2,0.7,0.7,1.2,1.4,1.3l0.3,3.3c0.1,1,0.7,1.9,1.6,2.4l3,2h2l3.2-2c0.9-0.5,1.5-1.4,1.6-2.4
		l0.3-3.3c0.6-0.2,1-0.6,1.1-1.2l0.1-0.3C30.4,16.4,29.9,15.7,29.3,15.7z"/>
	<polygon id="XMLID_335_" class="st48" points="24.3,33.8 24.9,38.7 20.9,38.7 21.7,33.8 	"/>
	<path id="XMLID_321_" class="st48" d="M21.7,33.8l-0.8-2.4l0,0l2-1.5l0,0l2,1.5l0,0l-0.8,2.4H21.7z"/>
	<line id="XMLID_305_" class="st47" x1="21.7" y1="33.8" x2="24.3" y2="33.8"/>
	<path id="XMLID_70_" class="st47" d="M24.1,0.7C35.9,1.3,45.3,11,45.3,23c0,12.3-10,22.3-22.3,22.3S0.7,35.3,0.7,23"/>
	<path id="XMLID_66_" class="st49" d="M0.7,23c0-12.3,10-22.3,22.3-22.3c0.4,0,0.7,0,1.1,0"/>
	<polyline id="XMLID_67_" class="st47" points="26.7,24.5 26.7,28.5 24.7,31.2 23,29.8 21.3,31.2 19.4,28.1 19.4,24.5 	"/>
</g>
<g id="XMLID_94_" class="st0">
	<path id="XMLID_725_" class="st3" d="M42.1,25.3v-4.9L38,19.3c-0.4-1.7-1-3.2-1.9-4.6l2.5-4L35,7.2l-4,2.4c-1.4-0.9-3-1.5-4.6-1.9
		l-1.1-4.5h-4.9l-1.1,4.5c-1.6,0.4-3.2,1-4.6,1.9l-3.9-2.3l-3.5,3.5l2.3,3.9c-0.9,1.4-1.5,3-1.9,4.6l-4.1,1.3v4.9l4.1,1
		c0.4,1.7,1,3.2,1.9,4.6L7,34.8l3.5,3.5l4.1-2.2c1.4,0.9,3,1.5,4.6,1.9l1.1,4.7h4.9l1.1-4.7c1.7-0.4,3.2-1,4.6-1.9L36,31
		c0.9-1.4,1.5-3,1.9-4.6L42.1,25.3z M22.6,33.9c-6.1,0-11-4.9-11-11s4.9-11,11-11s11,4.9,11,11S28.7,33.9,22.6,33.9z"/>
	<circle id="XMLID_95_" class="st5" cx="22.8" cy="23" r="10.6"/>
	<line id="XMLID_105_" class="st5" x1="30.4" y1="30.7" x2="35.3" y2="35.6"/>
	<polyline id="XMLID_101_" class="st5" points="16.5,23.3 20.4,27.1 29.1,18.5 	"/>
	
		<linearGradient id="XMLID_23_" gradientUnits="userSpaceOnUse" x1="31.7746" y1="8.4804" x2="42.5317" y2="8.4804" gradientTransform="matrix(1 0 0 -1 0 45.8961)">
		<stop  offset="0" style="stop-color:#6874E7"/>
		<stop  offset="0.4803" style="stop-color:#747FE9"/>
		<stop  offset="0.9847" style="stop-color:#858EEC"/>
	</linearGradient>
	<path id="XMLID_97_" class="st50" d="M35.6,32.1c-0.1-0.1-0.3-0.1-0.4,0l-3.4,3.4c-0.1,0.1-0.1,0.3,0,0.4l6.9,6.9l3.8-3.8
		L35.6,32.1z"/>
</g>
<g id="XMLID_174_" class="st0">
	<path id="XMLID_706_" class="st35" d="M44.2,41.3H1.8c-0.1,0-0.2-0.1-0.2-0.2V12.8c0-0.1,0.1-0.2,0.2-0.2h42.3
		c0.1,0,0.2,0.1,0.2,0.2V41C44.4,41.2,44.3,41.3,44.2,41.3z"/>
	<rect id="XMLID_705_" x="3.9" y="14.3" class="st3" width="37.8" height="23.4"/>
	<path id="XMLID_703_" class="st13" d="M44.7,43.3H1.3c-0.6,0-1-0.4-1.1-1l-0.4-2.6h19.3l0.7,1.1h5.3l0.8-1.1h20.3l-0.4,2.6
		C45.7,42.9,45.3,43.3,44.7,43.3z"/>
	<path id="XMLID_797_" class="st5" d="M44.7,43.3H1.3c-0.6,0-1-0.4-1.1-1l-0.4-2.6h19.3l0.7,1.1h5.3l0.8-1.1h20.3l-0.4,2.6
		C45.7,42.9,45.3,43.3,44.7,43.3z"/>
	<polygon id="XMLID_172_" class="st9" points="5.1,12.7 6.6,37.5 39.3,37.5 40.8,12.7 	"/>
	<path id="XMLID_179_" class="st2" d="M39.1,2.7H6.8c-0.1,0-0.2,0.1-0.2,0.2v34.6h32.7V2.8C39.3,2.7,39.2,2.7,39.1,2.7z"/>
	<path id="XMLID_180_" class="st35" d="M39.1,2.7h-4.2c0.1,0,0.2,0.1,0.2,0.2v34.6h4.2V2.8C39.3,2.7,39.2,2.7,39.1,2.7z"/>
	
		<linearGradient id="XMLID_24_" gradientUnits="userSpaceOnUse" x1="7.0493" y1="40.1429" x2="38.8907" y2="40.1429" gradientTransform="matrix(1 0 0 -1 0 45.8961)">
		<stop  offset="0" style="stop-color:#6874E7"/>
		<stop  offset="0.4803" style="stop-color:#747FE9"/>
		<stop  offset="0.9847" style="stop-color:#858EEC"/>
	</linearGradient>
	<path id="XMLID_144_" class="st51" d="M38.7,2.7H7.2C7.1,2.7,7,2.8,7,2.9v5.9h31.8V2.9C38.9,2.7,38.8,2.7,38.7,2.7z"/>
	<path id="XMLID_129_" class="st5" d="M18.8,8.7H7V2.8c0-0.1,0.1-0.2,0.2-0.2h31.5c0.1,0,0.2,0.1,0.2,0.2v5.9h-6.1"/>
	<line id="XMLID_130_" class="st5" x1="20.2" y1="8.6" x2="23.6" y2="8.6"/>
	<line id="XMLID_132_" class="st6" x1="10" y1="5.5" x2="11.5" y2="5.5"/>
	<line id="XMLID_128_" class="st6" x1="12.8" y1="5.5" x2="14.3" y2="5.5"/>
	<line id="XMLID_134_" class="st6" x1="15.5" y1="5.5" x2="17.1" y2="5.5"/>
	<polyline id="XMLID_142_" class="st5" points="10.9,11.3 10.9,17.7 35,17.7 	"/>
	<path id="XMLID_177_" class="st1" d="M23,21.9c-8.4,0-15.2,6.8-15.2,15.2h30.4C38.2,28.7,31.4,21.9,23,21.9z"/>
	
		<linearGradient id="XMLID_25_" gradientUnits="userSpaceOnUse" x1="19.6562" y1="10.4429" x2="26.2736" y2="10.4429" gradientTransform="matrix(1 0 0 -1 0 45.8961)">
		<stop  offset="0" style="stop-color:#6874E7"/>
		<stop  offset="0.4803" style="stop-color:#747FE9"/>
		<stop  offset="0.9847" style="stop-color:#858EEC"/>
	</linearGradient>
	<path id="XMLID_178_" class="st52" d="M23,33.8c-1.8,0-3.3,1.5-3.3,3.3h6.6C26.3,35.3,24.8,33.8,23,33.8z"/>
	<path id="XMLID_80_" class="st5" d="M19.7,37.1c0-1.8,1.5-3.3,3.3-3.3s3.3,1.5,3.3,3.3"/>
	<path id="XMLID_100_" class="st5" d="M7.8,37.1c0-8.4,6.8-15.2,15.2-15.2s15.2,6.8,15.2,15.2"/>
	<path id="XMLID_77_" class="st5" d="M12.6,32.8c0.6-1.3,1.4-2.6,2.4-3.6s2.2-1.8,3.6-2.4c1.3-0.6,2.8-0.9,4.4-0.9
		c1.6,0,3,0.3,4.4,0.9c1.3,0.6,2.6,1.4,3.6,2.4c1,1,1.8,2.2,2.4,3.6"/>
	<line id="XMLID_121_" class="st5" x1="25.2" y1="34.7" x2="29" y2="30"/>
	<line id="XMLID_125_" class="st5" x1="23" y1="27.8" x2="23" y2="29.3"/>
	<line id="XMLID_106_" class="st5" x1="26.1" y1="28.4" x2="25.6" y2="29.8"/>
	<line id="XMLID_176_" class="st5" x1="14.9" y1="32.5" x2="16.2" y2="33.2"/>
	<line id="XMLID_181_" class="st5" x1="17" y1="30" x2="17.9" y2="31.2"/>
	<line id="XMLID_186_" class="st5" x1="19.7" y1="28.4" x2="20.3" y2="29.8"/>
	<line id="XMLID_398_" class="st5" x1="3.9" y1="37.6" x2="41.7" y2="37.6"/>
</g>
<g id="XMLID_258_" class="st0">
	<g id="XMLID_267_" class="st7">
		<path id="XMLID_277_" class="st29" d="M43.3,20.5v-4.4l-3.7-1c-0.4-1.5-0.9-2.9-1.7-4.2l2.2-3.6L37,4.1l-3.7,2.2
			c-1.3-0.8-2.7-1.4-4.2-1.7l-1-4h-4.4l-1,4c-1.5,0.3-2.9,0.9-4.1,1.7L15,4.2l-3.1,3.1l2.1,3.5c-0.7,1.1-1.2,2.3-1.6,3.6
			c1.4-0.4,2.8-0.7,4.3-0.7c0.9,0,1.8,0.1,2.6,0.3c1.4-2.1,3.8-3.4,6.4-3.4c4.3,0,7.8,3.5,7.8,7.8c0,2.6-1.3,4.9-3.2,6.3
			c0.2,1,0.4,2,0.4,3.1c0,1.4-0.2,2.7-0.6,4c1.1-0.4,2.2-0.8,3.2-1.5l3.7,2.2l3.1-3.1l-2.2-3.6c0.8-1.3,1.4-2.7,1.7-4.2L43.3,20.5z"
			/>
	</g>
	<line id="XMLID_266_" class="st5" x1="26.9" y1="38.1" x2="29" y2="40.1"/>
	<circle id="XMLID_257_" class="st5" cx="16.7" cy="27.8" r="14"/>
	<path id="XMLID_283_" class="st5" d="M7.2,23.8c0.5-1.2,1.3-2.3,2.2-3.3c0.9-0.9,2-1.7,3.3-2.2c1.2-0.5,2.6-0.8,4-0.8"/>
	<g id="XMLID_274_" class="st7">
		<path id="XMLID_259_" class="st29" d="M24.6,32.7h-3.3c-0.6,0-1-0.5-1-1v-7.9c0-0.6,0.5-1,1-1h3.3c0.6,0,1,0.5,1,1v7.9
			C25.6,32.2,25.2,32.7,24.6,32.7z"/>
		<line id="XMLID_264_" class="st8" x1="4.6" y1="27.7" x2="20.3" y2="27.7"/>
		<line id="XMLID_268_" class="st8" x1="7.6" y1="27.7" x2="7.6" y2="32.8"/>
		<line id="XMLID_262_" class="st8" x1="11.3" y1="27.7" x2="11.3" y2="31.8"/>
		<path id="XMLID_270_" class="st8" d="M25.6,25.2c1.4,0,2.5,1.1,2.5,2.5s-1.1,2.5-2.5,2.5"/>
		<line id="XMLID_269_" class="st8" x1="22.1" y1="27.7" x2="23.9" y2="27.7"/>
	</g>
	
		<linearGradient id="XMLID_26_" gradientUnits="userSpaceOnUse" x1="27.4587" y1="3.9429" x2="34.3284" y2="3.9429" gradientTransform="matrix(1 0 0 -1 0 45.8961)">
		<stop  offset="0" style="stop-color:#6874E7"/>
		<stop  offset="0.4803" style="stop-color:#747FE9"/>
		<stop  offset="0.9847" style="stop-color:#858EEC"/>
	</linearGradient>
	<polygon id="XMLID_394_" class="st53" points="30,38.5 27.5,41 31.8,45.4 34.3,42.9 	"/>
</g>
</svg>
