<svg id="Layer_1" data-name="Layer 1" xmlns="http://www.w3.org/2000/svg" viewBox="0 0 42.4 42.6"><defs><style>.cls-1{fill:#008870;}.cls-2{fill:#fff;}.cls-2,.cls-3,.cls-4{stroke:#222;stroke-miterlimit:10;}.cls-3,.cls-4{fill:none;}.cls-4{stroke-dasharray:1.99 1.99;}</style></defs><title>targetpoint</title><circle class="cls-1" cx="22.6" cy="22.8" r="19.8"/><circle class="cls-2" cx="22.6" cy="22.8" r="14.3"/><circle class="cls-1" cx="22.6" cy="22.8" r="3.6"/><line class="cls-3" x1="22.6" y1="22.8" x2="6.6" y2="6.6"/><polyline class="cls-3" points="3.6 0 3.6 3.7 0 3.7"/><polyline class="cls-3" points="6.6 2.9 6.6 6.6 2.9 6.6"/><path class="cls-4" d="M20.3,16.9a8.35,8.35,0,0,1,6.6-.7,9,9,0,0,1,5.2,4.1,8.35,8.35,0,0,1,.7,6.6,9,9,0,0,1-4.1,5.2,8.35,8.35,0,0,1-6.6.7,9,9,0,0,1-5.2-4.1,8.35,8.35,0,0,1-.7-6.6,8.66,8.66,0,0,1,2.3-3.8" transform="translate(-1.8 -1.7)"/><path class="cls-3" d="M21.7,21.8a3.86,3.86,0,1,1-1.1,2.7" transform="translate(-1.8 -1.7)"/><path class="cls-3" d="M14.3,14.4a14.29,14.29,0,0,1,10.1-4.2,14.12,14.12,0,0,1,10.1,4.2,14.29,14.29,0,0,1,4.2,10.1,14.12,14.12,0,0,1-4.2,10.1,14.29,14.29,0,0,1-10.1,4.2,14.12,14.12,0,0,1-10.1-4.2A14.36,14.36,0,0,1,13,15.8" transform="translate(-1.8 -1.7)"/></svg>