<svg id="Layer_1" data-name="Layer 1" xmlns="http://www.w3.org/2000/svg" viewBox="0 0 865.07 264.85"><defs><style>.cls-1{fill:#028970;}</style></defs><title>twiklogo</title><path d="M397.16,42.79h36.62L427,85h30.7l-4.79,31.55H422l-7,43.1a125.73,125.73,0,0,0-1.7,15.77c0,10.71,4,15.22,15.78,15.22a65.93,65.93,0,0,0,13.8-1.69l-5.35,31.26a105.66,105.66,0,0,1-22.53,2.54c-25.36,0-38.6-13-38.6-40.28,0-5.07,1.41-17.47,2.26-23.38Z"/><path d="M551,164.48c-.84-11-2-22-2-33h-.85c-2.81,11-8.16,28.45-11.26,36.34l-21.13,53H475.47L463.07,85h34.09l5.63,64.79c.85,10.42,1.69,21.69,1.69,31H505c2-7,6.77-20.28,10.15-30.71L539.41,85h31.83l6.2,62.26a287,287,0,0,1,2,33.52h.85c2.25-7.89,7.32-22.26,10.14-29.86L615.19,85h35.49L596.59,220.82H556Z"/><path d="M704.2,85,682.79,220.82H646.17L667.58,85ZM677.44,20.82h37.74l-5.63,35.77h-38Z"/><path d="M766.73,163.07l-11.55,10.42-7.32,47.33H711.52L743.63,18H780l-18,112.11L808.42,85h45.35l-61.13,56.34c15.5,26.48,30.43,52.68,45.92,79.44H798.28Z"/><polygon class="cls-1" points="11.3 132.38 83.58 6.89 228.6 6.89 118.61 132.4 11.3 132.38"/><polygon class="cls-1" points="228.61 257.83 84.14 258.2 11.3 132.38 175.31 165.1 228.61 257.83"/><polygon class="cls-1" points="228.19 6.66 301.12 132.24 228.61 257.83 174.91 99.82 228.19 6.66"/></svg>