<?xml version="1.0" encoding="utf-8"?>
<!-- Generator: Adobe Illustrator 23.0.1, SVG Export Plug-In . SVG Version: 6.00 Build 0)  -->
<svg version="1.1" id="Light" xmlns="http://www.w3.org/2000/svg" xmlns:xlink="http://www.w3.org/1999/xlink" x="0px" y="0px"
	 viewBox="0 0 24 24" style="enable-background:new 0 0 24 24;" xml:space="preserve">
<style type="text/css">
	.st0{fill:none;stroke:#028970;stroke-linecap:round;stroke-linejoin:round;}
</style>
<title>video-game-magic-wand</title>
<path class="st0" d="M6.4,5.6l2.8,1L11,4.8c0.2-0.2,0.6-0.3,0.9,0C12,4.9,12,5.1,12,5.3l0.1,3.1l2.8,1.1c0.3,0.1,0.5,0.5,0.4,0.9
	c-0.1,0.2-0.2,0.3-0.4,0.4l-3.2,0.9l-0.9,3.2c-0.1,0.3-0.5,0.6-0.8,0.5c-0.2-0.1-0.4-0.2-0.4-0.4l-1.1-2.8L5.2,12
	c-0.3,0-0.6-0.2-0.6-0.6c0-0.2,0.1-0.4,0.2-0.5l1.8-1.8l-1-2.8C5.5,6.1,5.7,5.7,6,5.6C6.2,5.6,6.3,5.6,6.4,5.6z"/>
<path class="st0" d="M12.2,11.4L23,21c0.6,0.6,0.6,1.4,0,2s-1.4,0.6-2,0l-9.6-10.8"/>
<line class="st0" x1="0.5" y1="9.5" x2="2.5" y2="9.5"/>
<line class="st0" x1="9.5" y1="0.5" x2="9.5" y2="2.5"/>
<line class="st0" x1="2.5" y1="1.5" x2="2.5" y2="3.5"/>
<line class="st0" x1="3.5" y1="2.5" x2="1.5" y2="2.5"/>
<line class="st0" x1="3.5" y1="15" x2="3.5" y2="17"/>
<line class="st0" x1="4.5" y1="16" x2="2.5" y2="16"/>
<line class="st0" x1="15" y1="3.5" x2="17" y2="3.5"/>
<line class="st0" x1="16" y1="4.5" x2="16" y2="2.5"/>
</svg>
