<?xml version="1.0" encoding="utf-8"?>
<!-- Generator: Adobe Illustrator 23.0.1, SVG Export Plug-In . SVG Version: 6.00 Build 0)  -->
<svg version="1.1" id="Light" xmlns="http://www.w3.org/2000/svg" xmlns:xlink="http://www.w3.org/1999/xlink" x="0px" y="0px"
	 viewBox="0 0 24 24" style="enable-background:new 0 0 24 24;" xml:space="preserve">
<style type="text/css">
	.st0{fill:none;stroke:#028970;stroke-linecap:round;stroke-linejoin:round;}
</style>
<title>video-game-boxing</title>
<path class="st0" d="M6.5,5.5v2.3c0,1.5,1.2,2.8,2.8,2.8h7.3c2.8,0,5-2.2,5-5s-2.2-5-5-5h-9c-2.8,0-5,2.2-5,5V12c0,3,1.5,5.8,4,7.5
	h10c2.5-1.7,4-4.5,4-7.5V8.5"/>
<path class="st0" d="M14,15c0.7-1.4,0.7-3.1,0-4.5"/>
<path class="st0" d="M6.5,19.5v3c0,0.6,0.4,1,1,1h8c0.6,0,1-0.4,1-1v-3"/>
<line class="st0" x1="14" y1="23.5" x2="14" y2="21"/>
</svg>
