<?xml version="1.0" encoding="utf-8"?>
<!-- Generator: Adobe Illustrator 23.0.1, SVG Export Plug-In . SVG Version: 6.00 Build 0)  -->
<svg version="1.1" id="Light" xmlns="http://www.w3.org/2000/svg" xmlns:xlink="http://www.w3.org/1999/xlink" x="0px" y="0px"
	 viewBox="0 0 24 24" style="enable-background:new 0 0 24 24;" xml:space="preserve">
<style type="text/css">
	.st0{fill:none;stroke:#028970;stroke-linecap:round;stroke-linejoin:round;}
</style>
<title>video-game-xbox-controller</title>
<path class="st0" d="M23.5,11.5c0-2.2-1.8-4-4-4h-15c-2.2,0-4,1.8-4,4v10.4c0,0.9,0.7,1.6,1.6,1.6c0,0,0,0,0,0
	c1.8,0,1.1,0.4,4.5-5.5c0.5-0.9,1.5-1.5,2.6-1.5h5.6c1.1,0,2,0.6,2.6,1.5c3.4,5.8,2.6,5.5,4.5,5.5c0.9,0,1.6-0.7,1.6-1.6
	c0,0,0,0,0,0L23.5,11.5z"/>
<line class="st0" x1="5.5" y1="10.5" x2="5.5" y2="14.5"/>
<line class="st0" x1="7.5" y1="12.5" x2="3.5" y2="12.5"/>
<line class="st0" x1="10" y1="14.5" x2="11" y2="14.5"/>
<line class="st0" x1="13" y1="14.5" x2="14" y2="14.5"/>
<path class="st0" d="M14,6.5c0-0.6-0.4-1-1-1h-2c-0.6,0-1,0.4-1,1v1h4V6.5z"/>
<path class="st0" d="M12,5.5V3c0-1.4-1.1-2.5-2.5-2.5H5"/>
<path class="st0" d="M18.5,10.2c0.1,0,0.3,0.1,0.3,0.3"/>
<path class="st0" d="M18.3,10.5c0-0.1,0.1-0.3,0.3-0.3"/>
<path class="st0" d="M18.5,10.7c-0.1,0-0.3-0.1-0.3-0.3"/>
<path class="st0" d="M18.8,10.5c0,0.1-0.1,0.3-0.3,0.3"/>
<path class="st0" d="M16.5,12.2c0.1,0,0.3,0.1,0.3,0.3"/>
<path class="st0" d="M16.3,12.5c0-0.1,0.1-0.3,0.3-0.3"/>
<path class="st0" d="M16.5,12.7c-0.1,0-0.3-0.1-0.3-0.3"/>
<path class="st0" d="M16.8,12.5c0,0.1-0.1,0.3-0.3,0.3"/>
<path class="st0" d="M18.5,14.2c0.1,0,0.3,0.1,0.3,0.3"/>
<path class="st0" d="M18.3,14.5c0-0.1,0.1-0.3,0.3-0.3"/>
<path class="st0" d="M18.5,14.7c-0.1,0-0.3-0.1-0.3-0.3"/>
<path class="st0" d="M18.8,14.5c0,0.1-0.1,0.3-0.3,0.3"/>
<path class="st0" d="M20.5,12.2c0.1,0,0.3,0.1,0.3,0.3"/>
<path class="st0" d="M20.2,12.5c0-0.1,0.1-0.3,0.3-0.3"/>
<path class="st0" d="M20.5,12.7c-0.1,0-0.3-0.1-0.3-0.3"/>
<path class="st0" d="M20.7,12.5c0,0.1-0.1,0.3-0.3,0.3"/>
</svg>
