<?xml version="1.0" encoding="utf-8"?>
<!-- Generator: Adobe Illustrator 22.1.0, SVG Export Plug-In . SVG Version: 6.00 Build 0)  -->
<svg version="1.1" id="Light" xmlns="http://www.w3.org/2000/svg" xmlns:xlink="http://www.w3.org/1999/xlink" x="0px" y="0px"
	 viewBox="0 0 24 24" style="enable-background:new 0 0 24 24;" xml:space="preserve">
<style type="text/css">
	.st0{fill:none;stroke:#028970;stroke-linecap:round;stroke-linejoin:round;}
</style>
<title>weather-cloud</title>
<line class="st0" x1="9.5" y1="0.5" x2="9.5" y2="1.5"/>
<line class="st0" x1="2.5" y1="2.5" x2="3.5" y2="3.5"/>
<line class="st0" x1="16.5" y1="2.5" x2="15.5" y2="3.5"/>
<line class="st0" x1="0.5" y1="9.5" x2="1.5" y2="9.5"/>
<path class="st0" d="M21.8,16.2c0.7-1.5,0-3.3-1.6-3.9c-0.5-0.2-1-0.3-1.6-0.2c-1.1-2.8-4.3-4.2-7.1-3.1C9.6,9.6,8.2,11.4,8,13.5
	c-2.8,0.3-4.7,2.8-4.4,5.5c0.3,2.5,2.4,4.4,4.9,4.5h11c2.2,0,4-1.8,4-4C23.5,18.1,22.8,16.9,21.8,16.2z"/>
<path class="st0" d="M14.7,6.5C13,3.6,9.4,2.6,6.5,4.3c-1.9,1.1-3,3.1-3,5.2c0,1.1,0.3,2.1,0.8,3"/>
</svg>
