<?xml version="1.0" encoding="utf-8"?>
<!-- Generator: Adobe Illustrator 23.0.1, SVG Export Plug-In . SVG Version: 6.00 Build 0)  -->
<svg version="1.1" id="Layer_1" xmlns="http://www.w3.org/2000/svg" xmlns:xlink="http://www.w3.org/1999/xlink" x="0px" y="0px"
	 viewBox="0 0 24 24" style="enable-background:new 0 0 24 24;" xml:space="preserve">
<style type="text/css">
	.st0{fill:none;stroke:#028970;stroke-linecap:round;stroke-linejoin:round;}
</style>
<title>wireless-payment-credit-card-dollar</title>
<path class="st0" d="M7.5,23.5h-5c-1.1,0-2-0.9-2-2v-19c0-1.1,0.9-2,2-2h10c1.1,0,2,0.9,2,2v9"/>
<line class="st0" x1="14.5" y1="4.5" x2="0.5" y2="4.5"/>
<line class="st0" x1="7.5" y1="19.5" x2="0.5" y2="19.5"/>
<line class="st0" x1="5.5" y1="2.5" x2="9.5" y2="2.5"/>
<line class="st0" x1="9.5" y1="16.5" x2="23.5" y2="16.5"/>
<line class="st0" x1="15.5" y1="18.5" x2="11.5" y2="18.5"/>
<line class="st0" x1="21.5" y1="18.5" x2="19.5" y2="18.5"/>
<line class="st0" x1="13.5" y1="20.5" x2="11.5" y2="20.5"/>
<path class="st0" d="M11.5,13.5h10c1.1,0,2,0.9,2,2v6c0,1.1-0.9,2-2,2h-10c-1.1,0-2-0.9-2-2v-6C9.5,14.4,10.4,13.5,11.5,13.5z"/>
<path class="st0" d="M6.1,12.6c0,0.8,0.6,1.4,1.4,1.4c0.8,0,1.4-0.6,1.4-1.4c0-0.8-0.6-1.4-1.4-1.4c0,0,0,0,0,0
	c-0.8,0-1.4-0.6-1.4-1.4c0-0.8,0.6-1.4,1.4-1.4c0.8,0,1.4,0.6,1.4,1.4"/>
<line class="st0" x1="7.5" y1="14" x2="7.5" y2="14.9"/>
<line class="st0" x1="7.5" y1="7.5" x2="7.5" y2="8.4"/>
</svg>
