<?xml version="1.0" encoding="utf-8"?>
<!-- Generator: Adobe Illustrator 22.1.0, SVG Export Plug-In . SVG Version: 6.00 Build 0)  -->
<svg version="1.1" id="Layer_1" xmlns="http://www.w3.org/2000/svg" xmlns:xlink="http://www.w3.org/1999/xlink" x="0px" y="0px"
	 viewBox="0 0 24 24" style="enable-background:new 0 0 24 24;" xml:space="preserve">
<style type="text/css">
	.st0{fill:#028970;}
</style>
<title>wordpress</title>
<path class="st0" d="M2.4,7.4C2.3,7.1,2,7,1.8,7.1c-0.1,0-0.2,0.1-0.2,0.2C0,10.9,0.3,14.9,2.3,18.2C3.5,20,5.1,21.4,7,22.3
	c0.1,0,0.1,0,0.2,0c0.1,0,0.2,0,0.3-0.1c0.1-0.1,0.2-0.3,0.1-0.5L2.4,7.4z M1.5,12c0-1.1,0.2-2.1,0.5-3.2l4.4,12.1
	C3.3,19,1.4,15.6,1.5,12z"/>
<path class="st0" d="M16,22.1l-3.4-9.2c-0.1-0.2-0.2-0.3-0.4-0.3l0,0c-0.2,0-0.4,0.1-0.4,0.3l-3.3,9.6c0,0.1,0,0.2,0,0.4
	c0.1,0.1,0.2,0.2,0.3,0.2c1.1,0.3,2.1,0.5,3.2,0.5c1.3,0,2.6-0.2,3.8-0.7c0.2-0.1,0.4-0.4,0.3-0.6C16,22.2,16,22.2,16,22.1
	C16,22.1,16,22.1,16,22.1z M12,22.5c-0.8,0-1.7-0.1-2.5-0.3l2.7-7.9l2.8,7.8C14.1,22.4,13,22.5,12,22.5z"/>
<path class="st0" d="M17.2,18.6c0.2,0,0.4-0.1,0.4-0.3l1.2-3.4c0.5-1.2,0.8-2.4,0.8-3.7c0-1.1-0.3-2.1-0.8-3l0,0L18.7,8
	c-0.5-0.6-0.8-1.4-0.9-2.1c0-0.8,0.6-1.5,1.4-1.5h0.1c0.2,0,0.4-0.1,0.5-0.3c0.1-0.2,0-0.4-0.1-0.5C15-0.7,7.8-0.4,3.5,4.3
	C3.1,4.8,2.7,5.2,2.4,5.8c-0.1,0.1-0.1,0.3,0,0.5c0.1,0.1,0.2,0.2,0.4,0.2h0.7c1.1,0,2.6-0.1,2.9-0.1c0,0.1,0,0.3,0,0.4
	c-0.1,0-0.6,0.1-1.2,0.1C5.1,6.8,4.9,6.9,4.8,7c-0.1,0.1-0.1,0.3,0,0.4l3.6,10.7c0.1,0.2,0.2,0.3,0.4,0.3l0,0c0.2,0,0.4-0.1,0.4-0.3
	l2.4-7.2c0-0.1,0-0.2,0-0.3l-1.3-3.5c-0.1-0.2-0.2-0.3-0.4-0.3c-0.5,0-1-0.1-1.1-0.1c0-0.1,0-0.3,0-0.4c0.3,0,1.9,0.1,2.9,0.1
	s2.6-0.1,2.9-0.1c0,0.1,0,0.3,0,0.4c-0.1,0-0.7,0.1-1.2,0.1c-0.1,0-0.3,0.1-0.4,0.2c-0.1,0.1-0.1,0.3,0,0.4l3.7,10.9
	C16.9,18.5,17.1,18.6,17.2,18.6L17.2,18.6z M14.1,7.6h0.7c0.6-0.1,0.9-0.6,0.8-1.2c-0.1-0.6-0.5-1-1-1l0,0c0,0-1.8,0.1-2.9,0.1
	S8.9,5.4,8.9,5.4l0,0c-0.5,0-1,0.4-1,1c0,0,0,0,0,0.1C7.8,7,8.2,7.5,8.7,7.6c0,0,0,0,0,0l0.9,0.1l1.1,3.1l-1.9,5.7l-3-8.9h0.7
	c0.6-0.1,0.9-0.6,0.8-1.2c0,0,0,0,0,0c0-0.5-0.4-1-0.9-1c0,0,0,0,0,0l0,0c0,0-1.6,0.1-2.7,0.1C7.2,1,13.8,0.1,18.4,3.6
	C17.5,4,17,4.9,17,5.8c0.1,0.9,0.4,1.9,1,2.6l0.1,0.2c0.5,0.7,0.7,1.6,0.7,2.5c-0.1,1.2-0.3,2.3-0.8,3.4l0,0l-0.8,2.2L14.1,7.6z"/>
<path class="st0" d="M22.1,6.5c-0.1-0.2-0.3-0.3-0.5-0.2c-0.2,0.1-0.3,0.3-0.3,0.5c0.1,0.4,0.1,0.7,0.1,1.1c0,1.3-0.3,2.6-0.8,3.8
	l0,0l-3.4,9.7c-0.1,0.2,0,0.4,0.1,0.5c0.1,0.1,0.2,0.1,0.3,0.1c0.1,0,0.2,0,0.2-0.1c1.7-1,3.2-2.4,4.2-4.1C23.9,14.3,24,10,22.1,6.5
	z M18.4,20.4l2.9-8.4c0.4-0.9,0.7-1.9,0.8-2.9C23.3,13.2,21.9,17.8,18.4,20.4L18.4,20.4z"/>
</svg>
